<svg version="1.2" xmlns="http://www.w3.org/2000/svg" viewBox="0 0 4096 4096" width="4096" height="4096">
	<style>
		.s0 { opacity: .98;fill: #fcfcfb } 
	</style>
	<path id="Path 0" class="s0" d="m2730.5 440.67c-0.46 0.36-0.76 2.16-0.67 4 0.11 2.04-0.51 3.98-1.58 5.02-1.13 1.09-1.89 3.67-2.13 7.25-0.22 3.06-1.01 6.46-1.76 7.56-0.81 1.18-1.37 4.57-1.37 8.25 0.01 4.14-0.41 6.37-1.24 6.61-0.77 0.23-1.54 3.31-2 8-0.45 4.57-1.35 8.24-2.25 9.14q-1.5 1.5-1.46 7.25c0.04 4-0.43 6.21-1.54 7.25-1.03 0.98-1.57 3.16-1.54 6.25 0.03 3.36-0.4 4.9-1.46 5.25-0.95 0.32-1.5 1.78-1.5 4 0 1.92-0.9 5.19-2 7.25-1.11 2.06-1.99 5.33-1.96 7.25 0.03 1.96-0.65 4.16-1.54 5-1.07 1.01-1.56 3.13-1.5 6.5 0.06 3.37-0.43 5.49-1.5 6.5-0.89 0.84-1.57 3.04-1.53 5 0.03 2.31-0.64 4.1-1.96 5.25-1.39 1.21-2.01 2.99-2.01 5.75q0 4-1.5 4.5c-0.87 0.29-1.48 1.66-1.46 3.25 0.03 1.51-0.67 3.42-1.54 4.25-1.01 0.96-1.57 3.13-1.53 6 0.03 3.31-0.48 4.96-1.96 6.25-1.11 0.96-1.99 2.54-1.97 3.5 0.03 0.96-0.67 2.42-1.54 3.25-0.87 0.83-1.57 2.29-1.54 3.25 0.02 0.96-0.64 2.42-1.46 3.25-0.82 0.83-1.5 2.96-1.49 4.75 0.01 2.02-0.75 3.91-2 5-1.11 0.96-2.01 2.65-2.01 3.75 0 1.1-0.68 2.67-1.5 3.5-0.82 0.83-1.5 2.62-1.5 4 0 1.37-0.34 2.67-0.75 2.87-0.41 0.2-2.65 4.14-4.97 8.75-2.33 4.61-4.24 9.39-4.25 10.63-0.02 1.24-0.71 2.48-1.53 2.75-0.82 0.27-1.5 1.51-1.49 2.75 0 1.24-0.9 3.04-2 4-1.11 0.96-2.01 2.65-2.01 3.75 0 1.1-0.34 2.11-0.75 2.25-0.41 0.14-1.76 1.71-3 3.5-1.24 1.79-2.23 3.81-2.21 4.5 0.03 0.69-0.67 1.92-1.54 2.75-0.87 0.83-1.55 2.17-1.51 3 0.04 0.83-0.85 2.4-1.99 3.5-1.14 1.1-2.05 2.79-2.03 3.75 0.02 0.96-1.32 3.21-2.98 5-1.65 1.79-3 3.92-2.99 4.75 0.01 0.83-0.89 2.29-1.99 3.25-1.11 0.96-2.02 2.54-2.04 3.5-0.01 0.96-1.38 3.1-3.03 4.75-1.65 1.65-2.98 3.9-2.96 5 0.01 1.1-0.87 2.56-1.98 3.25-1.1 0.69-2 2.04-2 3 0 0.96-2.26 4.23-5.03 7.25-2.77 3.02-5.02 6.06-5.01 6.75 0.02 0.69-1.82 3.16-4.09 5.5-2.28 2.34-5.65 6.61-7.5 9.5-1.86 2.89-4.21 6.04-5.25 7-1.03 0.96-2.15 2.76-2.5 4-0.34 1.24-2.87 4.5-5.62 7.25-2.75 2.75-4.98 5.56-4.96 6.25 0.02 0.69-2.8 4.33-6.25 8.09-3.46 3.76-8.43 9.05-11.04 11.75-2.61 2.7-4.76 5.47-4.77 6.16 0 0.69-10.69 11.96-23.75 25.04-13.05 13.09-25.53 24.85-27.73 26.13-2.2 1.29-6.93 5.1-10.5 8.48-3.57 3.38-7.08 6.13-7.8 6.12-0.71-0.01-3.52 2.23-6.25 4.98-2.72 2.75-6.3 5.67-7.95 6.5-1.65 0.83-5.59 3.97-8.75 6.98-3.16 3.01-6.2 5.47-6.75 5.47-0.55 0-2.76 1.47-4.92 3.27-2.16 1.8-5.31 4.73-7 6.5-1.69 1.76-3.98 3.23-5.08 3.24-1.1 0.02-3.35 1.62-5 3.56-1.65 1.95-3.9 3.53-5 3.52-1.1 0-3.13 1.16-4.5 2.59-1.38 1.43-3.85 3.15-5.5 3.83-1.65 0.68-4.13 2.42-5.5 3.87-1.38 1.45-3.4 2.63-4.5 2.63-1.1-0.01-3.35 1.57-5 3.52-1.79 2.1-3.91 3.52-5.25 3.52-1.24 0-2.47 0.67-2.75 1.5-0.28 0.83-1.29 1.49-2.25 1.47-0.96-0.02-2.74 0.77-3.95 1.75-1.21 0.98-3.24 2.57-4.5 3.54-1.27 0.97-3.09 1.76-4.05 1.75-0.96 0-1.97 0.66-2.25 1.49-0.28 0.83-1.51 1.51-2.75 1.53-1.24 0.01-3.56 1.36-5.17 3-1.6 1.63-3.4 2.95-4 2.94-0.59-0.02-2.32 0.88-3.83 2-1.51 1.11-3.31 2.01-4 1.99-0.69-0.03-1.93 0.67-2.75 1.54-0.82 0.87-2.26 1.57-3.18 1.54-0.92-0.02-2.27 0.57-3 1.32-0.73 0.75-5.03 3.23-9.57 5.5-4.54 2.28-8.25 4.59-8.25 5.14 0 0.55-0.9 1-2 1-1.1 0-2.9 0.9-4 2-1.1 1.1-2.79 1.98-3.75 1.96-0.96-0.03-2.43 0.67-3.25 1.54-0.82 0.87-2.4 1.55-3.5 1.5-1.1-0.05-2.68 0.63-3.5 1.5-0.82 0.87-2.18 1.57-3 1.55-0.82-0.02-2.85 0.86-4.5 1.95-1.65 1.09-3.68 1.97-4.5 1.95-0.82-0.02-2.18 0.68-3 1.55-0.82 0.87-2.48 1.57-3.68 1.54-1.2-0.02-2.85 0.63-3.68 1.46-0.82 0.82-2.32 1.49-3.32 1.47-1-0.02-2.72 0.89-3.82 2.03-1.1 1.14-3.01 2.05-4.25 2.03-1.24-0.02-2.47 0.64-2.75 1.47-0.28 0.83-1.51 1.48-2.75 1.46-1.24-0.03-2.93 0.67-3.75 1.54-0.82 0.87-2.4 1.57-3.5 1.55-1.1-0.02-3.35 0.86-5 1.95-1.65 1.09-4.01 1.99-5.25 1.99-1.24 0.01-2.47 0.68-2.75 1.51-0.28 0.83-1.63 1.5-3 1.5-1.38 0-2.72 0.67-3 1.5-0.33 0.99-1.78 1.49-4.25 1.47q-3.75-0.04-5.75 2.03c-1.1 1.14-3.13 2.06-4.5 2.06-1.38 0-3.4 0.67-4.5 1.49-1.1 0.82-2.9 1.46-4 1.42-1.1-0.03-2.68 0.66-3.5 1.53-0.82 0.87-2.29 1.57-3.25 1.54-0.96-0.02-2.99 0.88-4.5 1.99-1.51 1.12-4.21 2.02-6 2-2.02-0.02-3.44 0.54-3.75 1.47-0.28 0.85-1.68 1.49-3.25 1.48-1.51-0.01-3.65 0.65-4.75 1.47-1.1 0.82-2.98 1.5-4.18 1.52-1.2 0.02-2.77 0.65-3.5 1.41-0.73 0.76-2.89 1.66-4.82 2-1.93 0.34-4.18 1.31-5 2.16-0.82 0.85-2.63 1.54-4 1.54-1.38-0.01-3.4 0.65-4.5 1.47-1.1 0.82-3.21 1.48-4.68 1.47-1.47-0.01-3.35 0.65-4.18 1.48-0.82 0.82-2.88 1.5-4.57 1.5-1.83 0-3.78 0.81-4.82 2.01-1.15 1.32-2.94 1.99-5.25 1.96-1.96-0.04-4.16 0.64-5 1.53-0.87 0.92-3.07 1.57-5.25 1.54-2.47-0.02-3.92 0.47-4.25 1.46q-0.5 1.5-4.5 1.5c-2.76 0-4.54 0.62-5.75 2.01-1.33 1.53-2.94 2-6.75 1.96q-5-0.06-6.5 1.53c-0.82 0.87-2.93 1.57-4.68 1.54-1.75-0.02-3.85 0.63-4.68 1.46-0.82 0.82-3.22 1.5-5.32 1.51-2.13 0-5.15 0.88-6.82 1.99-1.65 1.09-4.57 1.97-6.5 1.95-1.95-0.02-4.17 0.67-5 1.55-0.86 0.91-3 1.55-5 1.5-1.93-0.05-4.01 0.49-4.64 1.21-0.63 0.71-2.99 1.63-5.25 2.04-2.26 0.41-4.82 1.42-5.68 2.25-1.06 1.01-3.57 1.49-7.75 1.46-4.4-0.04-6.61 0.41-7.68 1.54-0.93 0.99-3.11 1.57-5.75 1.54-2.92-0.03-4.41 0.43-4.75 1.46-0.31 0.93-1.73 1.49-3.75 1.47-1.79-0.02-4.49 0.88-6 2-1.51 1.11-4.21 2.01-6 1.99-1.79-0.03-3.92 0.67-4.75 1.54-1.07 1.13-3.28 1.58-7.68 1.54-3.9-0.02-6.66 0.45-7.5 1.3-0.73 0.74-3.85 1.53-6.95 1.75-3.47 0.25-6.35 1.07-7.5 2.13-1.04 0.96-3.42 1.72-5.37 1.71-1.92-0.01-4.17 0.7-5 1.57-0.97 1.03-3.15 1.57-6.18 1.54-2.88-0.02-5.25 0.54-6.18 1.46-0.95 0.96-3.43 1.5-6.82 1.51-2.93 0-6.67 0.68-8.32 1.52-1.65 0.83-5.64 1.84-8.86 2.24-3.22 0.4-6.37 1.31-7 2.02-0.63 0.72-2.94 1.26-5.14 1.21-2.46-0.05-4.58 0.52-5.5 1.5-0.92 0.98-3.11 1.57-5.68 1.54-2.3-0.02-4.77 0.56-5.5 1.29-0.73 0.73-4.47 1.6-8.32 1.92-3.85 0.33-8.35 1.31-10 2.17-1.65 0.86-4.8 1.55-7 1.53-2.4-0.02-4.6 0.6-5.5 1.55-1.01 1.07-3.13 1.56-6.5 1.5-2.94-0.05-5.47 0.44-6.15 1.21-0.63 0.71-3.91 1.51-7.28 1.79-3.93 0.32-6.47 1.04-7.06 2-0.68 1.08-3.11 1.58-8.72 1.77-5.36 0.19-8.26 0.75-9.29 1.8-1.01 1.02-3.37 1.5-7.18 1.47-3.76-0.02-6.18 0.47-7.18 1.46-0.92 0.92-3.36 1.5-6.32 1.5-2.91-0.01-6.3 0.78-8.57 2-2.06 1.1-5.55 2-7.75 2q-4 0-4.5 1.5c-0.38 1.14-2.11 1.49-7.25 1.46-4.31-0.03-7.17 0.42-7.9 1.25-0.64 0.71-4.29 1.51-8.14 1.79-4.69 0.33-7.61 1.07-8.85 2.22-1.3 1.21-3.58 1.74-7.61 1.75-4.21 0.02-5.88 0.43-6.25 1.53-0.37 1.1-2.02 1.5-6.25 1.48-3.55-0.01-6.52 0.56-7.75 1.47-1.23 0.92-4.3 1.5-8 1.51-4.04 0.02-7.22 0.69-9.75 2.04-2.45 1.3-5.66 2-9.25 2-4 0-5.64 0.41-6 1.5-0.38 1.14-2.16 1.5-7.43 1.5-4.82 0-7.38 0.46-8.43 1.5-0.84 0.84-3.28 1.5-5.57 1.5-2.24 0-5.76 0.9-7.82 2-2.6 1.39-5.59 1.99-9.75 1.96-4.24-0.03-6.44 0.42-7.5 1.54-1.07 1.13-3.22 1.56-7.5 1.5-4.28-0.06-6.43 0.37-7.5 1.5-1.06 1.12-3.27 1.58-7.5 1.55-3.6-0.02-7.2 0.59-9 1.54-1.65 0.87-5.41 1.88-8.35 2.25-2.95 0.36-5.87 1.24-6.5 1.95-0.71 0.81-3.43 1.28-7.15 1.24-3.83-0.04-6.72 0.47-8 1.42-1.15 0.85-4.21 1.5-7.18 1.52-2.94 0.02-5.75 0.61-6.5 1.36-0.73 0.73-4.7 1.64-8.82 2.02-4.76 0.43-7.87 1.21-8.5 2.13q-0.99 1.44-6.75 1.48c-4.2 0.03-5.89 0.45-6.25 1.54-0.37 1.12-2.08 1.5-6.75 1.49-3.64 0-7.09 0.56-8.25 1.36-1.1 0.74-4.59 1.65-7.75 2-3.16 0.36-6.46 1.32-7.32 2.15-1 0.95-3.46 1.48-6.75 1.46-3.48-0.03-5.67 0.47-6.68 1.54-0.97 1.03-3.15 1.57-6.18 1.54-2.88-0.02-5.25 0.54-6.18 1.46-0.82 0.83-3.22 1.5-5.32 1.51-2.13 0-5.15 0.88-6.82 1.99-1.81 1.2-4.69 1.99-7.25 1.99-2.88 0.01-4.41 0.49-4.75 1.51-0.34 1.01-1.88 1.51-4.75 1.53-2.34 0.02-5.15 0.7-6.25 1.52-1.1 0.82-3.13 1.47-4.5 1.46-1.38-0.01-4.19 0.88-6.25 1.99-2.06 1.1-5.33 2-7.25 2-2.22 0-3.68 0.55-4 1.5-0.35 1.04-1.89 1.5-5 1.5-3.11 0-4.65 0.46-5 1.5-0.33 0.99-1.78 1.49-4.25 1.47q-3.75-0.04-5.75 2.03-2 2.07-5.75 2.03c-2.47-0.02-3.92 0.48-4.25 1.47-0.33 0.99-1.78 1.48-4.25 1.46-2.18-0.03-4.38 0.62-5.25 1.54-0.83 0.87-2.4 1.57-3.5 1.54-1.1-0.03-3.69 0.85-5.75 1.96-2.06 1.1-4.65 2-5.75 2-1.1 0-2.22 0.67-2.5 1.5-0.31 0.94-1.72 1.48-3.75 1.46-1.79-0.03-3.92 0.67-4.75 1.54-0.83 0.87-2.48 1.57-3.68 1.54-1.2-0.02-2.88 0.63-3.75 1.46-0.86 0.83-3.44 1.84-5.72 2.25-2.27 0.41-4.3 1.31-4.5 2-0.19 0.69-1.48 1.25-2.85 1.25-1.38 0-3.74 0.6-5.25 1.33-1.51 0.73-4.21 2.08-6 3-1.79 0.92-4.04 1.66-5 1.64-0.96-0.02-2.65 0.89-3.75 2.03-1.1 1.14-3.01 2.05-4.25 2.03-1.24-0.02-2.47 0.64-2.75 1.47-0.28 0.83-1.4 1.5-2.5 1.5-1.1 0-3.69 0.9-5.75 2-2.06 1.11-4.42 1.99-5.25 1.96-0.83-0.03-2.17 0.67-3 1.54-0.83 0.87-2.17 1.55-3 1.5-0.83-0.05-2.17 0.63-3 1.5-0.83 0.87-2.4 1.55-3.5 1.5-1.1-0.05-2.67 0.63-3.5 1.5-0.83 0.87-2.29 1.57-3.25 1.54-0.96-0.02-2.54 0.86-3.5 1.97-0.96 1.1-2.76 2-4 2-1.24-0.01-2.47 0.66-2.75 1.49-0.28 0.83-1.51 1.48-2.75 1.46-1.24-0.03-2.92 0.67-3.75 1.54-0.83 0.87-2.06 1.57-2.75 1.54-0.69-0.02-3.52 1.2-6.29 2.71-2.77 1.51-5.02 3.09-5 3.5 0.02 0.41-0.97 0.73-2.21 0.71-1.24-0.03-2.92 0.67-3.75 1.54-0.83 0.87-2.29 1.57-3.25 1.54-0.96-0.02-2.54 0.86-3.5 1.97-0.96 1.1-2.76 2-4 2-1.24-0.01-2.47 0.66-2.75 1.49-0.28 0.83-1.51 1.48-2.75 1.46-1.24-0.03-2.92 0.67-3.75 1.54-0.83 0.87-2.17 1.55-3 1.51-0.83-0.04-2.4 0.85-3.5 1.99-1.1 1.14-2.45 2.03-3 1.99-0.55-0.04-1.67 0.64-2.5 1.51-0.83 0.87-2.17 1.56-3 1.52-0.83-0.04-3.41 1.29-5.75 2.95-2.34 1.67-5.39 3.37-6.78 3.78-1.38 0.41-2.73 1.31-3 2-0.26 0.69-1.6 1.25-2.97 1.25-1.38 0-2.84 0.63-3.25 1.4-0.41 0.76-2.73 2.45-5.16 3.75-2.42 1.29-4.56 2.91-4.75 3.6-0.19 0.69-1.35 1.23-2.59 1.21-1.24-0.03-2.92 0.67-3.75 1.54-0.83 0.87-2.17 1.56-3 1.53-0.83-0.03-3.08 1.51-5 3.42-1.92 1.92-4.4 3.49-5.5 3.5-1.1 0.01-3.13 1.36-4.5 2.99-1.38 1.64-3.4 2.98-4.5 2.99-1.1 0-2.9 0.93-4 2.07-1.1 1.14-2.79 2.05-3.75 2.03-0.96-0.02-3.1 1.32-4.75 2.97-1.65 1.65-3.9 3-5 3-1.1 0-2.56 0.9-3.25 2-0.69 1.11-1.81 2.01-2.5 2-0.69 0-4.17 2.25-7.75 5-3.58 2.75-7.17 5-8 5-0.83 0-1.5 0.45-1.5 1 0 0.55-2.03 1.9-4.5 3-2.47 1.1-4.95 2.9-5.5 4-0.55 1.1-1.9 2-3 2-1.1 0-3.24 1.16-4.75 2.57-1.51 1.41-4.78 3.75-7.25 5.2-2.47 1.45-5.63 3.8-7 5.23-1.38 1.43-4.6 3.86-7.16 5.39-2.56 1.54-4.7 3.21-4.75 3.71-0.05 0.49-0.76 0.9-1.59 0.9-0.83 0-1.72 0.67-2 1.5-0.28 0.83-1.29 1.51-2.25 1.52-0.96 0.01-4.11 2.26-7 5-2.89 2.74-5.81 4.97-6.5 4.96-0.69-0.01-3.5 2.18-6.25 4.85-2.75 2.68-5.9 5.15-7 5.5-1.1 0.34-5.04 3.44-8.76 6.89-3.71 3.46-7.31 6.77-8 7.37-0.68 0.59-2.14 1.39-3.24 1.77-1.1 0.38-4.92 3.6-8.5 7.16-3.58 3.56-7.17 6.48-8 6.48-0.83 0.01-6.56 4.96-12.75 11.01-6.19 6.04-12.26 11.28-13.5 11.64-1.24 0.36-24.19 22.64-51 49.5-26.81 26.87-48.98 49.75-49.25 50.85-0.27 1.1-4.11 5.71-8.51 10.25-4.41 4.54-8.01 8.92-7.99 9.75 0.01 0.83-0.77 2.21-1.74 3.08-0.97 0.86-4.12 4.13-7.01 7.25-2.89 3.12-5.25 6.12-5.25 6.67 0 0.55-0.56 1.68-1.25 2.5-0.69 0.83-3.61 3.98-6.5 7-2.89 3.03-5.25 6.17-5.25 7 0 0.83-2.93 4.54-6.51 8.25-3.58 3.71-6.52 7.42-6.53 8.25-0.01 0.83-2.25 3.86-4.99 6.75-2.73 2.89-4.97 6.15-4.97 7.25 0 1.1-0.56 2.18-1.25 2.39-0.69 0.21-2.14 2.13-3.23 4.25-1.09 2.12-3.38 5.21-5.09 6.86-1.71 1.65-3.39 3.9-3.74 5-0.34 1.1-3.34 5.15-6.66 9-3.31 3.85-6.02 7.79-6.03 8.75 0 0.96-0.9 2.2-2 2.75-1.1 0.55-2 1.9-2 3 0 1.1-1.35 3.35-3 5-1.65 1.65-2.99 3.56-2.99 4.25 0.01 0.69-0.78 2.31-1.75 3.61-0.97 1.3-2.55 3.1-3.52 4-0.97 0.9-1.75 2.43-1.75 3.39 0.01 0.96-1.57 3.33-3.49 5.25-1.92 1.92-3.5 4.4-3.5 5.5 0 1.1-0.56 2.15-1.25 2.34-0.69 0.18-2.38 2.5-3.75 5.14-1.38 2.65-2.73 4.91-3 5.03-0.27 0.13-0.84 1.41-1.25 2.86-0.41 1.45-2.1 4.09-3.76 5.88-1.65 1.79-2.98 3.92-2.95 4.75 0.03 0.83-0.67 2.17-1.54 3-0.87 0.83-1.55 1.95-1.51 2.5 0.04 0.55-0.84 2.24-1.96 3.75-1.11 1.51-2.03 3.65-2.03 4.75 0 1.1-0.48 2.11-1.07 2.25-0.58 0.14-2.38 2.5-4 5.25-1.61 2.75-3.6 6.46-4.43 8.25-0.82 1.79-1.95 3.47-2.5 3.75-0.55 0.28-1 1.62-1 3 0 1.37-0.67 2.72-1.5 3-0.83 0.28-1.5 1.62-1.5 3 0 1.5-0.8 2.9-2 3.5-1.2 0.6-2 2-2 3.5 0 1.37-0.67 2.72-1.5 3-0.83 0.28-1.5 1.4-1.5 2.5 0 1.1-0.81 3.24-1.79 4.75-0.98 1.51-2.32 3.65-2.96 4.75-0.65 1.1-2.2 4.03-3.46 6.5-1.26 2.47-2.85 5.06-3.54 5.75-0.69 0.69-1.25 2.83-1.25 4.75 0 2.5-0.57 3.79-2 4.5-1.2 0.6-2 2-2 3.5 0 1.37-0.67 2.72-1.5 3-0.83 0.28-1.48 1.51-1.46 2.75 0.03 1.24-0.67 2.92-1.54 3.75-0.87 0.83-1.57 2.29-1.54 3.25 0.02 0.96-0.86 2.65-1.96 3.75-1.1 1.1-2 2.9-2 4 0 1.1-0.67 2.67-1.5 3.5-0.83 0.83-1.48 2.74-1.46 4.25 0.03 1.51-0.67 3.42-1.54 4.25-0.87 0.83-1.56 2.4-1.53 3.5 0.02 1.1-0.86 2.79-1.96 3.75-1.11 0.96-1.99 2.54-1.97 3.5 0.03 0.96-0.67 2.42-1.54 3.25-0.87 0.83-1.58 2.62-1.58 4 0.01 1.37-0.65 3.4-1.47 4.5-0.82 1.1-1.46 2.9-1.42 4 0.03 1.1-0.64 2.67-1.5 3.5-0.86 0.83-1.78 2.51-2.04 3.75-0.27 1.24-1.16 2.92-1.99 3.75-0.83 0.83-1.5 3.08-1.5 5 0 2.22-0.55 3.68-1.5 4-1.04 0.35-1.5 1.89-1.5 5 0 3.11-0.46 4.65-1.5 5-0.83 0.28-1.71 1.74-1.97 3.25-0.26 1.51-1.18 3.42-2.05 4.25-0.9 0.86-1.55 3.09-1.52 5.25 0.02 2.47-0.47 3.92-1.46 4.25-0.83 0.28-1.48 1.51-1.46 2.75 0.03 1.24-0.53 2.77-1.25 3.4-0.71 0.63-1.52 3.38-1.79 6.12-0.27 2.74-1.28 5.82-2.22 6.86-1.06 1.14-1.74 3.52-1.75 6.12-0.02 2.87-0.52 4.41-1.53 4.75-0.99 0.33-1.48 1.78-1.46 4.25 0.03 2.18-0.62 4.38-1.54 5.25-0.87 0.83-1.57 2.96-1.54 4.75 0.02 1.79-0.88 4.49-1.99 6-1.41 1.91-2.04 4.29-2.04 7.75 0.01 2.86-0.63 5.86-1.48 7-0.82 1.1-1.48 3.91-1.47 6.25 0.01 2.9-0.46 4.41-1.48 4.75-0.85 0.28-1.5 1.7-1.51 3.25 0 1.51-0.9 4.1-1.99 5.75-1.09 1.65-1.97 4.57-1.95 6.5 0.02 1.95-0.67 4.17-1.55 5-1.16 1.1-1.59 3.39-1.58 8.5 0.01 4.64-0.48 7.67-1.47 9-0.82 1.1-1.46 3.8-1.43 6 0.03 2.78-0.59 4.61-2.02 6-1.36 1.31-2.04 3.2-1.99 5.5 0.05 1.99-0.61 4.15-1.51 5-1.1 1.03-1.57 3.21-1.53 7 0.04 3.39-0.51 6.27-1.42 7.5-1.08 1.46-1.5 4.85-1.54 12.5-0.05 7.87-0.43 10.88-1.54 12-0.81 0.82-1.81 4.13-2.22 7.35-0.41 3.22-1.33 6.37-2.04 7-0.77 0.68-1.26 3.21-1.21 6.15 0.06 3.37-0.43 5.49-1.5 6.5-1.16 1.09-1.58 3.33-1.54 8.25 0.02 3.78-0.62 8.4-1.46 10.5-1.08 2.7-1.69 9.78-2.18 25.25-0.45 14.72-1.08 22.29-1.99 24-0.72 1.37-1.33 5.43-1.36 9-0.02 4.13-0.57 7.23-1.52 8.5-1.09 1.47-1.48 4.73-1.47 12.25 0.02 7.51-0.43 11.25-1.67 14-1.37 3.03-1.77 7.78-2.08 24.75-0.21 11.55-0.81 21.45-1.32 22-0.55 0.58-0.94 14.3-0.93 32.75 0.01 20.49 0.37 31.75 1.02 31.75 0.63 0 1.09 8.62 1.25 23.35 0.2 19.02 0.53 23.68 1.75 25.15 1.11 1.33 1.63 5.4 2 15.82 0.36 10.02 0.86 14.11 1.75 14.35 0.9 0.24 1.25 3.23 1.26 10.58 0 6.55 0.48 11.15 1.32 12.75 0.85 1.61 1.58 8.75 2.04 20 0.52 12.58 1.13 18.13 2.18 19.75 0.96 1.49 1.44 4.86 1.41 10-0.04 5.83 0.34 8.12 1.54 9.25 0.87 0.82 1.57 2.96 1.54 4.75-0.03 2.31 0.47 3.36 1.71 3.63 1.67 0.37 1.67 0.39 0 0.5-1.32 0.09-1.59 0.67-1.12 2.37 0.35 1.24 1.02 2.36 1.5 2.5 0.48 0.14 0.87 2.05 0.87 4.25 0 2.31 0.53 4.18 1.25 4.42 1 0.34 1 0.44 0 0.5-0.87 0.06-1.06 1.07-0.61 3.33 0.35 1.79 1.24 3.93 1.97 4.75 0.88 0.99 1.34 4.25 1.35 9.5 0 5.5 0.47 8.62 1.49 10 0.9 1.21 1.48 4.18 1.47 7.5 0 3.26 0.52 5.97 1.29 6.65 0.71 0.63 1.52 3.38 1.79 6.12 0.27 2.74 1.28 5.82 2.22 6.86 1.17 1.26 1.72 3.51 1.71 6.87-0.01 3.29 0.52 5.51 1.57 6.5 1.16 1.09 1.58 3.33 1.54 8.25-0.02 4.42 0.42 7.18 1.3 8 0.74 0.69 1.53 3.86 1.75 7.06 0.3 4.22 0.89 6.07 2.16 6.75 1.2 0.65 1.74 2.11 1.71 4.69-0.03 2.18 0.62 4.38 1.54 5.25 1.03 0.98 1.57 3.16 1.54 6.25-0.02 2.94 0.53 5.32 1.46 6.25 0.83 0.82 1.5 3.19 1.5 5.25-0.01 2.06 0.89 5.44 2 7.5 1.1 2.06 2 5.32 2 7.25 0 2.22 0.55 3.68 1.5 4 0.99 0.33 1.48 1.78 1.46 4.25-0.03 2.18 0.62 4.38 1.54 5.25 0.87 0.82 1.55 2.85 1.51 4.5-0.04 1.65 0.84 4.24 1.96 5.75 1.13 1.53 2.03 4.3 2.03 6.25 0 2.22 0.55 3.68 1.5 4 1.04 0.35 1.5 1.89 1.5 5 0 3.11 0.46 4.65 1.5 5 0.85 0.28 1.49 1.68 1.48 3.25-0.01 1.51 0.65 3.65 1.47 4.75 0.82 1.1 1.5 2.68 1.51 3.5 0.02 0.82 0.93 3.19 2.04 5.25 1.1 2.06 1.98 5.21 1.96 7-0.03 1.79 0.67 3.93 1.54 4.75 0.87 0.82 1.57 2.74 1.54 4.25-0.02 1.51 0.52 2.97 1.21 3.24 0.69 0.27 1.57 2.4 1.97 4.75 0.4 2.34 1.43 4.94 2.3 5.76 0.86 0.82 1.55 2.51 1.52 3.75-0.02 1.24 0.63 2.47 1.46 2.75 0.89 0.3 1.5 1.72 1.5 3.5 0 2.16 0.49 3.02 1.75 3.07 1.57 0.06 1.56 0.14-0.11 0.75-1.73 0.63-1.75 0.79-0.21 2.18 0.91 0.82 1.64 2.29 1.61 3.25-0.02 0.96 0.86 2.54 1.97 3.5 1.35 1.17 2.01 2.98 2 5.5-0.01 2.45 0.51 3.92 1.49 4.25 0.89 0.3 1.5 1.72 1.5 3.5 0 1.78 0.61 3.2 1.5 3.5 0.83 0.28 1.5 1.62 1.5 3 0 1.71 0.55 2.5 1.75 2.52 1.49 0.01 1.52 0.15 0.25 0.93-1.31 0.81-1.29 1.15 0.22 2.74 0.95 0.99 1.72 2.71 1.71 3.81-0.01 1.1 0.7 2.68 1.57 3.5 0.87 0.82 1.57 2.51 1.54 3.75-0.02 1.24 0.63 2.47 1.46 2.75 0.83 0.28 1.49 1.51 1.47 2.75-0.02 1.24 0.89 3.15 2.03 4.25 1.14 1.1 2.05 3.01 2.03 4.25-0.02 1.24 0.64 2.47 1.47 2.75 0.83 0.28 1.5 1.62 1.5 3 0 1.37 0.62 3.74 1.39 5.25 0.76 1.51 1.89 3.87 2.51 5.25 0.62 1.37 2.25 4.53 3.63 7 1.38 2.47 2.5 5.29 2.49 6.25-0.01 0.96 0.65 1.97 1.48 2.25 0.83 0.28 1.49 1.51 1.47 2.75-0.02 1.24 0.89 3.15 2.03 4.25 1.14 1.1 2.05 3.01 2.03 4.25-0.02 1.24 0.64 2.47 1.47 2.75 0.83 0.28 1.5 1.62 1.5 3 0 1.37 0.67 2.72 1.5 3 0.83 0.28 1.49 1.51 1.47 2.75-0.02 1.24 0.89 3.15 2.03 4.25 1.14 1.1 2.04 2.68 2.02 3.5-0.03 0.82 0.4 1.95 0.96 2.5 0.56 0.55 1.68 2.12 2.48 3.5 0.8 1.37 1.92 3.51 2.5 4.75 0.57 1.24 1.49 2.47 2.04 2.75 0.55 0.28 0.99 1.29 0.97 2.25-0.02 0.96 0.89 2.65 2.03 3.75 1.14 1.1 2.05 3.01 2.03 4.25-0.02 1.24 0.64 2.47 1.47 2.75 0.83 0.28 1.5 1.4 1.5 2.5 0 1.1 1.58 3.57 3.5 5.5 1.92 1.93 3.48 4.29 3.46 5.25-0.03 0.96 0.67 2.43 1.54 3.25 0.87 0.82 1.57 2.4 1.54 3.5-0.03 1.1 1.3 3.12 2.94 4.5 1.65 1.37 3.22 3.74 3.51 5.25 0.28 1.51 1.18 2.97 2.01 3.25 0.83 0.28 1.5 1.62 1.5 3 0 1.37 0.56 2.72 1.25 2.98 0.69 0.27 1.55 1.73 1.92 3.25 0.37 1.53 2.05 4.12 3.72 5.77 1.68 1.65 3.05 3.9 3.06 5 0 1.1 1.58 3.35 3.53 5 1.94 1.65 3.52 3.79 3.52 4.75 0 0.96 1.55 4.11 3.44 7 1.89 2.89 4.13 5.93 4.97 6.75 0.84 0.82 1.54 2.18 1.55 3 0.01 0.82 1.38 2.96 3.03 4.75 1.66 1.79 3.23 4.04 3.5 5 0.27 0.96 2.51 4 4.98 6.75 2.48 2.75 4.5 5.68 4.5 6.5 0 0.82 1.57 3.07 3.48 5 1.92 1.93 3.51 3.95 3.55 4.5 0.03 0.55 1.01 2.57 2.17 4.5 1.67 2.78 2.28 3.19 2.95 2 0.71-1.26 0.85-1.22 0.86 0.25 0.01 0.96 0.92 2.54 2.03 3.5 1.1 0.96 1.99 2.43 1.97 3.25-0.03 0.82 2.23 3.97 5.02 7 2.79 3.03 5.05 5.84 5.03 6.25-0.02 0.41 1.1 2.32 2.47 4.25 1.59 2.23 2.95 3.23 3.74 2.75q1.23-0.74 0.5 0.5c-0.46 0.77 0.58 2.49 2.73 4.5 1.91 1.8 3.48 4.26 3.5 5.5 0.01 1.24 0.82 2.69 1.78 3.22 0.96 0.54 2.16 0.65 2.66 0.25 0.5-0.39 0.61-0.16 0.25 0.53-0.37 0.71 0.64 2.55 2.34 4.25 1.65 1.65 3.02 3.79 3.04 4.75 0.02 0.96 3.45 5.12 7.62 9.25 4.17 4.12 8.09 8.73 8.71 10.24 0.62 1.51 6.18 7.81 12.34 14 6.17 6.19 11.23 11.6 11.25 12.01 0.02 0.41 1.73 2.85 3.79 5.43 2.06 2.57 14.89 15.84 28.5 29.5 13.61 13.65 24.75 24.48 24.76 24.07 0-0.41 0.79 0.42 1.75 1.85 0.96 1.42 3.76 4.76 6.24 7.41 2.48 2.65 6.87 7.1 9.77 9.9 2.9 2.8 13.92 13.55 24.5 23.88 10.58 10.34 19.79 18.78 20.48 18.75 0.69-0.02 5.19 3.78 10 8.44 4.81 4.66 9.31 8.49 10 8.5 0.69 0.01 1.94 0.58 2.79 1.27 0.85 0.69 4.56 4.23 8.25 7.88 3.69 3.64 8.29 7.47 10.21 8.5 1.92 1.03 5.53 3.91 8 6.39 2.47 2.49 6.3 5.61 8.5 6.94 2.2 1.33 5.35 3.7 7 5.26 1.65 1.56 3.56 2.6 4.25 2.31 0.69-0.29 1.14-0.03 1 0.59-0.14 0.62 0.9 1.85 2.3 2.75 1.4 0.9 4.21 2.64 6.25 3.88 2.03 1.24 3.92 3.15 4.2 4.25 0.28 1.1 1.51 2.19 2.75 2.42 1.24 0.24 4.5 2.5 7.25 5.03 2.75 2.54 5.67 4.61 6.5 4.61 0.83 0 3.08 1.57 5 3.49 1.92 1.91 4.17 3.47 5 3.45 0.83-0.02 3.08 1.56 5 3.51 1.92 1.95 4.06 3.31 4.75 3.02 0.69-0.29 1.03-0.08 0.75 0.47-0.28 0.55 0.74 1.56 2.25 2.25 1.51 0.69 3.99 2.49 5.5 4 1.51 1.51 3.76 2.99 5 3.29 1.24 0.29 3.6 1.88 5.25 3.52 1.65 1.64 3.67 2.96 4.5 2.94 0.83-0.02 3.08 1.54 5 3.45 1.92 1.92 4.29 3.5 5.25 3.52 0.96 0.02 3.1 1.38 4.75 3.03 1.65 1.65 3.45 3 4 3 0.55 0 1.19-0.56 1.42-1.25q0.42-1.23 0.53 0.25c0.06 0.82 1.78 2.96 3.83 4.75 2.05 1.79 4.28 3.25 4.97 3.25 0.69 0 3.16 1.56 5.5 3.47 2.34 1.91 5.04 3.48 6 3.5 0.96 0.02 1.97 0.71 2.25 1.53 0.28 0.82 1.51 1.52 2.75 1.53 1.25 0.02 3.81 1.66 5.75 3.67 3.17 3.28 3.57 3.44 4.18 1.71 0.37-1.05 0.71-1.35 0.75-0.66 0.04 0.69 1.08 2.14 2.32 3.22 1.24 1.08 3.04 1.98 4 2 0.96 0.02 2.65 0.93 3.75 2.03 1.1 1.1 2.45 1.78 3 1.5 0.55-0.28 0.78 0.18 0.5 1-0.28 0.82-0.16 1.7 0.25 1.95 0.41 0.25 2.44 0.58 4.5 0.75 2.06 0.16 3.75 0.75 3.74 1.3 0 0.55 1.02 1.54 2.26 2.19 1.24 0.66 3.6 1.85 5.25 2.64 1.65 0.8 4.12 2.61 5.5 4.04 1.37 1.43 3.51 2.6 4.75 2.61 1.24 0.01 2.47 0.7 2.75 1.52 0.28 0.82 1.51 1.49 2.75 1.47 1.24-0.02 3.15 0.89 4.25 2.03 1.1 1.14 3.01 2.05 4.25 2.03 1.24-0.02 2.47 0.65 2.75 1.47 0.28 0.82 1.4 1.5 2.5 1.5 1.1 0 2.9 0.9 4 2 1.1 1.1 2.45 1.78 3 1.5 0.55-0.28 0.75 0.06 0.44 0.75-0.3 0.69 0.15 1.59 1 2 1.1 0.53 1.58 0.23 1.64-1 0.06-1.4 0.2-1.45 0.68-0.25 0.32 0.82 1.53 2.27 2.67 3.22 1.14 0.94 3.08 1.73 4.32 1.75 1.24 0.02 2.47 0.71 2.75 1.53 0.28 0.82 1.51 1.49 2.75 1.47 1.24-0.02 3.15 0.89 4.25 2.03 1.1 1.14 2.67 2.03 3.5 1.99 0.83-0.04 2.17 0.64 3 1.51 0.83 0.87 2.51 1.57 3.75 1.54 1.24-0.02 2.47 0.64 2.75 1.46 0.28 0.82 1.62 1.5 3 1.5 1.37 0 2.94 0.79 3.48 1.75 0.86 1.53 1.11 1.56 1.99 0.25 0.86-1.29 1-1.25 1.01 0.25 0.01 0.96 0.58 1.73 1.27 1.71 0.69-0.03 1.92 0.67 2.75 1.54 0.83 0.87 2.17 1.55 3 1.5 0.83-0.05 2.17 0.63 3 1.5 0.83 0.87 2.74 1.57 4.25 1.54 1.8-0.02 2.75 0.48 2.75 1.46 0 0.85 1.19 1.72 2.75 2 1.51 0.27 5.45 1.85 8.75 3.51 3.3 1.66 6.56 3.01 7.25 3.01 0.69-0.01 2.49 0.9 4 2.01 1.51 1.12 3.42 2 4.25 1.96 0.83-0.04 2.17 0.64 3 1.51 0.83 0.87 2.4 1.55 3.5 1.5 1.1-0.05 2.67 0.63 3.5 1.5 0.83 0.87 2.74 1.57 4.25 1.54 1.51-0.02 3.42 0.64 4.25 1.46 0.83 0.82 2.86 1.84 4.52 2.25 1.65 0.41 3.23 1.31 3.5 2 0.27 0.7 2.12 1.23 4.23 1.21 2.18-0.03 4.38 0.62 5.25 1.54 0.83 0.87 2.51 1.57 3.75 1.54 1.24-0.02 2.47 0.64 2.75 1.46 0.28 0.82 1.51 1.5 2.75 1.51 1.24 0 3.6 0.9 5.25 1.99 1.65 1.09 4.24 1.99 5.75 1.99 1.55 0.01 2.97 0.66 3.25 1.51 0.31 0.94 1.72 1.48 3.75 1.46 1.79-0.03 3.76 0.53 4.39 1.25 0.63 0.71 3.1 1.62 5.5 2.03 2.4 0.4 5.03 1.4 5.86 2.22 0.83 0.82 2.4 1.48 3.5 1.47 1.1-0.01 2.67 0.7 3.5 1.57 0.87 0.92 3.07 1.57 5.25 1.54 2.47-0.02 3.92 0.47 4.25 1.46 0.33 0.99 1.78 1.49 4.25 1.47q3.75-0.04 5.75 2.03 2 2.07 5.75 2.03c2.47-0.02 3.92 0.48 4.25 1.47 0.3 0.89 1.72 1.5 3.5 1.5 1.78 0 3.2 0.61 3.5 1.5 0.32 0.95 1.78 1.5 4 1.5 1.92 0 5.19 0.9 7.25 2 2.06 1.11 5.44 2.01 7.5 2 2.45 0 3.92 0.52 4.25 1.5 0.35 1.04 1.89 1.5 5 1.5 3.11 0 4.65 0.46 5 1.5 0.33 0.99 1.78 1.49 4.25 1.47q3.75-0.04 5.75 2.03c1.37 1.41 3.27 2.06 6 2.06 2.2 0 4.9 0.67 6 1.49 1.1 0.82 3.8 1.46 6 1.42 2.43-0.03 4.59 0.57 5.5 1.53 0.85 0.9 3.03 1.56 5 1.53 1.92-0.04 4.4 0.6 5.5 1.42 1.1 0.82 2.56 1.5 3.25 1.52 0.69 0.02 1.03-0.65 0.75-1.47-0.28-0.82-0.05-1.28 0.5-1 0.55 0.28 1 1.18 1 2 0 0.98 0.95 1.48 2.75 1.46 1.51-0.03 3.42 0.67 4.25 1.54 1.04 1.11 3.25 1.58 7.25 1.54 4.25-0.03 5.88 0.35 6.25 1.46 0.37 1.11 2 1.49 6.25 1.46 4-0.04 6.21 0.43 7.25 1.54 0.83 0.87 2.51 1.57 3.75 1.54 1.24-0.02 2.44-0.6 2.67-1.29 0.23-0.69 0.46-0.46 0.5 0.5 0.06 1.21 0.92 1.76 2.83 1.78 1.51 0.02 3.65 0.7 4.75 1.52 1.18 0.87 4.05 1.46 7 1.42q5-0.06 6.5 1.53c1.04 1.11 3.25 1.58 7.25 1.54 3.22-0.02 6.74 0.57 8 1.34 1.24 0.76 5.74 1.66 10 2 4.84 0.39 8.31 1.18 9.25 2.12 1.07 1.07 3.67 1.5 9 1.5 5.78 0 7.61 0.34 8 1.5 0.38 1.15 2.18 1.5 7.75 1.48 4.87-0.01 7.91 0.47 9.25 1.47 1.36 1.01 4.58 1.51 10 1.55 5.75 0.05 9.12 0.61 12 2 2.88 1.39 6.25 1.95 12 2 5.42 0.04 8.64 0.54 10 1.55 1.53 1.14 4.93 1.47 14.5 1.42 10.18-0.05 12.78 0.24 14 1.53 1.21 1.28 3.74 1.58 13 1.54 9.39-0.05 11.96 0.27 14 1.69 2.05 1.44 5.13 1.81 17 2.04 11.35 0.22 14.83 0.62 16 1.8 1.23 1.24 4.57 1.51 18.25 1.47 14.03-0.03 16.83 0.2 17.25 1.46 0.42 1.26 3.44 1.5 19 1.5 11.67 0 18.5-0.37 18.5-1 0-0.55 0.67-1 1.5-1 0.83 0 1.5 0.45 1.5 1 0 0.65 16.83 1 48.5 1 42.22 0 48.56-0.19 49-1.5 0.42-1.26 3.52-1.5 19.75-1.49 14.79 0 19.71-0.32 21.25-1.38 1.39-0.97 6.19-1.5 15.83-1.76 10.78-0.29 14.09-0.7 15-1.87 0.64-0.82 2.07-1.6 3.17-1.73 1.1-0.12 7.51-0.23 14.25-0.25 9.82-0.02 12.5-0.33 13.5-1.56 1.01-1.25 3.66-1.54 13.75-1.52 6.87 0.02 13.18-0.36 14-0.84 0.82-0.48 1.2-1.26 0.84-1.74-0.36-0.47 3.13-0.75 7.75-0.61 7.32 0.22 8.46 0.02 8.79-1.5 0.32-1.43 0.41-1.38 0.49 0.25 0.09 1.81 0.53 1.93 4.61 1.25 2.49-0.41 5.87-1.43 7.52-2.25 1.87-0.93 5.92-1.51 10.75-1.53 5.25-0.02 8.4-0.51 9.75-1.52q2-1.48 9-1.45 7 0.03 9-1.45c1.23-0.91 4.31-1.5 8-1.52 3.46-0.03 7.27-0.71 9-1.62 1.65-0.87 6.37-1.83 10.5-2.14 4.78-0.36 7.77-1.05 8.25-1.92 0.46-0.82 2.5-1.35 5.25-1.35 2.93 0 4.51-0.44 4.52-1.25 0.01-0.9 0.21-0.87 0.75 0.11 0.48 0.9 1.67 1.15 3.48 0.75 1.51-0.34 2.75-1.06 2.75-1.61 0-0.55 1.57-1 3.5-1 2.52 0 3.61-0.49 3.88-1.75 0.37-1.67 0.39-1.67 0.5 0 0.07 0.96 0.76 1.75 1.55 1.75 0.78 0 2.02-0.61 2.75-1.36 0.73-0.74 4.13-1.64 7.57-2 4.24-0.43 6.41-1.12 6.75-2.14 0.37-1.12 2.07-1.5 6.75-1.48 3.99 0.01 6.97-0.52 8.25-1.47 1.1-0.82 3.66-1.5 5.68-1.52 2.02-0.02 4.35-0.71 5.18-1.53 0.82-0.82 2.99-1.5 4.82-1.5 1.83 0.01 5.01-0.89 7.07-2 2.06-1.1 5.21-1.98 7-1.96 1.79 0.03 3.93-0.67 4.75-1.54 0.91-0.96 3.08-1.57 5.5-1.54 2.2 0.03 4.9-0.56 6-1.31 1.1-0.76 4.14-1.66 6.75-2.01 2.9-0.39 4.95-1.23 5.25-2.14 0.33-0.99 1.78-1.48 4.25-1.46 2.18 0.03 4.38-0.62 5.25-1.54 0.86-0.91 3-1.55 5-1.5 2 0.05 4.14-0.59 5-1.5 0.85-0.9 3.01-1.56 5-1.51 2.3 0.05 4.19-0.63 5.5-1.99q2-2.07 5.75-2.03c2.47 0.02 3.92-0.48 4.25-1.47q0.5-1.5 4.5-1.5 4 0 4.5-1.5c0.28-0.82 1.62-1.5 3-1.5 1.68 0 2.53-0.57 2.58-1.75 0.04-0.96 0.27-1.19 0.5-0.5 0.23 0.69 0.98 1.27 1.67 1.29 0.69 0.03 1.93-0.67 2.75-1.54 0.86-0.91 3-1.55 5-1.5 2 0.05 4.14-0.59 5-1.5 0.82-0.87 2.51-1.57 3.75-1.54 1.24 0.02 2.47-0.64 2.75-1.46 0.28-0.82 1.62-1.5 3-1.5 1.57 0 2.64-0.65 2.88-1.75 0.37-1.67 0.39-1.67 0.5 0 0.07 0.96 0.46 1.76 0.87 1.78 0.41 0.02 1.65-0.89 2.75-2.03 1.1-1.14 3.12-2.06 4.5-2.06 1.37 0 3.4-0.67 4.5-1.49 1.1-0.82 2.9-1.46 4-1.42 1.1 0.03 2.51-0.52 3.14-1.24 0.63-0.71 3.1-1.61 5.5-2 2.4-0.4 4.7-1.41 5.11-2.25 0.41-0.85 1.76-1.52 3-1.5 1.24 0.03 2.93-0.67 3.75-1.54 0.82-0.87 2.51-1.57 3.75-1.54 1.24 0.02 2.47-0.64 2.75-1.46 0.33-0.99 1.78-1.48 4.25-1.46 2.16 0.03 4.39-0.62 5.25-1.52 0.82-0.87 2.74-1.79 4.25-2.05 1.51-0.26 2.97-1.15 3.25-1.97 0.28-0.82 1.62-1.5 3-1.5 1.37 0 2.72-0.68 3-1.5 0.29-0.87 1.66-1.48 3.25-1.46 1.51 0.03 3.43-0.67 4.25-1.54 0.82-0.87 2.74-1.57 4.25-1.54 1.51 0.02 3.65-0.86 4.75-1.96 1.1-1.1 2.79-1.98 3.75-1.96 0.96 0.03 2.43-0.67 3.25-1.54 0.82-0.87 2.51-1.57 3.75-1.54 1.24 0.02 2.47-0.64 2.75-1.46 0.28-0.82 1.4-1.5 2.5-1.5 1.1 0 2.9-0.9 4-2 1.1-1.1 2.79-1.98 3.75-1.96 0.96 0.03 2.43-0.67 3.25-1.54 0.82-0.87 2.51-1.57 3.75-1.54 1.24 0.02 2.47-0.64 2.75-1.46 0.28-0.82 1.4-1.5 2.5-1.5 1.1 0 2.79-0.9 3.75-2.01 0.96-1.1 2.65-1.98 3.75-1.96 1.1 0.03 2.68-0.66 3.5-1.53 0.82-0.87 2.18-1.55 3-1.5 0.82 0.05 2.18-0.63 3-1.5 0.82-0.87 2.29-1.57 3.25-1.54 0.96 0.02 2.54-0.86 3.5-1.97 0.96-1.1 2.76-2 4-2 1.24 0.01 2.47-0.67 2.75-1.49 0.28-0.82 1.51-1.48 2.75-1.46 1.24 0.03 2.93-0.67 3.75-1.54 0.82-0.87 2.29-1.57 3.25-1.54 0.96 0.02 2.54-0.86 3.5-1.97 0.96-1.1 2.65-1.99 3.75-1.96 1.1 0.03 2.9-1.07 4-2.43 1.1-1.37 2.34-2.28 2.75-2.04 0.41 0.24 2.66-0.92 5-2.58 2.34-1.65 5.04-3 6-3 0.96 0.01 1.97-0.66 2.25-1.48 0.28-0.82 1.62-1.5 3-1.5 1.37 0 2.72-0.68 3-1.5 0.28-0.82 1.51-1.49 2.75-1.48 1.25 0 3.81-1.54 5.75-3.47 1.93-1.92 4.06-3.5 4.75-3.52 0.69-0.02 1.25-0.48 1.25-1.03 0-0.55 1.69-1.29 3.75-1.64 2.06-0.34 4.43-1.27 5.25-2.05 0.82-0.79 3.86-2.98 6.75-4.87 2.89-1.89 5.89-3.44 6.68-3.44 0.78 0 2.02-0.59 2.75-1.32 0.73-0.72 3.46-2.52 6.07-4 2.61-1.47 4.75-3.13 4.75-3.68 0-0.55 0.68-1 1.5-1 0.82 0 3.53-1.57 6-3.5 2.47-1.93 5.18-3.5 6-3.5 0.82 0 2.85-1.35 4.5-3 1.65-1.65 3.9-3 5-3 1.1 0 2.45-0.9 3-2 0.55-1.1 1.45-2 2-2 0.55 0 1.91-0.79 3.03-1.75 1.12-0.96 2.58-1.77 3.25-1.8 0.67-0.02 1.11-0.58 0.97-1.25-0.14-0.66 0.31-1.19 1-1.17 0.69 0.02 2.15-0.89 3.25-2.03 1.1-1.14 3.01-2.05 4.25-2.03 1.35 0.02 2.25-0.57 2.25-1.47 0-0.82 0.68-1.5 1.5-1.5 0.82 0 1.72-0.68 2-1.5 0.28-0.82 1.4-1.5 2.5-1.5 1.1 0 3.47-1.46 5.27-3.25 1.8-1.79 4.5-3.81 6-4.5 1.5-0.69 4.64-3.03 6.98-5.21 2.34-2.18 4.93-3.98 5.75-3.99 0.82-0.01 3.86-2.27 6.75-5.03 2.89-2.76 5.81-5.02 6.5-5.02 0.69 0 3.05-1.56 5.25-3.47 2.2-1.91 4.56-3.93 5.25-4.5 0.69-0.57 1.7-1.03 2.25-1.03 0.55 0 3.81-2.75 7.25-6.1 3.44-3.36 8.5-7.61 11.25-9.45 2.75-1.84 5.77-3.93 6.71-4.65 0.94-0.71 1.73-1.86 1.75-2.55 0.02-0.69 0.72-1.25 1.54-1.25 0.82 0 1.5-0.45 1.5-1 0-0.55 1.46-1.6 3.25-2.34 1.79-0.74 6.06-4.12 9.5-7.5 3.44-3.39 6.59-6.17 7-6.19 0.41-0.02 2.76-1.71 5.22-3.75 2.46-2.05 6.16-5.29 8.22-7.22 2.06-1.93 3.76-4.06 3.78-4.75 0.02-0.69 0.37-1.05 0.78-0.81 0.41 0.23 6.04-4.94 12.5-11.5 6.46-6.57 12.43-11.94 13.25-11.94 0.82 0 2.06-1.19 2.75-2.65 0.69-1.46 2.9-4.27 4.91-6.25 2.02-1.98 4.43-4.05 5.38-4.6 0.94-0.55 2.21-1.84 2.83-2.86 0.62-1.03 6.98-7.73 14.13-14.9 7.15-7.18 13.54-13.99 14.21-15.14 0.67-1.16 1.53-2.78 1.93-3.6 0.39-0.82 2.21-3.07 4.05-5 1.83-1.93 3.32-4.18 3.31-5-0.01-0.82 1.25-2.63 2.8-4 1.56-1.38 4.01-4.53 5.46-7 1.45-2.47 4.73-6.75 7.29-9.5l4.65-5c-0.66-12.37-1.05-13.44-3.7-15.85-1.65-1.49-3.56-2.7-4.25-2.68-0.69 0.01-4.09-2.78-7.57-6.22-3.47-3.44-7.75-7.04-9.5-8-1.75-0.96-5.09-1.76-7.43-1.77-3.43-0.02-4.83 0.57-7.25 3.02-1.65 1.67-3.9 3.05-5 3.06-1.1 0.01-3.46 1.58-5.25 3.48-1.79 1.9-4.15 3.46-5.25 3.46-1.1 0-2.22 0.68-2.5 1.5-0.28 0.82-1.06 1.49-1.75 1.47-0.69-0.02-2.15 0.87-3.25 1.98-1.1 1.11-2.34 1.8-2.75 1.53-0.41-0.26-1.54 0.42-2.5 1.53-0.96 1.1-2.54 2-3.5 2-0.96-0.01-3.1 1.34-4.75 2.99-1.65 1.65-3.69 3-4.53 3-0.85 0-3.11 1.58-5.04 3.5-1.92 1.93-4.27 3.49-5.21 3.48-0.95 0-3.29 1.56-5.22 3.47-1.93 1.92-4.51 3.5-5.75 3.52-1.24 0.02-2.47 0.71-2.75 1.53-0.28 0.82-1.29 1.49-2.25 1.48-0.96-0.01-3.55 1.59-5.75 3.54-2.2 1.96-4.68 3.52-5.5 3.48-0.82-0.05-2.18 0.63-3 1.5-0.82 0.87-2.4 1.57-3.5 1.55-1.1-0.02-3.35 1.49-5 3.36-1.65 1.86-4.13 3.56-5.5 3.76-1.38 0.21-2.39 0.93-2.25 1.6 0.14 0.68-0.54 1.21-1.5 1.19-0.96-0.03-2.43 0.67-3.25 1.54-0.82 0.87-2.18 1.55-3 1.5-0.82-0.05-2.18 0.63-3 1.5-0.82 0.87-2.06 1.57-2.75 1.54-0.69-0.02-2.04 0.86-3 1.97-0.96 1.1-2.76 2-4 2-1.24-0.01-2.47 0.55-2.73 1.24-0.27 0.69-1.85 1.59-3.5 2-1.66 0.41-3.02 1.31-3.02 2 0 0.69-1.01 1.36-2.25 1.5-1.24 0.13-2.93 0.91-3.75 1.72-0.82 0.81-2.29 1.49-3.25 1.5-0.96 0.02-3.56 1.27-5.78 2.78-2.21 1.51-4.01 3.09-4 3.5 0.02 0.41-0.53 0.51-1.22 0.21-0.69-0.3-2.15 0.39-3.25 1.53-1.1 1.14-3.01 2.06-4.25 2.04-1.24-0.02-2.47 0.65-2.75 1.47-0.28 0.82-1.63 1.5-3 1.5-1.37 0-3.4 0.9-4.5 2-1.1 1.1-2.21 1.66-2.47 1.25-0.26-0.41-2.29 0.26-4.5 1.5-2.22 1.24-4.59 2.26-5.28 2.28-0.69 0.01-2.09 0.8-3.12 1.75-1.02 0.94-2.82 1.73-4 1.74-1.28 0.01-2.13 0.66-2.13 1.63 0 0.88-0.45 1.38-1 1.1-0.55-0.28-2.35-0.24-4 0.09-1.65 0.32-4.24 1.73-5.75 3.12-1.51 1.4-2.75 2.09-2.75 1.54 0-0.55-0.56-1-1.25-1.01-0.69 0-2.04 0.9-3 2-0.96 1.11-1.75 2.46-1.75 3.01 0 0.55-0.45 1.22-1 1.5-0.57 0.29-0.79-0.36-0.5-1.5 0.28-1.1 0.16-2.02-0.25-2.04-0.41-0.03-1.26 0.53-1.89 1.25-0.63 0.71-3.1 1.61-5.5 2-2.4 0.4-4.7 1.41-5.11 2.25-0.41 0.85-1.76 1.54-3 1.54-1.24-0.01-3.49 1.12-5 2.5-1.87 1.7-2.89 2.1-3.19 1.25-0.31-0.9-0.81-0.76-1.75 0.46-0.72 0.94-2.32 1.73-3.56 1.75-1.24 0.02-3.38 0.49-4.75 1.04-1.38 0.55-2.32 1.34-2.09 1.75 0.22 0.41-1.01 0.88-2.75 1.04-1.74 0.16-3.5 0.95-3.91 1.75-0.41 0.8-1.88 1.46-3.25 1.46-1.38 0-2.51 0.56-2.52 1.25q-0.02 1.24-0.93-0.25c-0.81-1.31-1.15-1.29-2.74 0.22-0.99 0.95-2.37 1.74-3.06 1.75-0.69 0.02-1.28 0.82-1.32 1.78-0.06 1.55-0.15 1.53-0.75-0.14-0.67-1.85-0.72-1.85-2.61 0-1.06 1.04-3.31 2.04-5 2.22-1.69 0.18-3.75 0.96-4.57 1.72-0.82 0.77-2.74 1.41-4.25 1.42-1.51 0.02-2.76 0.59-2.77 1.28q-0.02 1.23-0.91-0.25c-0.79-1.31-1.22-1.28-3.48 0.25-1.43 0.96-3.46 1.75-4.52 1.75-1.06 0-2.63 0.68-3.5 1.5-0.86 0.83-3.44 1.84-5.72 2.25-2.27 0.41-4.3 1.31-4.5 2-0.2 0.73-1.92 1.23-4.1 1.21-2.18-0.03-4.38 0.62-5.25 1.54-0.82 0.87-2.96 1.57-4.75 1.54-1.79-0.02-3.44 0.52-3.67 1.21-0.34 1-0.44 1-0.5 0-0.04-0.69-0.64-1.27-1.33-1.29-0.69-0.03-1.76 0.53-2.39 1.25-0.62 0.71-3.09 1.61-5.5 2.01-2.4 0.4-5.04 1.43-5.86 2.3-0.86 0.9-3.09 1.55-5.25 1.52-2.47-0.02-3.92 0.47-4.25 1.46-0.35 1.05-1.91 1.5-5.25 1.49-2.61 0-5.65 0.61-6.75 1.35-1.1 0.75-4.47 1.66-7.5 2.03-3.03 0.36-6.18 1.32-7 2.12-0.92 0.89-3.44 1.45-6.5 1.44-3.29-0.01-5.51 0.52-6.5 1.57-0.91 0.96-3.07 1.56-5.5 1.53-2.2-0.04-4.9 0.6-6 1.42-1.1 0.82-3.8 1.5-6 1.51-2.2 0.02-5.69 0.93-7.75 2.04-2.72 1.45-5.6 1.99-10.5 1.96-4.92-0.04-7.16 0.38-8.25 1.54-1.09 1.16-3.27 1.56-8 1.5-4.73-0.06-6.91 0.34-8 1.5-1.05 1.11-3.3 1.59-7.5 1.58-3.9-0.01-7.4 0.66-10 1.92-2.33 1.13-6.09 1.93-9 1.92-3.28-0.01-5.51 0.54-6.5 1.58-1.04 1.11-3.25 1.58-7.25 1.54-3.74-0.02-5.9 0.4-6.17 1.21-0.34 1-0.44 1-0.5 0-0.04-0.69-1.21-1.25-2.58-1.25-1.38 0-3.4 0.45-4.5 1-1.1 0.55-1.82 1.34-1.6 1.75 0.22 0.41-4.39 0.75-10.25 0.75-8.55 0-11.14 0.35-13.15 1.76-2.05 1.44-4.59 1.75-14 1.7-9.26-0.04-11.79 0.26-13 1.54-1.25 1.32-4.1 1.58-17 1.55-11.97-0.03-16.18 0.31-18.5 1.49-2.57 1.3-10 1.52-51.5 1.51-37.77-0.01-48.79-0.3-49.8-1.28-0.94-0.92-6.93-1.36-21.5-1.6-15.23-0.26-20.75-0.69-22.45-1.75-1.29-0.82-4.8-1.42-8.25-1.42-3.91 0-6.15 0.44-6.42 1.25-0.34 1-0.44 1-0.5 0-0.06-0.88-2.25-1.26-7.33-1.28-5.45-0.01-7.71-0.45-9.11-1.75-1.45-1.35-4.17-1.8-12.5-2.09-6.9-0.24-11.34-0.86-12.64-1.76-1.31-0.91-4.92-1.39-10.5-1.41-5.49-0.02-9.39-0.54-11-1.46-1.38-0.79-5.09-1.45-8.25-1.46-3.78-0.03-7.03-0.73-9.5-2.04-3.53-1.88-3.79-1.9-4.43-0.25-0.65 1.66-0.68 1.66-0.75 0-0.05-1.36-0.95-1.75-4.07-1.75-2.22 0-4.67-0.67-5.5-1.5-0.82-0.82-1.95-1.5-2.5-1.5-0.55 0-1.17 0.79-1.38 1.75-0.37 1.67-0.39 1.67-0.5 0-0.09-1.34-0.99-1.74-3.87-1.71-2.18 0.03-4.38-0.62-5.25-1.54-0.99-1.05-3.21-1.58-6.5-1.57-3.36 0.01-5.61-0.54-6.87-1.71-1.1-1-4.01-1.88-7-2.11-2.95-0.22-5.45-0.96-5.88-1.75-0.41-0.75-1.99-1.34-3.5-1.32-1.51 0.03-3.42-0.67-4.25-1.54-0.83-0.87-3.08-1.58-5-1.58-1.92 0.01-5.08-0.93-7-2.1-2.4-1.45-4.65-1.99-7.16-1.72-2.02 0.22-3.48 0.18-3.26-0.1 0.22-0.28-0.15-1.08-0.84-1.79-0.68-0.72-1.8-1.28-2.49-1.25-0.69 0.02-1.42 0.83-1.63 1.79-0.37 1.67-0.39 1.67-0.5 0-0.07-1.04-0.93-1.75-2.12-1.75-1.1 0-2.22-0.68-2.5-1.5-0.3-0.89-1.72-1.5-3.5-1.5q-3 0-3-1.5c0-1.07-1.44-1.64-5-2-3.22-0.32-5.18-1.03-5.5-2q-0.5-1.5-4.5-1.5-4 0-4.5-1.5c-0.3-0.89-1.72-1.5-3.5-1.5-1.65 0-3.16-0.56-3.34-1.25-0.19-0.69-1.54-1.59-3-2-1.47-0.41-3.33-1.43-4.16-2.25-0.83-0.82-2.29-1.48-3.25-1.46-0.96 0.03-2.42-0.67-3.25-1.54-0.87-0.92-3.07-1.57-5.25-1.54-2.47 0.02-3.92-0.47-4.25-1.46-0.28-0.82-1.29-1.49-2.25-1.47-0.96 0.02-2.88-0.9-4.25-2.03-1.38-1.13-3.06-2.05-3.75-2.03-0.69 0.02-3.16-1.33-5.5-3-2.34-1.66-4.92-2.99-5.75-2.95-0.83 0.04-2.17-0.65-3-1.53-0.83-0.88-2.4-1.87-3.5-2.2-1.1-0.34-2.56-1.21-3.25-1.95-0.69-0.74-2.15-1.34-3.25-1.34-1.1 0-2.22-0.68-2.5-1.5-0.28-0.82-1.51-1.5-2.75-1.5-1.24 0.01-2.81-0.89-3.5-2-0.69-1.1-2.15-2-3.25-2-1.1 0-3.46-1.35-5.25-3.01-1.79-1.65-3.92-2.99-4.75-2.97-0.83 0.03-2.4-0.88-3.5-2.02-1.1-1.14-3.01-2.05-4.25-2.03-1.24 0.02-2.24-0.31-2.23-0.72 0.01-0.41-1.39-1.88-3.12-3.25-2.67-2.12-3.28-2.27-4.01-1-0.47 0.82-0.85 1.05-0.83 0.5 0.02-0.55-1.68-2.69-3.76-4.76-2.09-2.07-4.59-3.75-5.55-3.75-0.96 0.01-1.97-0.67-2.25-1.49-0.28-0.82-1.17-1.5-2-1.5-0.83 0-1.5-0.45-1.5-1 0-0.55-1.46-1.61-3.25-2.35-1.79-0.74-4.38-2.53-5.75-3.98-1.38-1.45-3.4-2.63-4.5-2.63-1.1 0.01-3.35-1.57-5-3.52-1.65-1.94-3.9-3.52-5-3.51-1.1 0-3.13-1.24-4.5-2.77-1.38-1.52-4.66-4.56-7.3-6.76-2.63-2.19-4.77-3.42-4.75-2.73 0.03 0.69-4.79-3.5-10.7-9.31-5.91-5.81-11.54-10.76-12.5-11-0.96-0.24-7.1-5.73-13.64-12.19-6.54-6.46-16.78-16.51-22.75-22.33-5.97-5.82-16.49-16.42-23.36-23.54-6.88-7.13-12.86-13.62-13.29-14.42-0.43-0.8-1.33-2.39-2-3.53-0.67-1.15-4.26-5.2-7.98-9-3.73-3.81-6.78-7.61-6.78-8.43-0.01-0.82-2.58-4.19-5.73-7.48-3.15-3.29-6.06-5.87-6.47-5.75-0.41 0.13-0.53-0.22-0.25-0.77 0.28-0.55 0.05-2.13-0.5-3.5-0.55-1.38-1.45-2.28-2-2-0.55 0.28-1-0.18-1-1 0-0.82-0.67-1.72-1.5-2-0.83-0.28-1.5-1.4-1.5-2.5 0-1.1-1.58-3.57-3.5-5.5-1.92-1.93-3.49-4.29-3.48-5.25 0.01-0.96-1.58-3.32-3.52-5.25-1.94-1.93-3.53-4.29-3.52-5.25 0.01-0.96-1.33-3.1-2.98-4.75-1.65-1.65-3-3.68-3-4.5 0-0.82-0.9-2.29-2.01-3.25-1.1-0.96-2-2.31-2-3 0.01-0.69-0.44-1.25-0.99-1.25-0.55 0-1.22-1.01-1.49-2.25-0.26-1.24-1.18-2.93-2.04-3.75-0.86-0.82-1.54-2.29-1.51-3.25 0.02-0.96-0.63-1.75-1.46-1.75-0.83 0-1.29-0.34-1.03-0.75 0.26-0.41-0.42-1.76-1.5-3-1.08-1.24-1.52-2.25-0.97-2.25 0.55 0 0.83-0.56 0.62-1.25-0.2-0.69-0.88-1.14-1.5-1-0.63 0.14-1.12-1.05-1.12-2.75 0-1.78-0.61-3.2-1.5-3.5-0.83-0.28-1.49-1.51-1.47-2.75 0.02-1.24-0.89-3.15-2.03-4.25-1.14-1.1-2.05-3.01-2.03-4.25 0.02-1.24-0.64-2.47-1.47-2.75-0.83-0.28-1.48-1.51-1.46-2.75 0.03-1.24-0.67-2.93-1.54-3.75-0.87-0.82-1.57-2.06-1.54-2.75 0.02-0.69-0.88-2.49-1.99-4-1.12-1.51-2.02-3.54-2-4.5 0.01-0.96-0.64-1.97-1.47-2.25-0.89-0.3-1.5-1.72-1.5-3.5 0-1.78-0.61-3.2-1.5-3.5-0.95-0.32-1.5-1.78-1.5-4 0-1.93-0.67-4.18-1.5-5-0.83-0.82-1.84-2.69-2.25-4.16-0.41-1.46-1.31-2.81-2-3-0.69-0.18-1.25-1.69-1.25-3.34q0-3-1.5-3c-1.09 0-1.57-1.31-1.75-4.75-0.18-3.5-0.65-4.72-1.75-4.65-1.15 0.07-1.44-0.91-1.25-4.25 0.19-3.32-0.23-4.77-1.76-6.1-1.1-0.96-2.02-2.88-2.03-4.25-0.01-1.38-0.69-3.4-1.51-4.5-0.82-1.1-1.48-3.01-1.47-4.25 0.01-1.24-0.43-3.15-0.98-4.25-0.55-1.1-1.34-1.82-1.75-1.6-0.41 0.22-0.75-1.76-0.75-4.39 0-3.16-0.59-5.43-1.72-6.65-1.17-1.26-1.72-3.49-1.71-6.86 0.01-3.29-0.52-5.51-1.57-6.5-0.87-0.82-1.56-2.63-1.53-4 0.04-1.38-0.6-3.4-1.42-4.5-0.82-1.1-1.5-3.69-1.52-5.75-0.02-2.48-0.71-4.34-2.04-5.5-1.71-1.49-2-2.94-1.96-9.75 0.05-6.07-0.33-8.36-1.53-9.5-1.2-1.13-1.58-3.46-1.56-9.5 0.02-4.4-0.36-8.68-0.84-9.5-0.48-0.82-1.26-1.2-1.74-0.84-0.47 0.36-0.75-2.23-0.61-5.75 0.21-5.29-0.1-6.76-1.75-8.41-1.7-1.7-2-3.33-2-11 0-6.46-0.43-9.63-1.54-11.25-1.35-1.98-1.53-11.16-1.5-75.5 0.03-63.57 0.24-73.55 1.55-75.5 1.06-1.58 1.5-4.85 1.5-11-0.01-6.85 0.42-9.56 1.99-12.5 1.11-2.06 2.01-4.76 2-6 0-1.33-0.72-2.41-1.75-2.63-1.67-0.37-1.67-0.39 0-0.5 1.5-0.1 1.74-1.16 1.71-7.37-0.04-5.37 0.36-7.64 1.54-8.75 0.87-0.82 1.57-2.74 1.54-4.25-0.03-1.92-0.57-2.76-1.79-2.78-1.65-0.03-1.65-0.11-0.04-1.25 1.23-0.87 1.71-2.64 1.71-6.22-0.01-3.28 0.54-5.52 1.58-6.5 1.2-1.13 1.58-3.42 1.54-9.25-0.03-5.6 0.38-8.17 1.46-9.25 0.83-0.82 1.84-4.02 2.25-7.1 0.41-3.08 1.33-6.12 2.04-6.75 0.72-0.63 1.28-1.71 1.25-2.4-0.02-0.69-0.6-1.44-1.29-1.67-1-0.34-1-0.44 0-0.5 0.74-0.05 1.23-1.41 1.21-3.33-0.03-1.79 0.67-3.93 1.54-4.75 1.07-1.01 1.57-3.2 1.54-6.75-0.02-2.89 0.41-5.47 0.96-5.75 0.55-0.28 1.39-1.51 1.88-2.75 0.66-1.7 0.47-2.42-0.75-2.93-1.44-0.6-1.43-0.69 0.12-0.75 1.3-0.05 1.74-0.9 1.71-3.32-0.03-1.79 0.67-3.93 1.54-4.75 0.98-0.92 1.55-3.04 1.5-5.5-0.05-2.46 0.52-4.58 1.5-5.5 1.01-0.96 1.57-3.13 1.53-6-0.03-3.31 0.48-4.96 1.96-6.25 1.3-1.13 2.01-2.99 2.01-5.25 0-1.93 0.67-4.18 1.5-5 0.83-0.82 1.48-2.96 1.46-4.75-0.03-1.79 0.67-3.93 1.54-4.75 0.92-0.87 1.57-3.07 1.54-5.25-0.02-2.11 0.51-3.96 1.21-4.24 0.69-0.27 1.57-2.4 1.97-4.75 0.4-2.34 1.43-4.94 2.3-5.76 0.86-0.82 1.56-2.63 1.56-4-0.01-1.38 0.65-3.4 1.47-4.5 0.82-1.1 1.46-3.13 1.42-4.5-0.03-1.38 0.64-3.18 1.49-4 0.85-0.82 1.82-3.07 2.16-5 0.34-1.93 1.31-4.18 2.14-5 1.36-1.34 1.32-1.57-0.37-2.18-1.04-0.37-1.33-0.71-0.64-0.75 0.69-0.04 2.14-1.08 3.22-2.32 1.08-1.24 1.98-2.81 2-3.5 0.02-0.69-0.76-1.42-1.72-1.63-1.67-0.37-1.67-0.39 0-0.5 1.04-0.07 1.75-0.93 1.75-2.12 0-1.1 0.67-2.22 1.5-2.5 0.83-0.28 1.5-1.4 1.5-2.5 0-1.1 0.92-3.24 2.03-4.75 1.12-1.51 2.02-4.21 2-6-0.02-2.02 0.54-3.44 1.47-3.75 0.83-0.28 1.5-1.63 1.5-3 0-1.38 0.67-2.72 1.5-3 0.83-0.28 1.5-1.63 1.5-3 0-1.38 0.9-3.4 2-4.5 1.1-1.1 2-2.9 2-4 0-1.1 0.67-2.22 1.5-2.5 0.87-0.29 1.48-1.66 1.46-3.25-0.03-1.51 0.67-3.43 1.54-4.25 0.87-0.82 1.55-2.18 1.5-3-0.05-0.82 0.63-2.18 1.5-3 0.87-0.82 1.57-1.95 1.54-2.5-0.03-0.55 0.85-2.69 1.96-4.75 1.1-2.06 1.98-4.31 1.96-5-0.03-0.69 0.67-1.93 1.54-2.75 0.87-0.82 1.57-2.74 1.54-4.25-0.02-1.59 0.59-2.96 1.46-3.25 0.83-0.28 2.49-2.64 3.71-5.25 1.21-2.61 2.9-5.55 3.75-6.53 1.35-1.57 1.36-1.78 0.04-1.72-0.88 0.04-0.36-0.77 1.25-1.97 1.51-1.11 2.96-3.27 3.22-4.78 0.26-1.51 1.18-3.43 2.05-4.25 0.86-0.82 1.53-2.18 1.48-3-0.05-0.82 0.63-2.18 1.5-3 0.87-0.82 1.55-2.18 1.51-3-0.04-0.82 0.85-2.4 1.99-3.5 1.14-1.1 2.05-2.56 2.03-3.25-0.02-0.69 1.33-3.16 3-5.5 1.66-2.34 3.01-5.04 3-6-0.02-0.96 0.64-1.75 1.47-1.75 0.83 0 1.49-0.79 1.47-1.75-0.02-0.96 1.56-3.89 3.5-6.5 1.94-2.61 2.97-4.74 2.28-4.72-0.69 0.02-0.12-1 1.27-2.25 1.38-1.25 3.41-3.32 4.5-4.59 1.71-2 1.78-2.44 0.48-3.24-1.1-0.67-1.15-0.92-0.18-0.93 0.73-0.01 2.08-0.78 3-1.7 0.92-0.92 2.23-2.61 2.9-3.75 0.67-1.14 1.68-3.31 2.25-4.82 0.57-1.51 1.48-2.75 2.03-2.75 0.55 0 1.22-1.13 1.5-2.5 0.28-1.38 1.79-3.74 3.38-5.25 1.72-1.65 3.12-4.26 3.5-6.5 0.34-2.06 1.18-3.74 1.87-3.72 0.69 0.02 2.03-0.77 2.97-1.75 0.95-0.98 1.74-2.57 1.75-3.53 0.02-0.96 0.7-1.97 1.53-2.25 0.83-0.28 1.5-0.95 1.5-1.5 0-0.55 0.9-1.9 2-3 1.1-1.1 2-2.9 2-4 0-1.1 0.51-2.11 1.14-2.25 0.62-0.14 1.3-1.26 1.5-2.5 0.2-1.24 2.61-4.5 5.36-7.25 2.75-2.75 4.78-5.45 4.5-6-0.28-0.55 2.16-3.81 5.41-7.25 3.59-3.79 5.72-6.84 5.41-7.75-0.45-1.33-0.39-1.33 0.51 0 0.88 1.28 1.33 1.13 3.07-1 1.12-1.38 2.05-3.18 2.06-4 0.02-0.82 2.06-3.64 4.53-6.25 2.48-2.61 4.51-5.2 4.51-5.75 0-0.55 0.45-1 1-1 0.55 0 0.86-0.56 0.7-1.25-0.17-0.69 1.23-2.6 3.11-4.25 1.91-1.68 3.14-3.55 2.8-4.25-0.37-0.76-0.12-1.03 0.64-0.68 0.75 0.34 2.41-1.35 4.17-4.25 1.61-2.65 4.88-6.85 7.28-9.32 2.64-2.73 4.39-5.48 4.44-7 0.06-1.5 0.24-1.8 0.48-0.75 0.31 1.44 0.65 1.53 1.92 0.5 0.85-0.69 1.52-1.93 1.49-2.75-0.02-0.82 0.74-2.23 1.71-3.13 0.97-0.9 17.73-17.67 37.26-37.27 19.53-19.6 35.84-35.63 36.25-35.62 0.41 0.01 3.26-2.12 6.33-4.73 3.07-2.61 9.37-8.46 14-13 4.63-4.54 9.09-8.25 9.92-8.25 0.83 0 4.65-3.15 8.5-7 3.85-3.85 7.56-7 8.25-6.99 0.69 0 3.72-2.24 6.75-4.98 3.03-2.74 6.06-4.99 6.75-5.01 0.69-0.01 2.15-1.15 3.25-2.52 1.1-1.38 2.34-2.49 2.75-2.49 0.41 0.01 3.22-2.27 6.25-5.05 3.03-2.79 6.4-5.34 7.5-5.68 1.1-0.33 4.14-2.78 6.75-5.44 2.61-2.66 5.54-4.84 6.5-4.84 0.96 0 3.21-1.57 5-3.5 1.79-1.92 4.04-3.49 5-3.48 0.96 0.01 3.1-1.33 4.75-2.99 1.65-1.66 4.01-3.24 5.25-3.52 1.24-0.28 4.29-2.53 6.78-5.01 2.49-2.47 5.2-4.5 6.03-4.5 0.83 0 3.08-1.57 5.01-3.5 1.92-1.92 4.27-3.49 5.21-3.48 0.95 0.01 3.3-1.58 5.22-3.52 1.92-1.94 4.17-3.52 5-3.51 0.83 0.02 2.96-1.33 4.75-2.98 1.79-1.66 4.04-3 5-2.99 0.96 0.02 3.21-1.56 5-3.5 1.79-1.93 4.15-3.52 5.25-3.52 1.1 0 2.21-0.56 2.47-1.25 0.27-0.69 1.62-1.59 3-2 1.39-0.41 3.24-1.31 4.1-2 0.86-0.69 2.33-2.04 3.25-3.01 0.92-0.97 2.69-1.75 3.93-1.75 1.24 0.01 2.47-0.66 2.75-1.49 0.28-0.83 1.51-1.49 2.75-1.48 1.25 0 3.81-1.54 5.75-3.47 1.93-1.92 4.51-3.5 5.75-3.52 1.24-0.02 2.47-0.7 2.75-1.53 0.28-0.83 1.62-1.5 3-1.5 1.37 0 2.72-0.67 3-1.5 0.28-0.83 1.51-1.79 2.75-2.13 1.24-0.35 3.94-1.93 6-3.5 2.06-1.58 4.65-2.87 5.75-2.87 1.1 0 2.22-0.67 2.5-1.5 0.28-0.83 1.51-1.8 2.75-2.16 1.24-0.36 4.05-1.95 6.25-3.53 2.2-1.58 4.45-2.85 5-2.84 0.55 0.02 2.24-1.09 3.75-2.47 1.51-1.37 2.74-1.94 2.72-1.25-0.01 0.7 0.98 0.27 2.25-0.98 1.26-1.22 2.96-2.23 3.78-2.24 0.82-0.01 2.96-1.37 4.75-3.02 1.79-1.66 3.81-3 4.5-2.98 0.69 0.02 2.37-0.9 3.75-2.03 1.37-1.13 3.51-2.05 4.75-2.03 1.24 0.02 2.47-0.64 2.75-1.47 0.28-0.83 1.62-1.5 3-1.5 1.37 0 2.84-0.57 3.25-1.26 0.41-0.7 2.1-1.74 3.75-2.33 1.65-0.58 2.89-1.58 2.75-2.23-0.14-0.65 0.76-1.16 2-1.14 1.24 0.03 2.93-0.67 3.75-1.54 0.82-0.87 2.4-1.55 3.5-1.5 1.1 0.05 2.68-0.63 3.5-1.5 0.82-0.87 2.29-1.57 3.25-1.54 0.96 0.02 2.54-0.75 3.5-1.71 0.96-0.96 3.55-2.65 5.75-3.74 2.2-1.09 4.34-2.56 4.75-3.25 0.41-0.69 1.87-1.26 3.25-1.26 1.37 0 2.72-0.67 3-1.5 0.28-0.83 1.85-1.72 3.5-2 1.65-0.28 3.22-1.17 3.5-2 0.28-0.83 1.51-1.48 2.75-1.46 1.24 0.03 2.93-0.67 3.75-1.54 0.82-0.87 2.51-1.57 3.75-1.54 1.24 0.02 2.47-0.63 2.75-1.46 0.28-0.83 1.4-1.5 2.5-1.5 1.1 0 2.9-0.9 4-2 1.1-1.1 2.79-1.98 3.75-1.96 0.96 0.03 2.43-0.67 3.25-1.54 0.82-0.87 2.18-1.55 3-1.5 0.82 0.05 2.18-0.62 3-1.48 0.82-0.87 2.74-1.79 4.25-2.05 1.51-0.26 2.97-1.14 3.25-1.97 0.28-0.83 1.62-1.5 3-1.5 1.37 0 2.72-0.67 3-1.5 0.28-0.83 1.4-1.5 2.5-1.5 1.1 0 3.24-0.92 4.75-2.03 1.51-1.12 3.2-2 3.75-1.96 0.55 0.04 1.68-0.64 2.5-1.51 0.82-0.87 2.18-1.55 3-1.5 0.82 0.05 2.18-0.63 3-1.5 0.82-0.87 2.4-1.55 3.5-1.5 1.1 0.05 2.68-0.63 3.5-1.5 0.82-0.87 1.95-1.55 2.5-1.51 0.55 0.04 2.24-0.84 3.75-1.96 1.51-1.11 3.31-2.01 4-1.99 0.69 0.03 1.93-0.67 2.75-1.54 0.82-0.87 2.4-1.55 3.5-1.5 1.1 0.05 2.68-0.63 3.5-1.5 0.82-0.87 2.29-1.57 3.25-1.54 0.96 0.02 2.54-0.86 3.5-1.97 0.96-1.1 2.76-2 4-2 1.24 0.01 2.47-0.66 2.75-1.49 0.28-0.83 1.51-1.48 2.75-1.46 1.24 0.03 2.93-0.67 3.75-1.54 0.82-0.87 2.29-1.57 3.25-1.54 0.96 0.02 2.54-0.86 3.5-1.97 0.96-1.1 2.65-1.99 3.75-1.96 1.1 0.03 2.9-1.08 4-2.46 1.39-1.74 2.21-2.14 2.69-1.29 0.51 0.91 1.15 0.78 2.5-0.5 0.99-0.95 2.37-1.74 3.06-1.75 0.69-0.02 2.49-0.95 4-2.06 1.51-1.12 3.54-2.02 4.5-2 0.96 0.01 1.97-0.64 2.25-1.47 0.28-0.83 1.51-1.51 2.75-1.53 1.24-0.01 2.93-0.68 3.75-1.48 0.82-0.8 2.62-1.69 4-1.98 1.37-0.3 2.72-0.94 3-1.44 0.28-0.49 1.81-1.28 3.41-1.74 1.59-0.45 3.06-1.39 3.25-2.08 0.18-0.69 1.35-1.23 2.59-1.21 1.24 0.03 2.93-0.67 3.75-1.54 0.82-0.87 2.18-1.55 3-1.5 0.82 0.05 2.18-0.63 3-1.5 0.82-0.87 2.29-1.57 3.25-1.54 0.96 0.02 2.65-0.86 3.75-1.96 1.1-1.1 2.79-2 3.75-1.99 0.96 0 2.54-0.9 3.5-2 0.96-1.11 1.75-2.46 1.75-3.01 0-0.55 0.45-1.22 1-1.5 0.57-0.29 0.79 0.36 0.5 1.5-0.28 1.1-0.16 2.02 0.25 2.04 0.41 0.03 1.43-0.67 2.25-1.54 0.82-0.87 1.95-1.55 2.5-1.51 0.55 0.04 2.24-0.84 3.75-1.96 1.51-1.11 3.65-2.03 4.75-2.03 1.1 0 2.34-0.57 2.75-1.26 0.41-0.7 3.22-2.51 6.25-4.02 3.03-1.51 7.97-4.11 11-5.79 3.03-1.67 5.93-3.47 6.45-3.99 0.52-0.52 1.76-0.94 2.75-0.94 0.99 0 2.59-0.9 3.55-2.01 0.96-1.1 2.76-2 4-2 1.24 0.01 2.59-0.62 3-1.39 0.41-0.78 1.87-1.57 3.25-1.78 1.37-0.2 2.39-0.92 2.25-1.59-0.15-0.74 0.85-1.22 2.5-1.2 1.51 0.02 3.65-0.89 4.75-2.03 1.1-1.14 3.01-2.05 4.25-2.03 1.24 0.02 2.25-0.42 2.25-0.97 0-0.55 1.91-1.89 4.25-2.99 2.34-1.09 4.7-1.98 5.25-1.98 0.55 0 2.06-0.8 3.36-1.77 1.3-0.97 3.1-2.55 4-3.52 0.9-0.97 2.2-1.75 2.89-1.75 0.69 0.01 1.42-0.55 1.62-1.24 0.2-0.69 1.89-1.37 3.75-1.52 1.86-0.15 3.83-0.83 4.38-1.51 0.55-0.68 2.35-1.71 4-2.3 1.65-0.58 2.89-1.59 2.75-2.24-0.14-0.65 0.09-1.13 0.5-1.06 0.41 0.06 1.65 0.07 2.75 0.01 1.1-0.06 3.46-1.47 5.25-3.12 1.79-1.66 4.04-3.21 5-3.45 0.96-0.25 2.43-1.17 3.25-2.05 0.82-0.88 2.4-1.56 3.5-1.51 1.1 0.05 2.68-0.63 3.5-1.5 0.82-0.87 2.18-1.56 3-1.53 0.82 0.03 3.07-1.51 5-3.42 1.93-1.92 4.51-3.5 5.75-3.52 1.24-0.02 2.47-0.7 2.75-1.53 0.28-0.83 1.4-1.5 2.5-1.5 1.1 0 3.24-0.92 4.75-2.03 1.51-1.12 3.24-2.02 3.83-2 0.6 0.01 2.4-1.31 4-2.94 1.61-1.64 3.93-2.99 5.17-3 1.24-0.02 2.47-0.7 2.75-1.53 0.28-0.83 1.51-1.49 2.75-1.48 1.27 0.01 3.78-1.53 5.75-3.52 1.93-1.94 4.29-3.53 5.25-3.52 0.96 0.01 3.21-1.56 5-3.48 1.86-2.01 4.21-3.5 5.5-3.5 1.24 0 2.47-0.67 2.75-1.5 0.28-0.83 1.62-1.5 3-1.5 1.65 0 2.82-0.77 3.44-2.25 0.51-1.24 0.96-1.91 1-1.5 0.03 0.41 1.3-0.17 2.81-1.28 1.51-1.12 3.43-2.04 4.25-2.05 0.82 0 2.62-1.34 4-2.98 1.37-1.63 3.29-2.97 4.25-2.96 0.96 0.01 3.32-1.56 5.25-3.48 1.93-1.92 4.4-3.5 5.5-3.5 1.1 0 2.34-0.56 2.75-1.25 0.41-0.69 2.89-2.38 5.51-3.75 2.61-1.38 4.75-2.84 4.75-3.25-0.01-0.41 1.56-1.42 3.49-2.25 1.93-0.83 4.29-2.29 5.25-3.26 0.96-0.97 3.55-2.84 5.75-4.16 2.2-1.33 5.24-3.69 6.75-5.24 1.51-1.56 3.54-2.83 4.5-2.82 0.96 0 3.32-1.56 5.25-3.47 1.93-1.92 4.18-3.49 5-3.5 0.82-0.01 3.07-1.59 5-3.5 1.93-1.92 4.29-3.5 5.25-3.52 0.96-0.02 4.37-2.62 7.57-5.78 3.2-3.16 6.35-5.64 7-5.5 0.65 0.14 3.65-2.11 6.66-5 3.02-2.89 5.49-4.91 5.5-4.5 0.01 0.41 1.26 0.01 2.77-0.9 1.51-0.91 4.21-3.16 6-5 1.79-1.84 3.81-3.34 4.5-3.33 0.69 0.02 3.72-2.24 6.75-5.02 3.03-2.78 5.95-5.03 6.5-5 0.55 0.02 5.05-3.58 10-8 4.95-4.42 9.68-8.05 10.5-8.06 0.82-0.01 2.51-1.13 3.75-2.48 1.24-1.35 2.25-2.91 2.25-3.46 0-0.55 0.45-1 1-1 0.55 0 2.24-1.24 3.77-2.75 1.52-1.51 4.75-4.1 7.17-5.75 2.43-1.65 8.72-7.17 13.98-12.26 5.27-5.1 10.03-9.28 10.58-9.29 0.55-0.01 2.99-1.69 5.41-3.73 2.43-2.05 4.91-4.75 5.5-6 0.6-1.25 1.54-2.26 2.09-2.24 0.55 0.02 3.47-2.44 6.5-5.48 3.03-3.04 5.95-5.53 6.5-5.54 0.55-0.01 3.03-1.68 5.5-3.71 2.47-2.02 4.81-4.15 5.18-4.72 0.38-0.56 0.38-1.48 0.01-2.03-0.4-0.59-0.16-0.69 0.57-0.25 0.82 0.49 10.49-8.57 28.28-26.5 14.87-14.99 27.02-27.81 27-28.5-0.02-0.69 1.53-2.94 3.44-5 1.92-2.06 3.16-4.16 2.75-4.66-0.4-0.5-0.28-0.63 0.27-0.28 0.55 0.34 2.35-0.75 4-2.44 1.65-1.69 3.54-4.04 4.21-5.22 0.67-1.18 1.57-2.81 2-3.61 0.43-0.8 3.49-4.18 6.79-7.52 3.3-3.33 7.35-8.05 9-10.49 1.65-2.44 4.91-6.37 7.25-8.73 2.34-2.37 4.27-4.64 4.29-5.05 0.03-0.41 1.17-2.1 2.54-3.75 1.37-1.65 4.96-5.92 7.96-9.5 3.01-3.58 5.46-6.95 5.45-7.5-0.01-0.55 1.55-2.58 3.46-4.5 1.92-1.92 3.5-3.84 3.52-4.25 0.02-0.41-0.53-0.49-1.22-0.18-0.69 0.32-0.01-0.36 1.5-1.5 1.51-1.14 2.76-2.63 2.78-3.32 0.01-0.69 0.71-1.92 1.54-2.75 0.84-0.83 3.52-4.42 5.96-8 2.44-3.58 4.9-7.51 5.45-8.75 0.56-1.24 2.48-3.65 4.27-5.36 2.02-1.94 2.78-3.26 2-3.5-0.82-0.26-0.3-1.41 1.5-3.36 1.51-1.63 3.22-3.54 3.79-4.25 0.58-0.7 1.48-1.94 2-2.74 0.78-1.19 0.53-1.33-1.29-0.75-1.39 0.44-2.06 0.33-1.75-0.29 0.28-0.55 1.06-1.01 1.75-1.03 0.69-0.02 2.04-1.14 3-2.5 1.21-1.7 1.36-2.46 0.5-2.45-0.69 0.01 0.23-1.23 2.04-2.75 1.8-1.52 3.27-3.11 3.25-3.52-0.02-0.41 1.31-2.78 2.96-5.25 1.65-2.47 2.98-5.06 2.96-5.75-0.03-0.69 0.67-1.92 1.54-2.75 0.87-0.83 1.55-1.95 1.51-2.5-0.04-0.55 0.84-2.24 1.96-3.75 1.11-1.51 2.03-3.65 2.03-4.75 0-1.1 0.68-2.22 1.5-2.5 0.82-0.28 1.5-1.63 1.5-3 0-1.38 0.68-2.72 1.5-3 0.82-0.28 1.48-1.29 1.47-2.25-0.02-0.96 0.88-2.99 2-4.5 1.11-1.51 2.03-3.65 2.03-4.75 0-1.1 0.68-2.22 1.5-2.5 0.82-0.28 1.5-1.63 1.5-3 0-1.38 0.68-2.72 1.5-3 0.82-0.28 1.5-1.4 1.5-2.5 0-1.1 0.95-3.24 2.11-4.75 1.39-1.81 1.9-3.52 1.5-5-0.37-1.35-0.21-2.05 0.39-1.75 0.55 0.28 1.45-0.4 2-1.5 0.55-1.1 0.98-3.01 0.96-4.25-0.03-1.24 0.67-2.92 1.54-3.75 0.87-0.83 1.56-2.4 1.53-3.5-0.02-1.1 0.86-2.79 1.96-3.75 1.3-1.13 2.01-2.99 2.01-5.25 0-2.22 0.55-3.68 1.5-4 0.82-0.28 1.5-0.95 1.5-1.5 0-0.55-0.79-1.17-1.75-1.38-1.67-0.37-1.67-0.39 0-0.5 0.96-0.07 1.75-0.79 1.75-1.62 0-0.83 0.68-1.72 1.5-2 0.84-0.28 1.51-1.71 1.53-3.25 0.01-1.51 0.7-3.42 1.53-4.25 0.83-0.83 1.78-3.75 2.12-6.5 0.33-2.75 1.21-5.34 1.96-5.75 0.83-0.46 1.36-2.49 1.36-5.25 0-3.11 0.46-4.65 1.5-5 0.95-0.32 1.5-1.78 1.5-4 0-1.92 0.97-5.41 2.16-7.75 1.67-3.3 2.07-5.51 1.75-9.89-0.23-3.1-0.07-5.13 0.34-4.5 0.53 0.81 1.03 0.71 1.73-0.36 0.55-0.83 1.01-3.53 1.04-6 0.02-2.47 0.71-5.4 1.53-6.5 0.82-1.1 1.48-2.79 1.47-3.75-0.01-0.96-0.58-1.94-1.27-2.17-1-0.34-1-0.44 0-0.5 0.77-0.05 1.25-1.53 1.24-3.83 0-2.06 0.75-4.88 1.67-6.25 0.92-1.38 1.88-5.2 2.15-8.5 0.26-3.3 1.09-6.9 1.84-8 0.92-1.34 1.35-4.97 1.31-11-0.04-6.98 0.31-9.34 1.54-10.5 1.33-1.26 1.58-4.16 1.52-18-0.05-12.61 0.29-17.39 1.46-20.25 1.2-2.97 1.52-8.35 1.51-26-0.01-16.44-0.4-23.69-1.49-27.75-0.96-3.56-1.46-10.09-1.44-18.5 0.02-10.61-0.26-13.28-1.56-14.5-1.18-1.11-1.58-3.38-1.54-8.75 0.02-4.12-0.57-8.65-1.37-10.5-0.77-1.79-1.66-5.73-1.98-8.75-0.33-3.18-1.2-5.92-2.05-6.5-1.08-0.73-1.49-3.02-1.5-8.5-0.02-5.04-0.51-8.16-1.51-9.5-0.9-1.21-1.5-4.27-1.52-7.75-0.02-3.74-0.55-6.27-1.53-7.25-0.82-0.83-1.5-2.96-1.51-4.75 0-1.79-0.9-4.6-1.99-6.25-1.09-1.65-1.97-4.35-1.95-6 0.02-1.65-0.68-3.67-1.55-4.5-0.98-0.92-1.55-3.04-1.5-5.5 0.05-2.46-0.52-4.58-1.5-5.5-0.92-0.87-1.57-3.07-1.54-5.25 0.03-2.55-0.6-4.31-1.97-5.5-1.1-0.96-2-2.88-1.98-4.25 0.01-1.38-0.64-3.4-1.46-4.5-0.82-1.1-1.48-2.9-1.47-4 0-1.1-0.57-2.51-1.29-3.14-0.71-0.63-1.61-3.1-2-5.5-0.4-2.4-1.41-4.7-2.25-5.11-0.85-0.41-1.52-1.76-1.5-3 0.03-1.24-0.67-2.92-1.54-3.75-0.87-0.83-1.55-2.4-1.5-3.5 0.05-1.1-0.63-2.67-1.5-3.5-0.87-0.83-1.57-2.29-1.54-3.25 0.02-0.96-0.64-2.42-1.46-3.25-0.82-0.83-1.84-3.13-2.25-5.11-0.41-1.99-1.33-4.13-2.04-4.75-0.72-0.63-1.28-2.15-1.25-3.39 0.02-1.24-0.64-2.48-1.46-2.75-0.82-0.27-1.49-1.51-1.47-2.75 0.02-1.24-0.89-3.15-2.03-4.25-1.14-1.1-2.05-2.79-2.03-3.75 0.02-0.96-0.42-1.98-0.97-2.25-0.55-0.27-2.29-3.31-3.87-6.75-1.58-3.44-4.05-7.71-5.5-9.5-1.45-1.79-2.63-4.15-2.63-5.25 0-1.1-0.68-2.23-1.5-2.5-0.82-0.27-1.5-1.63-1.5-3 0-1.38-0.68-2.73-1.5-3-0.82-0.27-1.79-1.51-2.13-2.75-0.35-1.24-1.93-3.94-3.5-6-1.58-2.06-2.87-4.2-2.87-4.75 0-0.55-1.57-3.02-3.5-5.5-1.93-2.48-3.5-5.17-3.5-6 0-0.83-0.6-1.84-1.33-2.25-0.72-0.41-1.64-1.42-2.03-2.25-0.4-0.83-1.37-2.63-2.18-4-0.8-1.38-2.81-3.74-4.46-5.25-1.65-1.51-2.99-3.54-2.98-4.5 0-0.96-1.56-3.33-3.47-5.25-1.92-1.92-3.5-4.17-3.51-5-0.01-0.83-1.26-2.86-2.78-4.52-1.52-1.65-3.86-4.8-5.21-7-1.35-2.19-4.62-6.23-7.27-8.98-2.65-2.75-4.81-5.56-4.8-6.25 0.01-0.69-7.52-8.96-16.73-18.38-9.21-9.43-27.45-27.77-40.52-40.75-13.08-12.99-24.66-23.73-25.75-23.87-1.09-0.14-2.2-0.92-2.48-1.75-0.28-0.83-0.84-1.5-1.25-1.49-0.41 0-3.79-2.92-7.5-6.5-3.71-3.58-7.54-6.51-8.5-6.51-0.96 0-3.1-1.58-4.75-3.52-1.65-1.95-3.9-3.54-5-3.54-1.1 0-3.57-1.57-5.5-3.48-1.93-1.91-5.03-4.26-6.91-5.21-1.87-0.96-4.79-3-6.5-4.52-1.7-1.52-3.99-3.06-5.09-3.42-1.1-0.36-3.24-1.93-4.75-3.48-1.51-1.56-3.54-2.83-4.5-2.82-0.96 0-2.54-0.9-3.5-2-0.96-1.11-2.54-2-3.5-1.98-0.96 0.01-3.1-1.32-4.75-2.97-1.65-1.65-3.9-3.03-5-3.06-1.1-0.04-3.57-1.63-5.5-3.55-1.93-1.91-4.18-3.45-5-3.42-0.82 0.03-2.18-0.66-3-1.53-0.82-0.87-2.51-1.57-3.75-1.54-1.24 0.02-2.41-0.52-2.59-1.21-0.19-0.69-1.54-1.59-3-2-1.47-0.41-3.34-1.43-4.16-2.25-0.82-0.83-2.4-1.5-3.5-1.5-1.1 0-2.22-0.68-2.5-1.5-0.28-0.83-1.4-1.5-2.5-1.5-1.1 0-3.24-0.92-4.75-2.03-1.51-1.12-3.31-2.02-4-2-0.69 0.01-1.25-0.42-1.25-0.97 0-0.57-2.94-1-6.83-1-3.76 0-7.21 0.3-7.67 0.67zm775.25 1872.82c-3.16 3.03-5.97 6.41-6.25 7.51-0.28 1.1-3.43 5.04-7.01 8.75-3.58 3.71-6.51 7.43-6.52 8.25 0 0.82-1.12 2.51-2.49 3.75-1.36 1.24-2.93 2.25-3.48 2.25-0.55 0-2.08 1.69-3.39 3.75-1.31 2.06-5.25 6.46-8.75 9.78-3.5 3.31-8.16 7.18-10.36 8.61-2.2 1.42-10.41 8.95-18.25 16.72-7.84 7.78-15.04 14.15-16 14.17-0.96 0.01-4.56 2.94-8 6.5-3.44 3.56-6.93 6.47-7.75 6.47-0.82 0-3.86 2.25-6.75 5.01-2.89 2.75-5.93 5-6.75 4.98-0.82-0.01-3.07 1.55-5 3.46-1.93 1.92-4.4 3.49-5.5 3.5-1.1 0.01-3.13 1.36-4.5 2.99-1.38 1.64-3.18 2.98-4 2.98-0.82 0.01-2.74 0.93-4.25 2.05-1.51 1.11-3.31 2.01-4 1.99-0.69-0.03-1.93 0.67-2.75 1.54-0.82 0.87-2.29 1.57-3.25 1.54-0.96-0.02-2.31 0.86-3 1.96-0.69 1.11-1.7 2.01-2.25 2.02-0.55 0-2.91 0.9-5.25 1.99-2.34 1.1-4.25 2.44-4.25 2.99 0 0.55-0.87 1-1.93 1-1.06 0-2.6 0.68-3.43 1.5-0.82 0.82-1.98 1.5-2.57 1.5-0.59 0-1.08 0.79-1.09 1.75-0.01 1.49-0.15 1.53-0.96 0.25-0.82-1.31-1.1-1.29-2.23 0.18-0.71 0.92-2.42 1.83-3.79 2.02-1.38 0.19-2.39 0.9-2.25 1.57 0.15 0.74-0.84 1.21-2.5 1.19-1.51-0.03-3.43 0.67-4.25 1.54-0.82 0.87-2.29 1.57-3.25 1.54-0.96-0.02-2.54 0.86-3.5 1.97-0.96 1.1-2.88 2.01-4.25 2.01-1.38-0.01-3.85 0.86-5.5 1.93-1.65 1.07-3.34 1.74-3.75 1.49-0.41-0.24-1.86 0.35-3.22 1.31-1.36 0.96-2.51 2.43-2.57 3.25q-0.11 1.47-0.84-0.5c-0.74-1.97-0.79-1.96-2.93 0.25-1.21 1.24-3.32 2.25-4.69 2.25-1.38 0-2.72 0.68-3 1.5-0.31 0.92-1.76 1.51-3.75 1.52-1.79 0-3.93 0.4-4.75 0.88-0.82 0.48-1.21 1.26-0.86 1.74 0.36 0.47-0.54 0.71-2 0.52-1.72-0.21-3.34 0.41-4.64 1.79q-2 2.12-5.5 2.04c-1.99-0.05-4.15 0.61-5 1.51-0.82 0.87-2.85 1.55-4.5 1.5-1.65-0.05-3.68 0.63-4.5 1.5-0.82 0.87-2.85 1.55-4.5 1.51-1.65-0.04-4.24 0.84-5.75 1.96-1.51 1.11-3.65 2.03-4.75 2.03-1.1 0-2.22 0.68-2.5 1.5-0.37 1.11-2 1.49-6.25 1.46-4-0.04-6.21 0.43-7.25 1.54-0.82 0.87-2.74 1.57-4.25 1.54-1.51-0.02-4.44 0.86-6.5 1.96-2.06 1.11-4.31 2.01-5 2-0.69 0-1.44 0.56-1.67 1.25-0.34 1-0.44 1-0.5 0-0.04-0.69-0.64-1.27-1.33-1.29-0.69-0.03-1.93 0.67-2.75 1.54-0.86 0.91-3 1.55-5 1.5-2-0.05-4.14 0.59-5 1.5-1.01 1.07-3.2 1.57-6.75 1.54-2.89-0.02-6.71 0.64-8.5 1.46-1.79 0.83-5.95 1.86-9.25 2.3-3.81 0.51-5.91 1.24-5.75 2 0.17 0.84-1.72 1.2-6.25 1.2-4.89 0-6.62 0.37-7 1.5-0.37 1.1-2.02 1.5-6.25 1.49-3.21 0-6.63 0.59-7.75 1.36-1.16 0.79-6.28 1.63-12.25 2-6.51 0.41-11.07 1.2-12.5 2.16-1.3 0.87-4.47 1.5-7.5 1.5-3.31-0.01-5.41 0.45-5.67 1.24-0.34 1-0.44 1-0.5 0-0.05-0.72-1.45-1.26-3.33-1.27-1.79-0.01-4.15 0.65-5.25 1.47-1.35 1.01-4.5 1.5-9.75 1.52-6.02 0.02-8.14 0.42-9.5 1.78-1.33 1.33-3.12 1.69-7.5 1.5-4.79-0.21-5.81 0.04-6.13 1.5-0.37 1.67-0.39 1.67-0.5 0-0.1-1.42-0.73-1.63-3.37-1.14-1.79 0.34-3.93 1.23-4.75 1.98-1.03 0.94-4.37 1.37-10.75 1.38-6.49 0.02-9.38 0.4-9.67 1.28-0.34 1-0.44 1-0.5 0-0.06-0.89-2.44-1.25-8.33-1.26-5.7 0-8.95 0.46-10.5 1.5-1.75 1.17-5.66 1.53-17.5 1.58-9.85 0.05-16.67 0.55-19.25 1.41-2.38 0.79-10.5 1.5-20 1.76-12.33 0.33-16.74 0.81-19.25 2.09-2.42 1.24-5.99 1.68-14 1.71-8.96 0.03-10.96 0.32-12 1.75-1.18 1.6-1.22 1.6-0.75-0.04 0.44-1.53-0.28-1.75-5.75-1.77-3.99-0.01-6.97 0.52-8.25 1.47-1.61 1.19-5.88 1.49-21.75 1.52-18.12 0.03-19.75 0.17-19.77 1.78-0.01 1.48-0.15 1.52-0.89 0.25-0.78-1.33-0.93-1.33-1.4 0-0.42 1.18-0.55 1.13-0.61-0.25-0.07-1.6-1.38-1.73-14.93-1.5-9.33 0.16-15.37 0.68-16.25 1.4-0.91 0.74-8.11 1.27-20.5 1.5-15.11 0.28-19.47 0.66-20.91 1.85-1 0.82-2.53 1.6-3.41 1.73-0.87 0.12-6.08 0.28-11.58 0.34-6.82 0.09-10.64 0.57-12 1.54-1.28 0.9-4.51 1.39-9 1.35-5.15-0.04-7.4 0.37-8.5 1.54-1.18 1.25-3.64 1.58-11.5 1.57-7.88-0.02-10.95 0.4-14.5 1.98-3.28 1.46-6.53 1.99-12 1.93-5.63-0.05-7.87 0.33-9 1.52-1.04 1.1-3.18 1.56-7 1.5-3.82-0.06-5.96 0.4-7 1.5-0.98 1.03-3.16 1.57-6.25 1.54-2.91-0.02-6.2 0.73-8.5 1.96-2.53 1.35-5.71 2.02-9.75 2.04-3.7 0.01-6.77 0.59-8 1.51-1.18 0.87-4.05 1.46-7 1.42q-5-0.06-6.5 1.53c-0.91 0.96-3.08 1.57-5.5 1.54-2.2-0.03-4.9 0.57-6 1.32-1.1 0.76-3.46 1.67-5.25 2.01-1.79 0.35-3.47 1.31-3.75 2.13q-0.5 1.5-4.5 1.5c-2.31 0-4.18 0.53-4.42 1.25-0.34 1-0.44 1-0.5 0-0.04-0.69-1.09-1.27-2.33-1.29-1.24-0.03-2.93 0.67-3.75 1.54-0.82 0.87-2.63 1.56-4 1.53-1.38-0.04-3.4 0.6-4.5 1.42-1.1 0.82-3.01 1.5-4.25 1.52-1.24 0.02-3.15 0.93-4.25 2.03-1.1 1.1-3.24 1.99-4.75 1.98-1.51-0.01-3.65 0.65-4.75 1.47-1.1 0.82-3.46 1.5-5.25 1.52-1.79 0.02-3.93 0.25-4.75 0.53-0.82 0.28-1.5 1.18-1.5 2 0 0.82-0.45 1.28-1 1-0.55-0.28-2.57-0.28-4.5 0-2.22 0.32-3.5 1.05-3.5 2 0 0.98-0.95 1.48-2.75 1.46-1.51-0.03-3.43 0.67-4.25 1.54-0.82 0.87-2.85 1.55-4.5 1.5-1.65-0.05-3.68 0.63-4.5 1.5-0.82 0.87-2.4 1.55-3.5 1.51-1.1-0.04-2.9 0.85-4 1.99q-2 2.07-5.75 2.03c-2.47-0.02-3.92 0.48-4.25 1.47-0.28 0.82-1.63 1.5-3 1.5-1.38 0-2.72 0.68-3 1.5-0.28 0.82-1.66 1.5-3.08 1.5-1.41 0-3.47 0.9-4.57 2-1.1 1.1-3.21 1.98-4.68 1.96-1.47-0.03-3.35 0.67-4.17 1.54-0.82 0.87-2.4 1.55-3.5 1.5-1.1-0.05-2.68 0.63-3.5 1.5-0.82 0.87-2.29 1.57-3.25 1.54-0.96-0.02-2.54 0.86-3.5 1.97-0.96 1.1-2.76 2-4 2-1.24-0.01-2.47 0.67-2.75 1.49-0.28 0.82-1.51 1.48-2.75 1.46-1.24-0.03-2.93 0.67-3.75 1.54-0.82 0.87-2.29 1.57-3.25 1.54-0.96-0.02-2.54 0.86-3.5 1.97-0.96 1.1-2.76 2-4 2-1.24-0.01-2.47 0.67-2.75 1.49-0.28 0.82-1.51 1.48-2.75 1.46-1.24-0.03-2.93 0.67-3.75 1.54-0.82 0.87-2.18 1.56-3 1.51-0.82-0.04-2.63 0.86-4 1.99-1.38 1.13-3.29 2.05-4.25 2.03-0.96-0.02-1.97 0.65-2.25 1.47-0.28 0.82-1.29 1.48-2.25 1.46-0.96-0.03-2.31 0.53-2.99 1.25-0.69 0.71-0.91 1.7-0.5 2.2 0.41 0.5 0.18 0.62-0.51 0.25-0.69-0.36-2.04-0.05-3 0.71-0.96 0.75-2.99 1.65-4.5 2-1.86 0.42-2.59 1.12-2.25 2.13 0.28 0.82 0.05 1.28-0.5 1-0.55-0.28-1.68 0.18-2.5 1-1.13 1.13-1.59 1.19-1.87 0.25q-0.38-1.25-2.5 1c-1.17 1.24-2.14 2.81-2.15 3.5q-0.01 1.26-1.01-0.25c-0.88-1.31-1.16-1.28-2.24 0.24-0.68 0.95-1.45 1.51-1.73 1.24-0.28-0.27-1.4 0.43-2.5 1.55-1.1 1.12-3.01 2.02-4.25 2-1.24-0.02-2.25 0.42-2.25 0.97 0 0.55-2.14 2.2-4.75 3.66-2.61 1.46-5.09 3.26-5.5 4-0.41 0.74-1.76 1.35-3 1.37-1.24 0.01-3.56 1.36-5.17 3-1.6 1.63-3.63 2.98-4.5 2.99-0.87 0.02-4.05 2.27-7.08 5.01-3.03 2.74-6.29 4.98-7.25 4.98-0.96-0.01-2.09 0.73-2.5 1.64-0.41 0.91-1.65 2.06-2.75 2.55-1.1 0.49-2.92 1.43-4.05 2.09-1.12 0.67-3.6 2.67-5.5 4.46-1.9 1.78-4.13 3.23-4.95 3.23-0.82-0.01-2.85 1.28-4.5 2.86-1.65 1.59-3.9 3.16-5 3.5-1.1 0.34-4.14 2.65-6.75 5.14-2.61 2.49-5.54 4.74-6.5 5-0.96 0.27-4.68 3.21-8.25 6.54-3.57 3.33-7.18 6.05-8 6.05-0.82-0.01-4.09 2.45-7.25 5.46-3.16 3.01-6.31 5.46-7 5.45-0.69-0.01-4.18 2.78-7.75 6.21-3.57 3.43-7.96 7.04-9.75 8.02-1.79 0.99-5.28 3.82-7.75 6.29-2.47 2.47-4.5 4.95-4.5 5.5 0 0.55-1.01 1.5-2.25 2.12-1.24 0.62-4.38 3.43-6.99 6.25-2.6 2.82-5.3 5.69-6 6.37-0.69 0.68-4.91 4.73-9.37 9-4.46 4.27-8.98 9.33-10.04 11.26-1.06 1.93-4.06 5.75-6.67 8.5-2.61 2.75-4.72 5.68-4.69 6.5 0.02 0.82-1.53 3.07-3.46 5-1.93 1.93-3.74 4.51-4.02 5.75-0.28 1.24-0.96 2.25-1.51 2.25-0.55 0-1 0.56-1 1.25 0.01 0.69-0.89 1.81-2 2.5-1.1 0.69-1.78 1.7-1.5 2.25 0.28 0.55-0.4 1.22-1.5 1.5-1.17 0.29-2 1.33-2 2.5 0 1.1-0.9 2.9-2 4-1.1 1.1-2 2.68-2 3.5 0 0.82-1.13 1.72-2.5 2-1.8 0.36-2.71 1.38-3.25 3.65-0.41 1.73-1.31 3.3-2 3.5-0.69 0.19-1.26 1.36-1.26 2.6-0.01 1.24-0.35 3.26-0.75 4.49-0.41 1.23-1.75 2.47-2.99 2.75-1.24 0.28-2.47 1.19-2.75 2.01-0.28 0.82 0.06 1.49 0.75 1.47 0.69-0.02 0.06 1-1.4 2.25-1.46 1.25-3.6 4.08-4.75 6.28-1.16 2.2-2.11 4.56-2.1 5.25 0 0.69-1.35 3.05-3 5.25-1.65 2.2-2.98 4.56-2.96 5.25 0.03 0.69-0.67 1.93-1.54 2.75-0.87 0.82-1.55 2.18-1.51 3 0.04 0.82-0.85 2.4-1.99 3.5q-2.07 2-2.03 5.75c0.02 2.47-0.48 3.92-1.47 4.25-0.82 0.28-1.5 1.62-1.5 3 0 1.37-0.68 2.72-1.5 3-0.82 0.28-1.49 1.51-1.47 2.75 0.02 1.24-0.89 3.15-2.03 4.25-1.14 1.1-2.03 3.12-1.99 4.5 0.04 1.37-0.64 3.18-1.51 4-1.03 0.98-1.57 3.16-1.54 6.25 0.03 3.36-0.4 4.9-1.46 5.25-0.95 0.32-1.5 1.78-1.5 4 0 1.99-0.89 4.69-2.07 6.25-1.97 2.62-1.98 2.78-0.25 3.43 1.67 0.62 1.68 0.69 0.07 0.75-1.14 0.05-1.73 0.85-1.71 2.32 0.03 1.24-0.67 2.93-1.54 3.75-1.07 1.01-1.56 3.13-1.5 6.5 0.06 3.37-0.43 5.49-1.5 6.5-0.87 0.82-1.57 2.51-1.54 3.75 0.02 1.24 0.6 2.44 1.29 2.67 1 0.34 1 0.44 0 0.5-0.76 0.05-1.25 1.54-1.25 3.83 0.01 2.06-0.89 5.44-2 7.5-1.1 2.06-2 3.97-2 4.25 0 0.28 0.79 0.67 1.75 0.88 1.67 0.37 1.67 0.39 0 0.5-1.29 0.09-1.74 0.97-1.71 3.37 0.03 1.79-0.67 3.93-1.54 4.75-1.13 1.07-1.58 3.29-1.54 7.75q0.04 6.25-1.21 6.62c-0.85 0.25-1.44 3.72-1.83 10.75-0.32 5.71-1.1 11.39-1.75 12.63-0.77 1.49-1.38 12.35-1.79 32-0.41 19.69-1.01 30.22-1.75 31.15-0.65 0.81-1.24 6.21-1.38 12.75-0.22 10.12-0.06 11.39 1.5 11.73 1.67 0.37 1.67 0.39 0 0.5-1.6 0.11-1.75 1.69-1.75 18.12 0 14.67 0.28 18.28 1.5 19.5 1.12 1.12 1.66 5.01 2.13 15.25 0.47 10.51 1.06 14.63 2.5 17.5 1.03 2.06 2.27 3.75 2.75 3.75 0.49 0 2.76-1.91 5.05-4.25 2.29-2.34 4.14-5.04 4.11-6-0.02-0.96 0.52-1.97 1.21-2.23 0.69-0.27 1.55-1.73 1.91-3.25 0.36-1.53 1.6-4.46 2.75-6.52 1.15-2.06 2.54-3.75 3.09-3.75 0.55 0 1-0.68 1-1.5 0-0.82-0.56-1.48-1.25-1.47-0.69 0.02-0.01-0.88 1.5-2 1.57-1.15 2.97-3.32 3.25-5.03 0.28-1.65 1.18-3.22 2-3.5 0.82-0.28 1.5-1.4 1.5-2.5 0-1.1 1.35-3.35 3-5 1.65-1.65 3-3.22 3-3.5 0-0.28 1.01-1.39 2.25-2.47 1.24-1.08 1.69-1.98 1-2-0.69-0.02 0.51-1.94 2.67-4.28 2.16-2.34 4.87-5.38 6.03-6.75 1.16-1.38 2.1-3.06 2.08-3.75-0.02-0.69 1.43-2.58 3.22-4.2 2.24-2.03 3.02-3.43 2.5-4.5-0.45-0.92-0.35-1.35 0.25-1.05 0.55 0.28 0.98 0.16 0.96-0.25-0.02-0.41 4.75-5.7 10.59-11.75 5.85-6.05 11.23-12.35 11.96-14 0.73-1.65 4.97-6.6 9.41-11 4.45-4.4 8.09-8.56 8.08-9.25 0-0.69 0.56-1.25 1.25-1.24 0.69 0 4.98-3.71 9.53-8.25 4.56-4.54 8.04-8.6 7.75-9.01-0.29-0.41-0.19-0.51 0.22-0.22 0.41 0.29 3.76-2.52 7.43-6.25 3.67-3.73 6.56-7.23 6.41-7.78q-0.26-1 0.16 0c0.24 0.55 1.97-0.57 3.86-2.5 1.88-1.93 3.42-4.06 3.41-4.75-0.01-0.69 0.54-1.25 1.23-1.25 0.69 0 7.55-6.29 15.25-13.98 7.7-7.68 14.68-14 15.5-14.04 0.82-0.03 3.41-1.84 5.75-4.02 2.67-2.49 3.97-4.42 3.51-5.21q-0.73-1.24 0.5-0.5c0.72 0.43 1.98-0.04 2.99-1.13 0.96-1.03 2.76-2.15 4-2.5 1.24-0.34 4.95-3.32 8.25-6.62 3.3-3.3 6.79-6 7.75-5.99 0.96 0 2.46-0.78 3.33-1.75 0.87-0.97 3.46-3.45 5.75-5.51 2.29-2.06 4.62-3.53 5.17-3.25 0.55 0.28 3.14-1.74 5.75-4.48 2.61-2.74 5.65-4.99 6.75-5 1.1-0.01 3.46-1.59 5.25-3.52 1.79-1.92 4.04-3.49 5-3.48 0.96 0.01 3.1-1.35 4.75-3.02 1.65-1.67 3.68-3.02 4.5-2.99 0.82 0.03 2.4-0.87 3.5-2.01 1.1-1.14 2.68-2.05 3.5-2.02 0.82 0.02 2.96-1.32 4.75-2.97 1.79-1.66 3.7-3.01 4.25-3.01 0.55 0 3.03-1.57 5.5-3.5 2.47-1.93 5.4-3.5 6.5-3.5 1.1 0 2.22-0.68 2.5-1.5 0.28-0.82 1.4-1.5 2.5-1.5 1.1 0 2.79-0.9 3.75-2.01 0.96-1.1 2.09-2 2.5-2 0.41 0.01 2.89-1.39 5.5-3.11 2.61-1.71 5.65-3.28 6.75-3.49 1.1-0.2 2.11-0.83 2.25-1.38 0.14-0.56 1.15-1.01 2.25-1.01 1.1 0 2.79-0.9 3.75-2.01 0.96-1.1 2.76-2 4-2 1.24 0.01 2.47-0.67 2.75-1.49 0.28-0.82 1.51-1.48 2.75-1.46 1.24 0.03 2.93-0.67 3.75-1.54 0.82-0.87 2.29-1.57 3.25-1.54 0.96 0.02 2.54-0.86 3.5-1.97 0.96-1.1 2.87-1.98 4.25-1.96 1.37 0.03 3.18-0.66 4-1.53 0.82-0.87 2.65-1.57 4.05-1.54 1.4 0.02 3.12-0.52 3.82-1.21 0.69-0.69 2.7-1.72 4.45-2.3 1.75-0.58 3.07-1.59 2.93-2.25-0.16-0.79 1.2-1.18 4-1.16 2.64 0.03 4.82-0.55 5.75-1.54 0.82-0.87 2.93-1.57 4.68-1.54 1.75 0.02 3.85-0.64 4.68-1.46 0.82-0.82 2.43-1.5 3.57-1.5 1.14 0 2.86-0.9 3.82-2.01 1.17-1.35 2.98-2.01 5.5-2 2.45 0.01 3.92-0.51 4.25-1.49 0.35-1.04 1.89-1.5 5-1.5 3.11 0 4.65-0.46 5-1.5 0.32-0.95 1.78-1.5 4-1.5 2.52 0 3.61-0.49 3.88-1.75 0.37-1.67 0.39-1.67 0.5 0 0.07 0.96 0.46 1.77 0.87 1.78 0.41 0.02 1.99-0.88 3.5-2 1.51-1.11 4.21-2.01 6-1.99 1.79 0.03 3.93-0.67 4.75-1.54 0.92-0.98 3.04-1.55 5.5-1.5 2.46 0.05 4.58-0.52 5.5-1.5 0.96-1.01 3.13-1.57 6-1.54 2.67 0.03 6.02-0.77 8.25-1.96 2.2-1.17 5.72-2.01 8.5-2.03 2.61-0.02 5.65-0.7 6.75-1.52 1.16-0.86 4.11-1.47 7-1.46 2.83 0.01 5.97-0.63 7.25-1.48 1.26-0.85 4.56-1.53 7.5-1.56 2.89-0.02 6.6-0.73 8.25-1.57 1.65-0.84 6.15-1.78 10-2.09 3.85-0.3 7.68-1.17 8.5-1.91 1.03-0.93 4.48-1.38 11-1.43 5.99-0.05 10.24-0.55 11.5-1.37 1.1-0.72 6.05-1.52 11-1.79 5.62-0.3 9.09-0.92 9.25-1.64 0.15-0.71 2.54-1.15 6.25-1.15 4.68 0 6.21-0.39 6.97-1.75 0.53-0.96 0.98-1.19 1-0.5 0.02 0.86 1.97 1.25 6.33 1.25 3.71 0 6.81-0.51 7.55-1.25 0.86-0.86 6.64-1.41 18.65-1.75 12-0.34 17.79-0.89 18.65-1.75 0.85-0.85 4.74-1.25 12.05-1.25 7.75 0 10.92-0.35 11.22-1.25 0.34-1 0.44-1 0.5 0 0.06 0.91 2.74 1.25 9.83 1.24 6.75 0 10.67-0.47 12.75-1.53 1.65-0.84 5.36-1.51 8.25-1.49 4.2 0.02 5.33-0.32 5.63-1.72 0.37-1.67 0.39-1.67 0.5 0 0.11 1.56 0.94 1.68 7.87 1.12 4.26-0.34 9.32-1.26 11.25-2.02 1.93-0.77 6.76-1.39 10.75-1.37 4.93 0.01 7.38-0.38 7.67-1.23 0.34-1 0.44-1 0.5 0 0.06 0.9 2.49 1.25 8.58 1.25 4.68 0 9.62-0.45 11-1 1.37-0.55 2.32-1.34 2.09-1.75-0.22-0.41 3.6-0.64 8.5-0.5 7.79 0.22 8.96 0.03 9.29-1.5 0.37-1.67 0.39-1.67 0.5 0 0.11 1.59 1.51 1.74 14.87 1.69 8.11-0.03 17-0.53 19.75-1.1 2.75-0.58 15.12-1.41 27.5-1.85 16.26-0.59 23.61-1.24 26.5-2.36 2.62-1.01 7.46-1.55 14-1.58 7.2-0.02 10.63-0.46 12.25-1.54 1.46-0.98 4.8-1.54 9.5-1.58 3.99-0.04 8.6-0.68 10.25-1.42 1.65-0.74 6.43-1.49 10.63-1.68 5.49-0.24 8.16-0.81 9.5-2.05 1.48-1.37 3.75-1.73 10.87-1.74 6.38 0 9.58-0.44 11-1.49 1.13-0.84 4.18-1.5 7-1.51 2.75-0.01 5.9-0.66 7-1.44 1.1-0.78 4.47-1.67 7.5-1.98 3.03-0.31 6.18-1.24 7-2.06 0.98-0.99 3.41-1.5 7-1.49 3.75 0.01 5.98-0.49 7-1.57 1.07-1.13 3.28-1.58 7.68-1.54 3.85 0.02 6.67-0.46 7.5-1.29 0.73-0.73 3.01-1.63 5.07-2 2.06-0.37 4.46-1.35 5.32-2.17 0.87-0.82 2.67-1.5 4-1.5 1.34 0 2.65-0.68 2.93-1.5 0.36-1.09 1.94-1.49 5.75-1.46 3.09 0.03 5.72-0.48 6.4-1.25 0.63-0.71 3.61-1.51 6.63-1.79 3.2-0.29 6.26-1.22 7.35-2.22 1.03-0.95 2.88-1.74 4.12-1.75 1.24-0.02 2.47-0.71 2.75-1.53 0.3-0.89 1.72-1.5 3.5-1.5 1.78 0 3.2-0.61 3.5-1.5q0.5-1.5 4.5-1.5c2.27 0 4.21-0.54 4.49-1.25 0.27-0.69 2.4-1.57 4.75-1.97 2.34-0.4 4.94-1.43 5.76-2.3 0.82-0.86 2.51-1.55 3.75-1.52 1.24 0.02 2.47-0.64 2.75-1.46 0.28-0.82 1.51-1.48 2.75-1.46 1.24 0.03 2.93-0.67 3.75-1.54 0.82-0.87 2.18-1.57 3-1.54 0.82 0.03 3.3-0.85 5.5-1.96 2.2-1.11 4.68-1.99 5.5-1.96 0.82 0.03 2.18-0.67 3-1.54 0.82-0.87 2.51-1.57 3.75-1.54 1.24 0.02 2.47-0.64 2.75-1.46 0.28-0.82 1.4-1.5 2.5-1.5 1.1 0 2.9-0.9 4-2 1.1-1.1 2.79-1.98 3.75-1.96 0.96 0.03 2.43-0.67 3.25-1.54 0.82-0.87 2.51-1.57 3.75-1.54 1.24 0.02 2.47-0.64 2.75-1.46 0.28-0.82 1.4-1.5 2.5-1.5 1.1 0 2.9-0.9 4-2 1.1-1.1 2.79-1.98 3.75-1.96 0.96 0.03 2.43-0.67 3.25-1.54 0.82-0.87 2.18-1.55 3-1.5 0.82 0.05 2.06-0.49 2.74-1.21 0.69-0.71 0.91-1.7 0.5-2.2-0.41-0.5-0.18-0.62 0.51-0.25 0.69 0.36 2.26 0.26 3.5-0.23 1.24-0.49 3.49-2.06 5-3.5 1.51-1.44 3.2-2.61 3.75-2.61 0.55 0 3.03-1.57 5.5-3.5 2.47-1.93 5.4-3.5 6.5-3.5 1.1 0 2-0.45 2-1 0-0.55 1.01-1.47 2.25-2.04 1.24-0.58 3.18-1.59 4.32-2.25 1.14-0.67 2.86-2 3.82-2.96 0.96-0.96 2.51-1.75 3.43-1.74 0.92 0 2.82-1.23 4.22-2.75 1.4-1.52 3.42-3.32 4.5-4.01 1.08-0.69 3.08-1.75 4.46-2.36 1.37-0.61 3.62-2.41 5-4.01 1.37-1.59 3.29-2.89 4.25-2.89 0.96 0.01 4-2.24 6.75-4.99 2.75-2.75 5.79-5.01 6.75-5.02 0.96-0.01 3.81-2.15 6.32-4.75 2.52-2.6 6.12-5.53 8-6.51 1.89-0.99 8.04-6.27 13.68-11.75 5.64-5.49 10.59-9.98 11-9.99 0.41-0.02 3.45-2.38 6.75-5.25 3.3-2.87 9.37-8.66 13.5-12.87 4.12-4.2 10.43-11.08 14-15.28 3.57-4.2 10.1-11.48 14.5-16.18 4.4-4.7 8.11-8.96 8.25-9.47 0.14-0.51-0.2-0.93-0.75-0.93-0.55 0 1.7-2.7 5-6 3.81-3.81 5.73-6.46 5.26-7.25-0.44-0.74-0.34-0.97 0.25-0.56 0.54 0.39 1.87-0.74 2.95-2.5 1.08-1.75 3.22-4.43 4.75-5.94 1.53-1.51 2.8-3.54 2.82-4.5 0.02-0.96 1.6-3.32 3.52-5.25 1.91-1.93 3.47-4.29 3.47-5.25-0.01-0.96 2.34-4.05 5.23-6.87 3.42-3.33 4.83-5.33 4.03-5.75-0.83-0.43-0.42-1.26 1.29-2.63 1.38-1.1 2.49-2.9 2.46-4-0.03-1.1 0.86-2.79 1.96-3.75 1.11-0.96 2.01-2.65 2.01-3.75 0-1.1 0.34-2.11 0.75-2.25 0.41-0.14 1.76-1.71 3-3.5 1.24-1.79 2.23-3.81 2.21-4.5-0.03-0.69 0.67-1.93 1.54-2.75 0.87-0.82 1.55-2.18 1.51-3-0.04-0.82 0.85-2.4 1.99-3.5 1.14-1.1 2.05-3.01 2.03-4.25-0.02-1.24 0.65-2.47 1.47-2.75 0.82-0.28 1.48-1.51 1.46-2.75-0.03-1.24 0.67-2.93 1.54-3.75 0.87-0.82 1.57-2.29 1.54-3.25-0.02-0.96 0.64-2.43 1.46-3.25 0.82-0.82 1.79-3.19 2.15-5.25 0.36-2.06 1.26-4.09 2-4.5 0.74-0.41 1.35-1.88 1.35-3.25 0-1.38 0.63-2.84 1.4-3.25 0.77-0.41 1.56-2.1 1.75-3.74 0.19-1.65 1.14-3.78 2.1-4.75 1.14-1.14 1.73-3.25 1.71-6.01-0.03-2.64 0.55-4.82 1.54-5.75 0.87-0.82 1.55-2.4 1.5-3.5-0.05-1.1 0.63-2.68 1.5-3.5 0.87-0.82 1.55-2.85 1.5-4.5-0.05-1.65 0.63-3.68 1.5-4.5 0.88-0.82 1.82-3.07 2.11-5 0.28-1.93 1.16-4.74 1.95-6.25 0.83-1.58 1.42-5.41 1.4-9-0.04-4.46 0.41-6.68 1.54-7.75 0.87-0.82 1.55-2.85 1.5-4.5-0.05-1.65 0.64-3.68 1.52-4.5 0.89-0.82 1.92-3.24 2.3-5.36 0.37-2.13 1.26-4.38 1.97-5 0.92-0.81 1.28-4.34 1.25-12.14-0.04-8.21 0.33-11.57 1.45-13.25 1.17-1.74 1.63-6.72 2.03-22 0.29-11.36 0.93-19.96 1.49-20.25 0.61-0.31 0.89-8.35 0.74-21l-0.25-20.5c-4.36-0.45-6.48 0.9-10.75 4.99zm-142.65-736.73c-1.87 1.6-3.32 3.55-3.21 4.33 0.11 0.78-0.52 2.08-1.39 2.91-0.87 0.83-1.57 2.29-1.54 3.25 0.02 0.96-0.88 2.99-1.99 4.5-1.22 1.65-2.03 4.25-2 6.5 0.02 2.65-0.85 4.93-2.97 7.75-1.65 2.2-2.99 4.56-2.97 5.25 0.02 0.69-0.89 2.15-2.03 3.25-1.14 1.1-2.05 3.01-2.03 4.25 0.02 1.24-0.65 2.47-1.47 2.75-0.82 0.28-1.5 1.63-1.5 3 0 1.38-0.68 2.72-1.5 3-0.82 0.28-1.51 1.51-1.53 2.75-0.02 1.24-1.6 3.83-3.52 5.75-1.93 1.94-3.47 4.5-3.47 5.75 0.01 1.24-0.66 2.47-1.48 2.75-0.82 0.28-1.5 1.63-1.5 3 0 1.38-0.68 2.72-1.5 3-0.82 0.28-1.72 1.85-2 3.5-0.28 1.65-0.84 3-1.25 2.99-0.41 0-1.87 2.14-3.25 4.75-1.37 2.62-3.06 5.1-3.75 5.51-0.69 0.41-1.25 1.65-1.25 2.75 0 1.1-1.56 3.46-3.47 5.25-1.9 1.79-3.49 4.15-3.53 5.25-0.03 1.1-1.63 3.58-3.55 5.5-1.91 1.92-3.47 4.17-3.46 5 0.02 0.83-1.33 2.96-2.98 4.75-1.66 1.79-3.01 4.04-3.01 5 0 0.96-1.58 3.1-3.52 4.75-1.95 1.65-3.52 3.79-3.51 4.75 0.02 0.96-8.1 9.96-18.04 20-9.94 10.04-19.15 20.05-20.47 22.25-1.32 2.2-4.01 5.13-5.98 6.5-1.96 1.38-3.54 2.72-3.5 3 0.03 0.28-1.41 2.11-3.21 4.07-1.8 1.96-4.62 4.39-6.27 5.41-1.65 1.01-5.2 3.9-7.89 6.43-2.68 2.52-8.87 8.53-13.75 13.34-4.87 4.81-9.54 8.75-10.36 8.75-0.82 0-4.43 2.92-8 6.5-3.57 3.58-7.29 6.49-8.25 6.48-0.96-0.01-3.32 1.58-5.25 3.52-1.93 1.94-4.21 3.53-5.08 3.52-0.87-0.01-2.9 1.32-4.5 2.95-1.61 1.64-3.71 2.99-4.67 3-0.96 0.02-3.32 1.61-5.25 3.53-1.93 1.92-3.95 3.5-4.5 3.5-0.55 0-3.14 1.59-5.75 3.53-2.61 1.94-5.54 3.52-6.5 3.5-0.96-0.02-1.97 0.64-2.25 1.47-0.28 0.83-1.62 1.5-3 1.5-1.37 0-2.84 0.56-3.25 1.25-0.41 0.69-2.1 1.95-3.75 2.8-1.65 0.86-5.03 2.66-7.5 4-2.47 1.35-4.84 3.01-5.25 3.7-0.41 0.69-1.87 1.25-3.25 1.25-1.37 0-2.72 0.67-3 1.5-0.28 0.83-1.4 1.5-2.5 1.5-1.1 0-2.9 0.9-4 2-1.1 1.1-2.79 1.98-3.75 1.96-0.96-0.03-2.43 0.67-3.25 1.54-0.82 0.87-2.51 1.57-3.75 1.54-1.24-0.02-2.47 0.63-2.75 1.46-0.28 0.83-1.62 1.5-3 1.5-1.42 0-3.04 0.87-3.75 2-0.81 1.31-2.29 1.99-4.25 1.96-1.65-0.03-3.68 0.67-4.5 1.54-0.82 0.87-2.74 1.57-4.25 1.54-1.59-0.02-2.96 0.59-3.25 1.46-0.28 0.83-1.62 1.5-3 1.5-1.37 0-2.5 0.45-2.5 1 0 0.55-0.79 0.74-1.75 0.42-0.99-0.33-2.4 0.12-3.25 1.04-0.82 0.9-2.51 1.61-3.75 1.58-1.24-0.02-2.47 0.63-2.75 1.46-0.31 0.94-1.77 1.5-3.93 1.5-1.88 0-4.1 0.67-4.93 1.5-0.82 0.83-3.1 1.5-5.07 1.5-1.96 0-4.25 0.22-5.07 0.5-0.82 0.28-1.5 1.06-1.5 1.75 0 0.76-1.67 1.36-4.25 1.53-2.34 0.15-4.7 0.92-5.25 1.71-0.55 0.79-2.57 1.46-4.5 1.5-1.93 0.03-4.18 0.7-5 1.49-0.82 0.78-3.07 1.53-5 1.65-1.93 0.12-4.06 0.59-4.75 1.05-0.69 0.45-1.07 1.16-0.85 1.57 0.22 0.41-2.37 0.88-5.75 1.05-3.87 0.19-6.52 0.82-7.15 1.71-0.63 0.9-2.83 1.41-6 1.41-3.28-0.01-5.52 0.54-6.5 1.58-0.82 0.87-2.74 1.57-4.25 1.54-1.8-0.02-2.75 0.48-2.75 1.46 0 0.83-0.45 1.72-1 2-0.62 0.31-0.72-0.32-0.25-1.67 0.68-1.96 0.51-2.09-1.75-1.37-1.37 0.45-3.4 1.43-4.5 2.18-1.1 0.76-4.03 1.35-6.5 1.32-2.87-0.03-5.04 0.53-6 1.54-1.16 1.23-3.51 1.58-10.5 1.53-6.47-0.05-9.56 0.35-11 1.42-1.33 0.99-4.45 1.5-9.25 1.52-4.38 0.02-8.44 0.62-10.25 1.53-1.65 0.83-7.38 1.79-12.75 2.15-5.54 0.36-10.61 1.23-11.75 2-1.39 0.95-5.33 1.36-13 1.34-8.2-0.02-11.51 0.35-13 1.46-1.42 1.06-4.67 1.5-11.25 1.52-6.49 0.02-9.38 0.4-9.67 1.28-0.34 1-0.44 1-0.5 0-0.06-0.9-2.51-1.24-8.83-1.21-4.81 0.03-10.78 0.52-13.25 1.1-2.47 0.58-13.95 1.47-25.5 1.96-15.32 0.66-21.95 1.33-24.5 2.48-2.78 1.24-7.16 1.55-21.25 1.49-13.28-0.05-18.82 0.3-22 1.42-3.04 1.06-8.8 1.5-20.25 1.54-11.29 0.04-17.18 0.48-20 1.5-2.61 0.94-8.07 1.45-15.75 1.45-10.37 0.02-11.8 0.23-12.13 1.77-0.37 1.67-0.39 1.67-0.5 0-0.11-1.57-0.98-1.69-8.37-1.16-4.54 0.32-9.94 1.22-12 2-2.59 0.97-8.3 1.42-18.5 1.45-10.9 0.02-15.4 0.4-17.25 1.46-1.74 1-5.84 1.44-13.5 1.46-8.1 0.02-11.59 0.42-13.25 1.53-1.46 0.98-4.79 1.53-9.5 1.57-5.11 0.05-8.35 0.64-11 2-2.94 1.52-5.75 1.93-13 1.9-7.2-0.04-9.58 0.3-10.75 1.54-1.12 1.19-3.38 1.57-9 1.53-5.15-0.04-8.13 0.4-9.5 1.42-1.35 1-4.49 1.5-9.68 1.52-5.95 0.02-8.07 0.42-9.43 1.78-1.12 1.11-3.92 1.93-7.68 2.25-3.25 0.28-6.43 1.08-7.06 1.79-0.63 0.72-2.61 1.28-4.4 1.25-2.31-0.03-3.36 0.47-3.63 1.71-0.37 1.67-0.39 1.67-0.5 0-0.08-1.1-0.96-1.77-2.37-1.79-1.24-0.03-2.93 0.67-3.75 1.54-0.87 0.92-3.07 1.57-5.25 1.54-2.78-0.03-3.85 0.41-4.13 1.71-0.37 1.67-0.39 1.67-0.5 0-0.07-0.96-0.54-1.75-1.05-1.75-0.51 0-1.72 0.79-2.69 1.75-1.06 1.05-3.91 1.95-7.17 2.25-2.98 0.28-5.93 1.08-6.56 1.79-0.63 0.72-2.95 1.26-5.15 1.21-2.46-0.05-4.58 0.52-5.5 1.5-0.98 1.03-3.16 1.57-6.25 1.54-3.23-0.03-5.31 0.52-6.51 1.71-1.08 1.07-3.7 1.88-6.75 2.08-2.76 0.18-5.44 0.94-5.99 1.71-0.55 0.76-2.57 1.38-4.5 1.38-1.93-0.01-4.18 0.71-5 1.58-0.86 0.91-3 1.55-5 1.5-1.98-0.05-4.15 0.59-5 1.48-0.82 0.87-3.48 1.9-5.9 2.3-2.41 0.4-4.55 1.28-4.75 1.97-0.19 0.69-1.47 1.25-2.85 1.25-1.37 0-2.69 0.56-2.92 1.25-0.34 1-0.44 1-0.5 0-0.04-0.69-0.76-1.25-1.58-1.25-0.82 0-1.72 0.67-2 1.5-0.28 0.83-1.4 1.5-2.5 1.5-1.23 0-2.01 0.67-2.02 1.75-0.01 1.48-0.15 1.52-0.92 0.25-0.68-1.14-1.22-1.23-2.23-0.37-0.73 0.63-2.68 1.4-4.33 1.73-1.65 0.32-3.68 1.29-4.5 2.16-0.85 0.89-3.02 1.53-5 1.48-2-0.05-4.14 0.59-5 1.5-0.82 0.87-2.26 1.57-3.18 1.54-0.92-0.02-2.35 0.63-3.18 1.46-0.82 0.83-2.43 1.5-3.57 1.5-1.3 0-2.08 0.65-2.09 1.75-0.01 1.22-0.23 1.37-0.75 0.5-0.57-0.98-1.16-0.94-2.73 0.22-1.1 0.8-3.24 1.48-4.75 1.5-1.53 0.02-2.97 0.69-3.25 1.53-0.28 0.83-1.62 1.5-3 1.5-1.37 0-2.72 0.67-3 1.5-0.3 0.89-1.72 1.5-3.5 1.5-1.65 0-3.9 0.45-5 1-1.1 0.55-1.82 1.34-1.59 1.75 0.22 0.41-1.01 0.87-2.75 1.02-1.74 0.15-3.61 0.92-4.16 1.71-0.55 0.79-2.01 1.46-3.25 1.48-1.24 0.02-2.47 0.71-2.75 1.54-0.28 0.83-1.62 1.5-3 1.5-1.37 0-3.29 0.9-4.25 2.01-1.04 1.19-2.97 2-4.75 1.99-1.97-0.01-4.12 1.02-6.25 2.99-1.79 1.66-4.04 3-5 2.98-0.96-0.02-2.65 0.89-3.75 2.03-1.1 1.14-3.01 2.05-4.25 2.03-1.24-0.02-2.47 0.65-2.75 1.47-0.28 0.82-1.62 1.5-3 1.5-1.37 0-2.72 0.68-3 1.5-0.28 0.82-1.4 1.5-2.5 1.5-1.1 0-4.03 1.57-6.5 3.5-2.47 1.93-5.18 3.5-6 3.5-0.82 0-1.72 0.68-2 1.5-0.28 0.82-1.4 1.5-2.5 1.5-1.1 0-1.99 0.56-1.98 1.25 0.01 0.69-1.68 1.56-3.75 1.93-2.07 0.38-4.45 1.41-5.27 2.3-0.82 0.88-2.18 1.59-3 1.56-0.82-0.03-2.96 1.3-4.75 2.95-1.79 1.66-3.94 3.01-4.78 3.01-0.85 0-3.11 1.57-5.04 3.5-1.92 1.93-4.38 3.5-5.46 3.5-1.08 0-2.19 0.45-2.47 1-0.28 0.55-1.96 1.61-3.75 2.35-1.79 0.74-4.37 2.53-5.75 3.98-1.37 1.45-3.4 2.64-4.5 2.65-1.1 0.01-3.46 1.59-5.25 3.52-1.79 1.92-4.04 3.51-5 3.52-0.96 0.01-2.68 1.02-3.82 2.25-1.14 1.23-4.29 3.56-7 5.18-2.71 1.62-6.17 4.21-7.68 5.75-1.51 1.54-3.43 2.8-4.25 2.8-0.82 0-3.75 2.25-6.5 5-2.75 2.75-6.01 5.3-7.25 5.67-1.24 0.37-5.5 3.85-9.48 7.75-3.97 3.89-7.24 6.74-7.25 6.33-0.01-0.41-1.59 0.38-3.52 1.75-2.23 1.59-3.23 2.95-2.75 3.74q0.74 1.23-0.5 0.5c-0.75-0.45-1.75 0.06-2.5 1.26-0.69 1.11-1.59 2.01-2 2-0.41 0-1.93 1.24-3.38 2.75-1.45 1.51-4.49 3.94-6.75 5.4-2.27 1.46-5.92 4.29-8.12 6.3-3.35 3.05-3.76 3.82-2.5 4.69 1.25 0.88 1.21 0.95-0.25 0.45-1.26-0.42-3.73 1.39-8.75 6.41-3.85 3.85-7.22 7-7.5 7-0.28 0-3.99 3.04-8.25 6.75-4.26 3.71-9.65 8.78-11.96 11.25-2.32 2.48-4.23 4.84-4.25 5.25-0.02 0.41-1.43 2.21-3.13 4-1.7 1.79-8.45 8.76-15 15.5-6.55 6.74-11.91 12.7-11.91 13.25 0 0.55-0.45 1-1 1-0.55 0-1.45 1.35-2 3-0.55 1.65-1.45 3-2 3-0.55 0-1.45 1.35-2 3-0.55 1.65-1.56 2.98-2.25 2.95-0.69-0.02-2.49 1.55-4 3.5-1.51 1.95-2.41 3.57-2 3.59 0.41 0.03-1.62 2.39-4.51 5.25-2.9 2.87-6.33 7.01-7.62 9.21-1.29 2.2-3.77 5.57-5.5 7.5-1.72 1.93-3.13 3.84-3.13 4.25 0.01 0.41 0.57 0.76 1.26 0.78 0.69 0.01 0.01 0.8-1.51 1.75-1.51 0.94-2.74 1.94-2.72 2.22 0.02 0.28-0.89 1.63-2.02 3-1.13 1.38-2.04 2.95-2.02 3.5 0.02 0.55-1.37 2.57-3.1 4.5-1.72 1.93-3.42 4.97-3.76 6.77-0.34 1.8-0.96 3.26-1.37 3.25-0.41-0.01-0.8 0.99-0.87 2.23-0.08 1.59-0.22 1.74-0.5 0.5-0.21-0.96-0.94-1.6-1.63-1.42-0.69 0.18-1.39 1.42-1.57 2.75-0.18 1.33-0.92 2.87-1.65 3.42-0.73 0.55-1.48 1.67-1.68 2.5-0.19 0.82-1.02 2.05-1.85 2.73-1.33 1.09-1.33 1.34 0 2.24 1.29 0.86 1.25 1-0.25 1.01-1.11 0.01-1.57 0.57-1.25 1.52q0.5 1.5-1.25 1.25c-1.19-0.17-1.87 0.55-2.13 2.25-0.21 1.38-1.88 3.85-3.71 5.5-1.84 1.66-3.35 4-3.37 5.25-0.02 1.24-0.7 2.59-1.5 3-0.8 0.41-1.59 2.18-1.75 3.92-0.16 1.74-0.71 3.09-1.22 3-0.51-0.09-1.4 1.18-1.98 2.83-0.59 1.65-1.63 3.34-2.33 3.75-0.69 0.41-1.26 1.88-1.26 3.25 0 1.38-0.45 2.5-1 2.5-0.55 0-1.9 1.8-3 4-1.4 2.81-1.63 4-0.75 4.02 0.77 0 0.87 0.29 0.25 0.75-0.55 0.4-2.01 2.19-3.25 3.98-1.24 1.79-2.27 4.04-2.29 5-0.02 0.96-0.81 2.34-1.75 3.06-1.22 0.94-1.36 1.44-0.46 1.75 0.95 0.33 0.89 0.8-0.25 1.94-0.83 0.82-1.28 1.95-1 2.5 0.28 0.55-0.05 0.89-0.73 0.75-0.67-0.14-1.4 0.88-1.61 2.25-0.21 1.38-1.23 3.06-2.27 3.75-1.04 0.69-1.89 1.7-1.89 2.25 0 0.55 0.79 1.17 1.75 1.38 1.67 0.37 1.67 0.39 0 0.5-1.13 0.08-1.73 0.92-1.71 2.37 0.03 1.24-0.67 2.93-1.54 3.75-0.87 0.82-1.57 1.84-1.54 2.25 0.02 0.41 0.83 0.92 1.79 1.13q1.82 0.39 0.25 0.51c-0.83 0.07-2.31 1.58-3.3 3.37-1.42 2.57-1.52 3.39-0.5 3.97 1 0.57 1.01 0.74 0.05 0.75-0.69 0.01-1.25 0.58-1.24 1.27 0 0.69-0.97 2.15-2.16 3.25-1.79 1.65-2.06 2.7-1.56 6 0.36 2.37 0.26 3.39-0.24 2.5-0.69-1.24-1.03-1.11-1.94 0.75-0.92 1.87-0.82 2.31 0.64 2.63 1.67 0.37 1.67 0.39 0 0.5-0.96 0.07-1.74 0.91-1.73 1.87 0.01 0.96-0.65 2.65-1.47 3.75-0.82 1.1-1.5 3.46-1.52 5.25-0.02 1.79-0.37 3.24-0.78 3.22-0.41-0.01-1.31 1.11-2 2.5-0.69 1.39-1.25 3.66-1.25 5.03 0 1.38-0.67 2.72-1.5 3q-1.5 0.5-1.5 4.5c0 2.2-0.68 5.01-1.51 6.25-0.83 1.24-1.5 3.94-1.5 6 0.01 2.06-0.89 5.55-1.99 7.75-1.1 2.2-2 4.22-2 4.5 0 0.28 0.9 0.28 2 0 1.14-0.29 1.79-0.07 1.5 0.5-0.28 0.55-1.17 1-2 1-0.9 0-1.48 0.9-1.46 2.25 0.03 1.24-0.67 2.93-1.54 3.75-1.07 1.01-1.56 3.13-1.5 6.5 0.06 3.37-0.43 5.49-1.5 6.5-0.87 0.82-1.57 2.74-1.54 4.25 0.02 1.51 0.6 2.94 1.29 3.17 1 0.34 1 0.44 0 0.5-0.83 0.05-1.26 1.85-1.28 5.33-0.01 3.23-0.58 5.83-1.49 6.75-1.09 1.11-1.53 4.58-1.72 13.5-0.2 9.25-0.6 12.27-1.76 13.17-1.07 0.84-1.6 3.67-1.87 10-0.22 5.37-0.91 9.61-1.75 10.83-0.77 1.1-1.39 3.24-1.39 4.75 0.01 1.51 0.57 2.94 1.26 3.17 1 0.34 1 0.44 0 0.5-0.81 0.05-1.26 1.76-1.29 4.83-0.02 2.84-0.59 5.15-1.41 5.75-1.06 0.77-1.46 5.19-1.72 19.15-0.18 9.98-0.67 17.97-1.08 17.75-0.41-0.22-1.09 1.74-1.5 4.35-0.41 2.61-0.75 29.5-0.75 59.75 0 38.96 0.33 55.88 1.15 58 0.63 1.65 1.47 10.88 1.86 20.5 0.49 12.09 1.14 18.2 2.1 19.75 0.78 1.26 1.39 4.88 1.39 8.25q0 6 1.5 7.5c0.83 0.83 1.5 3.28 1.5 5.5 0 3.12 0.39 4.02 1.75 4.07 1.56 0.06 1.58 0.14 0.11 0.75-1.13 0.47-1.6 1.79-1.5 4.26 0.08 1.97 0.7 4.22 1.38 5 0.68 0.78 1.56 5.47 1.95 10.42 0.57 7.24 1.15 9.49 2.93 11.5l2.23 2.5c4.8-4.65 6.18-6.56 6.17-7.25-0.01-0.69 1.25-2.49 2.81-4 1.55-1.51 3.13-3.76 3.5-5 0.37-1.24 2.53-4.16 4.8-6.5 2.27-2.34 4.7-5.6 5.41-7.25 0.7-1.65 2.55-4.17 4.12-5.6 1.56-1.43 11.05-10.99 21.09-21.25 10.04-10.26 18.2-18.99 18.13-19.4-0.06-0.41-0.06-1.31 0-2 0.07-0.69 0.57-1.03 1.12-0.75 0.55 0.28 0.99 0.16 0.99-0.25-0.01-0.41 1.34-1.54 3-2.5 1.65-0.96 3.57-2.93 4.26-4.37 0.69-1.45 12.16-13.6 25.5-27 13.34-13.41 24.25-25.06 24.25-25.88 0-0.82 3.38-4.87 7.5-9 4.67-4.67 7.31-8.07 7-9q-0.5-1.5 1.5-1.5c1.1 0 4.57-2.58 7.75-5.77 3.16-3.18 7.1-7.7 8.75-10.05 1.65-2.36 3.79-4.49 4.75-4.73 0.96-0.25 2.5-1.91 3.41-3.7 0.91-1.79 7.9-9.55 15.53-17.25 7.63-7.7 13.86-14.34 13.84-14.75-0.02-0.41 0.65-0.75 1.47-0.75 0.82 0 1.51-0.56 1.53-1.25 0.01-0.69 1.58-2.37 3.47-3.75 1.89-1.37 3.46-3.06 3.47-3.75 0.02-0.69 0.37-1.24 0.78-1.22 0.41 0.02 3.34-2.46 6.5-5.5 3.16-3.04 5.75-5.98 5.75-6.53 0-0.55 0.34-0.99 0.75-0.99 0.41 0.01 3.45-2.69 6.75-6 3.3-3.31 5.89-6.46 5.75-7.01-0.14-0.55 0.14-0.89 0.63-0.75 0.48 0.14 2.28-0.99 4-2.5 1.71-1.51 2.9-3.2 2.62-3.75-0.28-0.55 0.06-0.79 0.75-0.52 0.69 0.26 2.38-1.08 3.75-2.98 1.38-1.89 2.84-3.46 3.25-3.47 0.41-0.02 4.46-3.88 9-8.59 4.54-4.71 11.63-11.17 15.75-14.34 4.13-3.18 9.86-8.1 12.75-10.94 2.89-2.84 5.25-5.84 5.25-6.66 0-0.82 0.68-1.5 1.5-1.5 0.82 0 2.4-0.9 3.5-2 1.1-1.1 2.22-2 2.5-2 0.28 0 1.94-1.01 3.7-2.25 1.77-1.24 6.66-5.62 10.88-9.75 4.21-4.12 9.18-8.28 11.04-9.24 1.86-0.96 5.63-3.91 8.38-6.55 2.75-2.64 6.8-5.9 9-7.24 2.2-1.34 5.91-4.35 8.25-6.7 2.34-2.35 5.26-4.55 6.5-4.88 1.24-0.34 3.49-1.92 5-3.5 1.51-1.59 3.31-2.88 4-2.86 0.69 0.01 3.02-1.45 5.19-3.25 2.17-1.8 4.64-4.07 5.5-5.04 0.86-0.97 2.24-1.75 3.06-1.73 0.82 0.01 3.07-1.55 5-3.46 1.93-1.92 4.06-3.5 4.75-3.52 0.69-0.02 1.25-0.48 1.25-1.03 0-0.55 1.01-1.28 2.25-1.63 1.24-0.34 2.93-1.26 3.75-2.04 0.82-0.78 3.64-2.75 6.25-4.38 2.61-1.62 5.05-3.96 5.42-5.2 0.59-2 0.73-2.05 1.25-0.44 0.55 1.72 0.71 1.71 3.08-0.23 1.38-1.12 3.15-2.61 3.95-3.31 0.8-0.7 2.6-1.52 4-1.83 1.4-0.3 2.44-1.09 2.3-1.75-0.14-0.65 0.76-1.17 2-1.15 1.28 0.02 4.28-1.81 6.98-4.25 2.6-2.36 4.73-3.95 4.75-3.54 0.01 0.41 0.7 0.75 1.52 0.75 0.82 0 1.72-0.68 2-1.5 0.28-0.82 1.51-1.49 2.75-1.48 1.28 0.01 3.32-1.27 4.75-2.96 1.38-1.64 3.18-2.98 4-2.98 0.82-0.01 2.74-0.93 4.25-2.05 1.51-1.11 3.31-2.01 4-1.99 0.69 0.03 1.93-0.67 2.75-1.54 0.82-0.87 2.18-1.56 3-1.51 0.82 0.04 2.63-0.86 4-1.99 1.38-1.13 2.84-2.05 3.25-2.03 0.41 0.02 2.21-0.98 4-2.22 1.79-1.24 3.36-2.59 3.5-3 0.14-0.41 1.38-0.75 2.75-0.75 1.38 0 2.72-0.68 3-1.5 0.28-0.82 1.29-1.49 2.25-1.48 0.96 0.02 5.16-1.67 9.32-3.75 4.17-2.07 8.22-4.28 9-4.9 0.79-0.63 2.78-1.4 4.43-1.73 1.65-0.32 3.68-1.29 4.5-2.16 0.82-0.86 2.4-1.53 3.5-1.48 1.1 0.05 2.68-0.63 3.5-1.5 0.82-0.87 2.51-1.57 3.75-1.54 1.24 0.02 2.59-0.62 3-1.42 0.41-0.8 1.65-1.6 2.75-1.77 1.1-0.17 3.13-1.09 4.5-2.05 1.38-0.95 3.63-1.71 5-1.68 1.38 0.03 3.18-0.67 4-1.54 0.82-0.87 2.26-1.57 3.18-1.54 0.92 0.02 2.35-0.64 3.18-1.46 0.82-0.82 2.2-1.5 3.07-1.5 0.86 0 3.37-0.9 5.57-2 2.2-1.1 4.56-1.98 5.25-1.96 0.69 0.03 1.93-0.67 2.75-1.54 0.82-0.87 2.4-1.55 3.5-1.5 1.1 0.05 2.68-0.63 3.5-1.5 0.82-0.87 2.96-1.57 4.75-1.54 2.05 0.02 3.9-0.7 5-1.97 0.96-1.1 2.87-2 4.25-1.98 1.37 0.01 3.4-0.64 4.5-1.46 1.1-0.82 3.24-1.5 4.75-1.52 1.53-0.02 2.97-0.69 3.25-1.53 0.33-0.99 1.78-1.48 4.25-1.46 2.16 0.03 4.39-0.62 5.25-1.52 0.82-0.87 3.48-1.9 5.9-2.3 2.41-0.4 4.55-1.28 4.75-1.97 0.19-0.69 1.81-1.23 3.6-1.21 1.79 0.03 3.81-0.53 4.49-1.25 0.69-0.71 1.06-1.51 0.84-1.79-0.22-0.28 1.03-0.34 2.76-0.15 2.02 0.23 3.7-0.24 4.66-1.29 0.82-0.91 2.85-1.63 4.5-1.6 1.65 0.03 4.8-0.85 7-1.96 2.2-1.11 5.69-2.01 7.75-2.01 2.45 0.01 3.92-0.51 4.25-1.49 0.33-0.99 1.78-1.48 4.25-1.46 2.06 0.03 4.26-0.53 4.89-1.25 0.62-0.71 3.21-1.63 5.75-2.04 2.69-0.44 4.82-1.37 5.11-2.25 0.37-1.1 2.05-1.51 6.25-1.53 3.48-0.02 6.54-0.62 7.75-1.52 1.12-0.83 4.09-1.48 6.75-1.47 2.61 0.01 5.65-0.43 6.75-0.98 1.1-0.55 1.82-1.34 1.6-1.75-0.22-0.41 1.84-0.75 4.57-0.75 3.71 0 5.21-0.44 5.9-1.75 0.71-1.34 2.17-1.74 6.18-1.71 3.55 0.03 5.74-0.47 6.75-1.54 0.87-0.92 3.07-1.57 5.25-1.54 2.14 0.02 3.93-0.5 4.17-1.21 0.34-1 0.44-1 0.5 0 0.04 0.69 1.32 1.27 2.83 1.29 1.51 0.03 3.43-0.67 4.25-1.54 1.01-1.07 3.2-1.57 6.75-1.54 4.21 0.03 5.33-0.31 5.63-1.71 0.37-1.67 0.39-1.67 0.5 0 0.1 1.46 0.74 1.64 3.87 1.11 2.06-0.35 4.65-1.26 5.75-2.01 1.1-0.75 3.24-1.36 4.75-1.36 1.51 0.01 2.94-0.55 3.17-1.24 0.34-1 0.44-1 0.5 0 0.04 0.69 1.2 1.25 2.58 1.25 1.37 0 2.72-0.68 3-1.5 0.37-1.12 2.08-1.5 6.75-1.49 3.71 0 7.06-0.56 8.25-1.38 1.24-0.86 5.82-1.56 12-1.85q10-0.47 13-2.12c2.15-1.18 5.56-1.66 12-1.68 6.6-0.02 9.4-0.43 10.5-1.52 1.03-1.02 3.71-1.51 8.5-1.56 3.96-0.03 8.19-0.68 9.75-1.48 1.51-0.78 4.32-1.42 6.25-1.42 2.52 0 3.61-0.49 3.88-1.75 0.37-1.67 0.39-1.67 0.5 0 0.1 1.47 0.98 1.71 5.5 1.5 3.3-0.15 6.11-0.89 7.25-1.91 1.57-1.4 4.54-1.69 18.37-1.82 11.9-0.11 17.48-0.56 20-1.61 2.43-1.01 7.34-1.46 16-1.47 8.99-0.01 13.2-0.41 15-1.44 1.5-0.85 5.31-1.44 9.5-1.46 4.54-0.01 7.79-0.56 9.25-1.53 1.26-0.84 6.05-1.84 10.85-2.26 4.87-0.43 9.09-1.31 9.75-2.04 0.8-0.91 4.04-1.27 10.65-1.21 7.47 0.07 9.82-0.25 11-1.5 1.09-1.16 3.33-1.58 8.25-1.54 5.64 0.03 6.81-0.25 7.13-1.71 0.37-1.67 0.39-1.67 0.5 0 0.08 1.21 0.97 1.75 2.87 1.76 1.51 0 3.65-0.61 4.75-1.35 1.1-0.75 5.37-1.68 9.5-2.06 4.12-0.38 7.82-1.23 8.22-1.89 0.41-0.71 3.74-1.36 8-1.58q7.29-0.36 8.03-1.75c0.52-0.95 2.7-1.38 7-1.37 3.66 0 7.08-0.56 8.25-1.36 1.1-0.76 5.21-1.55 9.13-1.76 4.94-0.27 7.7-0.92 9-2.11 1.06-0.98 3.49-1.74 5.62-1.75 2.06-0.02 5.09-0.82 6.72-1.78 1.64-0.96 3.16-2.43 3.39-3.25 0.31-1.13 0.44-1.07 0.52 0.25 0.07 0.96 0.68 1.77 1.37 1.79 0.69 0.03 1.93-0.67 2.75-1.54 0.96-1.01 3.13-1.57 6-1.54 2.67 0.03 6.02-0.77 8.25-1.96 2.3-1.23 5.59-1.98 8.5-1.96 3.09 0.03 5.27-0.51 6.25-1.54 0.82-0.87 2.62-1.55 4-1.5 1.37 0.05 3.18-0.63 4-1.5 0.82-0.87 2.74-1.57 4.25-1.54 1.55 0.02 3.51-0.84 4.5-1.97 1.24-1.43 2.98-2.01 6-2 2.9 0.01 4.41-0.47 4.75-1.49 0.36-1.09 2-1.5 6-1.5 4 0 5.64-0.41 6-1.5 0.28-0.82 1.62-1.5 3-1.5 1.37 0 3.29-0.9 4.25-2.01 0.96-1.1 2.54-2 3.5-2 0.96 0.01 1.75-0.44 1.75-0.99 0-0.55 0.45-0.78 1-0.5 0.55 0.28 1 0.05 1-0.5 0-0.55 1.12-1 2.5-1 1.57 0 2.64-0.65 2.88-1.75 0.37-1.67 0.39-1.67 0.5 0 0.07 0.96 0.8 1.75 1.62 1.75 0.82 0 1.72-0.68 2-1.5 0.28-0.82 1.51-1.5 2.75-1.5 1.24 0.01 3.94-0.89 6-2 2.06-1.1 4.31-1.98 5-1.96 0.69 0.03 1.93-0.67 2.75-1.54 0.82-0.87 2.51-1.57 3.75-1.54 1.24 0.02 2.47-0.64 2.75-1.46 0.28-0.82 1.51-1.48 2.75-1.46 1.24 0.03 2.93-0.66 3.75-1.52 0.82-0.87 2.85-1.85 4.5-2.18 1.65-0.33 3.9-1.22 5-1.98 1.1-0.75 2.79-1.37 3.75-1.37 0.96 0.01 2.31-0.89 3-1.99 0.69-1.1 1.47-1.76 1.75-1.47 0.28 0.28 1.18-0.19 2-1.05 0.82-0.86 2.29-1.55 3.25-1.52 0.96 0.02 2.54-0.86 3.5-1.97 0.96-1.1 2.76-2 4-2 1.24 0.01 2.47-0.67 2.75-1.49 0.28-0.82 1.4-1.5 2.5-1.5 1.1 0 3.24-0.92 4.75-2.03 1.51-1.12 3.2-2.02 3.75-2 0.55 0.03 2.46-1.31 4.25-2.96 1.79-1.66 4.15-3.01 5.25-3.01 1.1 0 2.22-0.68 2.5-1.5 0.28-0.82 1.62-1.5 3-1.5 1.37 0 3.07-0.79 3.77-1.75 0.69-0.96 2.15-2.31 3.25-3 1.09-0.69 2.99-1.7 4.23-2.25 1.24-0.55 2.47-1.45 2.75-2 0.28-0.55 1.4-1 2.5-1 1.1 0 3.57-1.57 5.5-3.5 1.93-1.93 4.06-3.49 4.75-3.48 0.69 0.01 3.05-1.59 5.25-3.54 2.2-1.96 4.45-3.53 5-3.5 0.55 0.03 3.59-2.21 6.75-4.96 3.16-2.76 6.4-5.02 7.19-5.02 0.8 0 4.37-2.93 7.95-6.5 3.78-3.78 7.36-6.5 8.55-6.5 1.35 0 2.49-1.04 3.31-3.01 0.69-1.65 1.81-3 2.5-3 0.69 0.01 6.11-4.83 12.05-10.74 5.93-5.91 12.35-13.2 14.25-16.18 1.9-2.99 4.61-6.14 6.03-7 1.41-0.87 4-2.81 5.75-4.32 1.74-1.51 3.17-3.43 3.17-4.25 0-0.88 0.94-1.52 2.25-1.54 1.51-0.03 5.77-3.63 13-11 5.91-6.03 10.75-11.41 10.75-11.96 0-0.55 0.45-1 1-1 0.55 0 1.56-1.81 2.25-4.02 0.69-2.22 1.81-4.02 2.5-4 0.69 0.01 1.25-0.88 1.25-1.98 0-1.1 0.34-1.99 0.75-1.99 0.41 0.01 2.44-2.24 4.5-5 2.06-2.75 3.75-5.57 3.75-6.26-0.01-0.69 0.89-1.81 2-2.5 1.1-0.69 2-2.04 2-3 0-0.96 2.01-4 4.48-6.75 2.47-2.75 4.48-5.45 4.47-6-0.01-0.55 0.9-2.24 2.02-3.75 1.11-1.51 2.03-3.42 2.03-4.25 0-0.83 0.72-2.29 1.6-3.25 0.87-0.96 3.12-4.11 5-7 1.87-2.89 3.38-5.81 3.36-6.5-0.03-0.69 0.67-1.92 1.54-2.75 0.87-0.83 1.57-2.29 1.54-3.25-0.02-0.96 0.86-2.65 1.96-3.75 1.1-1.1 2-2.67 2-3.5 0-0.83 0.68-2.17 1.5-3 0.82-0.83 1.48-2.29 1.46-3.25-0.03-0.96 0.67-2.42 1.54-3.25 0.87-0.83 1.57-2.51 1.54-3.75-0.02-1.24 0.64-2.47 1.46-2.75 0.82-0.28 1.5-1.17 1.5-2 0-0.83-0.56-1.69-1.25-1.92-0.69-0.23-0.46-0.46 0.5-0.5 1.37-0.06 1.62-0.67 1.17-2.83-0.32-1.51-0.21-2.42 0.25-2.01 0.46 0.41 1.41 0.19 2.12-0.5 0.72-0.68 1.29-2.14 1.28-3.24-0.01-1.1 0.76-2.82 1.71-3.81 1.51-1.59 1.53-1.93 0.22-2.74q-1.49-0.91-0.25-0.93c0.69-0.01 1.23-0.58 1.21-1.27-0.03-0.69 0.67-1.92 1.54-2.75 0.88-0.83 1.8-2.85 2.05-4.5 0.25-1.65 1.14-3.67 1.99-4.5 0.86-0.83 1.51-3.05 1.46-5-0.05-2 0.59-4.14 1.5-5 0.87-0.83 1.57-2.96 1.54-4.75-0.02-1.79 0.6-4.49 1.38-6 0.78-1.51 2.19-5 3.13-7.75 0.93-2.75 1.87-7.25 2.09-10 0.21-2.75 1.07-5.67 1.92-6.5 1.06-1.04 1.5-3.33 1.44-7.5-0.06-4.28 0.37-6.43 1.5-7.5 1.19-1.12 1.58-3.41 1.55-9-0.03-5.77 0.41-8.19 1.9-10.5 1.56-2.4 1.96-4.89 2.02-12.5 0.05-6.87 0.48-9.92 1.53-11 1.07-1.11 1.46-4.24 1.51-12 0.04-7.65 0.46-11.04 1.54-12.5 1.24-1.67 1.48-6.97 1.43-32-0.04-24.1-0.33-30.49-1.48-32.5-1.08-1.89-1.43-6.52-1.42-19 0.01-13.5-0.27-16.77-1.52-18-1.14-1.11-1.6-4.14-1.8-11.79-0.2-7.85-0.61-10.51-1.76-11.21-1.06-0.66-1.58-3.05-1.77-8.22-0.19-4.89-0.78-7.77-1.8-8.78-1.02-1.01-1.5-3.38-1.47-7.25 0.03-4.25-0.35-5.88-1.46-6.25-1.12-0.37-1.5-2.08-1.49-6.75 0-3.83-0.55-7.02-1.42-8.25-0.79-1.1-1.76-4.03-2.16-6.5-0.4-2.47-1.34-5.4-2.09-6.5-0.74-1.1-1.33-3.58-1.3-5.5 0.03-1.96-0.65-4.16-1.54-5-0.99-0.93-1.57-3.11-1.54-5.75 0.02-2.34-0.56-4.81-1.29-5.5-0.73-0.69-1.65-3.95-2.04-7.25-0.39-3.3-1.37-7.01-2.17-8.25-0.8-1.24-1.45-4.39-1.43-7 0.02-3.5-0.57-5.47-2.25-7.5-1.38-1.67-3.67-2.99-5.78-3.33-2.9-0.48-4.09-0.08-6.9 2.34z"/>
</svg>