<?xml version="1.0" encoding="UTF-8" standalone="no"?>
<svg
   version="1.2"
   viewBox="0 0 3000 3000"
   width="3000"
   height="3000"
   id="svg1"
   sodipodi:docname="primary-w.svg"
   xml:space="preserve"
   inkscape:version="1.3 (0e150ed6c4, 2023-07-21)"
   xmlns:inkscape="http://www.inkscape.org/namespaces/inkscape"
   xmlns:sodipodi="http://sodipodi.sourceforge.net/DTD/sodipodi-0.dtd"
   xmlns="http://www.w3.org/2000/svg"
   xmlns:svg="http://www.w3.org/2000/svg"><defs
     id="defs1" /><sodipodi:namedview
     id="namedview1"
     pagecolor="#ffffff"
     bordercolor="#000000"
     borderopacity="0.25"
     inkscape:showpageshadow="2"
     inkscape:pageopacity="0.0"
     inkscape:pagecheckerboard="0"
     inkscape:deskcolor="#d1d1d1"
     inkscape:zoom="0.49356053"
     inkscape:cx="1269.3478"
     inkscape:cy="1739.4016"
     inkscape:window-width="2560"
     inkscape:window-height="1351"
     inkscape:window-x="2391"
     inkscape:window-y="621"
     inkscape:window-maximized="1"
     inkscape:current-layer="svg1" /><style
     id="style1">&#10;		.s0 { fill: #9576d1 } &#10;		.s1 { fill: #a990da } &#10;		.s2 { fill: #c0aee4 } &#10;		.s3 { fill: #f5f5f5 } &#10;	</style><style
     id="style1-2">&#10;		.s0 { fill: #9476d1 } &#10;		.s1 { fill: #a890da } &#10;		.s2 { fill: #c0aee4 } &#10;	</style><g
     id="Background-3"
     transform="matrix(0.33534054,0,0,0.33534054,508.89745,990.73761)"
     inkscape:label="logo"><path
       style="display:inline;fill:#c0aee4;fill-opacity:1"
       d="m 1498.2344,2257.9531 9.8437,-0.047 393.4536,-757.7239 -1.5247,0.088 -46.8569,66.3244 z"
       id="path1"
       inkscape:label="path2.1" /><path
       id="path4"
       style="display:inline;fill:#9476d1;fill-opacity:1"
       inkscape:label="path0.3"
       d="m 1879,1492 -43,3 -338.875,762.7188 3.3867,0.2773 c 0,0 -4e-4,-0.01 0.01,-0.012 0.017,-0.028 0.037,-0.057 0.053,-0.086 0.019,-0.032 0.036,-0.063 0.055,-0.094 0.023,-0.038 0.047,-0.075 0.07,-0.1133 0.028,-0.047 0.057,-0.095 0.084,-0.1426 0.031,-0.055 0.063,-0.11 0.094,-0.166 0.03,-0.055 0.058,-0.111 0.084,-0.168 0.02,-0.047 0.042,-0.097 0.059,-0.1445 0.011,-0.033 0.022,-0.065 0.039,-0.096 0.01,-0.013 0.015,-0.019 0.023,-0.019 0.012,9e-4 0.021,0.018 0.01,0.039 -0.01,0.011 -0.01,0.024 -0.014,0.035 l 400.4942,-756.8301 -1.461,-2.5039 z" /><path
       style="fill:#9476d1;fill-opacity:1"
       d="m 1499.9336,741.92187 h -0.5664 v 0.3086 l 0.7773,-0.0664 z"
       id="path3"
       inkscape:label="path0.2" /><path
       style="fill:#9476d1;fill-opacity:1"
       d="m 1900.8359,1500.5313 0.3086,-0.3282 -0.1797,-0.3281 -6.7804,-17.6687 -393.118,-740.13208 -1.0039,-0.0352 -0.1094,-0.0351 -0.4687,-0.082 -0.4102,0.9375 L 1896.5,1502.25 Z"
       id="path2"
       inkscape:label="path0.1" /><path
       id="Path 1-0"
       class="s1"
       d="m 1502.4625,747.16894 c 1.4734,2.89131 49.7787,94.17202 107.352,202.84053 57.5733,108.67843 132.7071,250.49173 166.9687,315.14073 34.271,64.6588 76.246,143.984 93.2863,176.2881 17.0512,32.305 31.226,58.7467 31.497,58.7667 0.2802,0.02 47.1643,-88.0594 104.1856,-195.7174 57.0322,-107.6679 107.863,-203.6707 112.9622,-213.3453 l 9.2767,-17.5776 c -15.9882,-22.4802 -23.9627,-33.2949 -28.0406,-38.5174 -4.0667,-5.2224 -11.7201,-14.6563 -16.9903,-20.9592 -5.2689,-6.303 -13.8247,-16.20732 -19.0137,-22.00986 -5.189,-5.80263 -18.0326,-19.10854 -28.5506,-29.57321 -10.519,-10.45466 -24.9848,-24.13077 -32.1482,-30.38353 -7.1626,-6.26283 -17.5305,-15.0768 -23.0406,-19.58876 -5.5101,-4.51206 -16.3291,-12.94576 -24.0436,-18.74837 -7.7136,-5.79258 -21.6883,-15.71706 -31.0552,-22.04985 -9.3668,-6.33287 -24.9147,-16.23725 -34.5618,-22.00982 -9.6368,-5.76256 -24.9646,-14.44643 -34.0605,-19.27865 -9.0868,-4.84211 -23.7427,-12.15537 -32.5585,-16.2672 -8.8158,-4.11184 -22.7905,-10.28458 -31.0551,-13.72613 -8.2655,-3.44155 -21.1081,-8.51382 -28.5515,-11.27503 -7.4335,-2.76124 -21.1881,-7.50334 -30.5549,-10.5447 -9.3659,-3.03135 -23.5616,-7.30328 -31.5563,-9.49426 -7.9837,-2.19096 -22.4095,-5.81256 -32.0572,-8.03358 -9.6369,-2.231 -23.8426,-5.2123 -31.5562,-6.62295 -7.7136,-1.41062 -21.6892,-3.66161 -31.0552,-5.00222 -9.3669,-1.34062 -24.0136,-3.13138 -32.5583,-3.98177 -8.5357,-0.84039 -23.6427,-2.00091 -33.5606,-2.56116 -9.9178,-0.57024 -23.3416,-1.03046 -29.8327,-1.02045 h -11.7914 z"
       style="display:inline;stroke-width:1.00111" /><path
       id="Path 0-4"
       class="s0"
       d="m 1455.5,743.11 c -7.7,0.45 -21.2,1.54 -30,2.41 -8.8,0.88 -23.65,2.7 -33,4.04 -9.35,1.34 -23.3,3.59 -31,5 -7.7,1.41 -21.88,4.39 -31.5,6.62 -9.63,2.22 -24.03,5.84 -32,8.03 -7.97,2.19 -22.15,6.46 -31.5,9.49 -9.35,3.04 -23.08,7.78 -30.5,10.54 -7.42,2.76 -20.25,7.83 -28.5,11.27 -8.25,3.44 -22.2,9.61 -31,13.72 -8.8,4.11 -23.42,11.42 -32.5,16.26 -9.08,4.83 -24.38,13.51 -34,19.27 -9.63,5.77 -25.15,15.67 -34.5,22 -9.35,6.33 -23.3,16.25 -31,22.04 -7.7,5.8 -18.5,14.23 -24,18.74 -5.5,4.51 -15.85,13.31 -23,19.55 -7.15,6.24 -22.24,20.59 -33.53,31.88 -11.29,11.29 -25.64,26.38 -31.88,33.53 -6.24,7.15 -15.04,17.5 -19.55,23 -4.51,5.5 -12.94,16.3 -18.74,24 -5.79,7.7 -15.71,21.65 -22.04,31 -6.33,9.35 -16.23,24.87 -22,34.5 -5.76,9.62 -14.44,24.92 -19.27,34 -4.84,9.08 -12.15,23.7 -16.26,32.5 -4.11,8.8 -10.28,22.75 -13.72,31 -3.44,8.25 -8.51,21.08 -11.27,28.5 -2.76,7.42 -7.5,21.15 -10.54,30.5 -3.03,9.35 -7.3,23.53 -9.49,31.5 -2.19,7.97 -5.81,22.37 -8.03,32 -2.23,9.62 -5.21,23.8 -6.62,31.5 -1.41,7.7 -3.66,21.65 -5,31 -1.34,9.35 -3.13,23.97 -3.98,32.5 -0.84,8.53 -2,23.6 -2.56,33.5 -0.57,9.9 -1.03,28.58 -1.03,41.5 0,12.92 0.46,31.6 1.03,41.5 0.56,9.9 1.72,24.97 2.56,33.5 0.85,8.53 2.64,23.15 3.98,32.5 1.34,9.35 3.59,23.3 5,31 1.41,7.7 4.39,21.87 6.62,31.5 2.22,9.62 5.84,24.03 8.03,32 2.19,7.97 6.46,22.15 9.49,31.5 3.04,9.35 7.78,23.08 10.54,30.5 2.76,7.42 7.83,20.25 11.27,28.5 3.44,8.25 9.61,22.2 13.72,31 4.11,8.8 11.42,23.42 16.26,32.5 4.83,9.08 13.51,24.37 19.27,34 5.77,9.62 15.67,25.15 22,34.5 6.33,9.35 16.25,23.3 22.04,31 5.8,7.7 14.23,18.5 18.74,24 4.51,5.5 13.31,15.85 19.55,23 6.24,7.15 20.59,22.24 31.88,33.53 11.29,11.29 26.38,25.64 33.53,31.88 7.15,6.24 17.5,15.04 23,19.55 5.5,4.51 16.3,12.94 24,18.74 7.7,5.79 21.65,15.71 31,22.04 9.35,6.33 24.88,16.23 34.5,22 9.63,5.76 24.92,14.44 34,19.27 9.08,4.84 23.7,12.15 32.5,16.26 8.8,4.11 22.75,10.28 31,13.72 8.25,3.44 21.08,8.51 28.5,11.27 7.42,2.76 21.15,7.5 30.5,10.54 9.35,3.03 23.53,7.3 31.5,9.49 7.97,2.19 22.38,5.81 32,8.03 9.63,2.23 23.8,5.21 31.5,6.62 7.7,1.41 21.65,3.66 31,5 9.35,1.34 23.97,3.13 32.5,3.98 8.53,0.84 23.6,2 33.5,2.56 9.9,0.57 23.4,1.03 30,1.03 l 12,0.01 c 1.7,-4.28 90.27,-172.02 197.93,-375.52 107.66,-203.5 197.25,-372.7 199.09,-376 l 3.34,-6 c -46.6,-88.35 -110.84,-209.85 -172.84,-327 -61.99,-117.15 -138.76,-262.18 -170.61,-322.29 L 1499.5,741.92 c -23.25,0.29 -36.3,0.74 -44,1.19 z"
       style="display:inline" /><path
       id="Path 2-0"
       style="display:inline"
       class="s2"
       d="m 1901.5605,1500.1895 c -0.11,-0.17 -2.0314,2.98 -4.2714,7 -2.24,4.0199 -92.2991,174.1412 -200.1289,378.041 -107.8199,203.8998 -196.0697,371.18 -196.0997,371.75 -0.04,0.64 4.1495,1.0195 11.1895,1.0195 6.19,0.01 19.35,-0.4495 29.25,-1.0195 9.9,-0.56 24.97,-1.7206 33.5,-2.5606 8.53,-0.85 23.15,-2.6404 32.5,-3.9804 9.35,-1.34 23.3,-3.59 31,-5 7.7,-1.41 21.88,-4.3892 31.5,-6.6192 9.63,-2.22 24.03,-5.8412 32,-8.0312 7.97,-2.19 22.15,-6.4583 31.5,-9.4883 9.35,-3.04 23.08,-7.781 30.5,-10.541 7.42,-2.76 20.25,-7.8296 28.5,-11.2696 8.25,-3.44 22.2,-9.6107 31,-13.7207 8.8,-4.11 23.42,-11.4197 32.5,-16.2597 9.08,-4.83 24.38,-13.5096 34,-19.2696 9.63,-5.77 25.15,-15.67 34.5,-22 9.35,-6.33 23.3,-16.251 31,-22.041 7.7,-5.8 18.5,-14.2283 24,-18.7383 5.5,-4.51 15.85,-13.32 23,-19.58 7.15,-6.25 21.5899,-19.9211 32.0898,-30.3711 10.5,-10.46 23.32,-23.7606 28.5,-29.5606 5.18,-5.8 13.7205,-15.7 18.9805,-22 5.26,-6.3 12.899,-15.7292 16.959,-20.9492 4.07,-5.22 12.0216,-15.91 17.6816,-23.75 L 2127,1927 c -4.09,-8.14 -54.7698,-104.1001 -115.2598,-218.5 -60.4899,-114.3999 -110.0697,-208.1405 -110.1797,-208.3105 z" /></g><g
     id="Background"
     inkscape:label="ylro"
     transform="translate(5.092732e-6)"><path
       id="Path 3"
       fill-rule="evenodd"
       class="s3"
       d="m2091 1389.1c9.99-0.05 20.44 0.5 26.5 1.41 5.5 0.82 14.28 2.68 19.5 4.14 5.22 1.46 13.32 4.28 18 6.26 4.68 1.99 11.88 5.54 16 7.88 4.13 2.35 10.65 6.6 14.5 9.45 3.85 2.85 10.82 9.06 15.5 13.79 4.68 4.74 11.36 12.63 14.86 17.54 3.49 4.91 8.96 14.33 12.14 20.93 3.18 6.6 6.73 14.93 7.89 18.5 1.16 3.58 3.22 11.45 4.58 17.5 1.37 6.05 3.02 17.3 3.69 25 0.92 10.82 0.93 17.29 0.02 28.5-0.65 7.98-2.31 19.45-3.68 25.5-1.38 6.05-3.45 13.93-4.61 17.5-1.16 3.58-4.71 11.9-7.89 18.5-3.18 6.6-8.65 16.02-12.14 20.93-3.5 4.91-10.18 12.8-14.86 17.54-4.68 4.73-11.65 10.94-15.5 13.79-3.85 2.85-10.38 7.1-14.5 9.45-4.12 2.34-11.32 5.89-16 7.88-4.68 1.98-12.78 4.8-18 6.26-5.22 1.46-14 3.32-19.5 4.14-5.56 0.84-16.88 1.5-25.5 1.5-8.71 0-19.88-0.66-25.5-1.51-5.5-0.83-14.28-2.67-19.5-4.1-5.22-1.43-13.33-4.24-18-6.25-4.67-2.01-11.88-5.58-16-7.92-4.12-2.35-10.65-6.6-14.5-9.46-3.85-2.85-10.83-9.04-15.5-13.76-4.67-4.72-11.06-12.16-14.19-16.54-3.13-4.37-8.17-12.67-11.19-18.45-3.03-5.77-7.09-15.22-9.03-21-1.94-5.77-4.44-14.77-5.55-20-1.11-5.22-2.56-16.02-3.21-24-0.9-11.15-0.9-17.73 0-28.5 0.65-7.7 2.1-18.27 3.21-23.5 1.11-5.22 3.61-14.22 5.55-20 1.94-5.77 6-15.22 9.03-21 3.02-5.77 8.06-14.06 11.19-18.42 3.13-4.35 9.52-11.79 14.19-16.53 4.67-4.75 11.65-10.96 15.5-13.81 3.85-2.85 10.38-7.1 14.5-9.45 4.13-2.34 11.33-5.89 16-7.88 4.67-1.98 12.78-4.81 18-6.27 5.22-1.46 13.55-3.29 18.5-4.05 4.95-0.77 16.43-1.44 25.5-1.49zm-25.25 85.32c-2.89 1.34-8.13 4.6-11.65 7.25-3.51 2.66-8.4 7.53-10.86 10.83-2.46 3.3-5.99 9.04-7.85 12.75-1.87 3.71-4.29 10.01-5.4 14-1.11 3.99-2.37 11.53-2.82 16.75-0.44 5.23-0.47 13.55-0.07 18.5 0.4 4.95 1.47 11.93 2.37 15.5 0.91 3.58 3.71 10.78 6.23 16 3.81 7.92 5.92 10.84 12.69 17.54 4.73 4.69 10.61 9.35 14.11 11.2 3.3 1.74 9.6 4.09 14 5.22 4.6 1.19 11.19 2.06 15.5 2.06 4.31 0 10.9-0.87 15.5-2.06 4.4-1.13 10.7-3.48 14-5.22 3.5-1.85 9.38-6.51 14.11-11.2 6.77-6.7 8.88-9.62 12.69-17.54 2.52-5.22 5.32-12.42 6.24-16 0.91-3.57 1.96-10.77 2.33-16 0.38-5.22 0.38-13.32 0.01-18-0.37-4.67-1.65-12.1-2.85-16.5-1.19-4.4-3.93-11.37-6.08-15.5-2.16-4.12-6.06-10.09-8.68-13.25-2.62-3.16-7.24-7.58-10.27-9.82-3.03-2.25-7.75-5.14-10.5-6.44-2.75-1.3-7.93-3.06-11.5-3.91-3.57-0.85-10.55-1.52-15.5-1.48-4.95 0.04-11.59 0.7-14.75 1.48-3.16 0.78-8.11 2.51-11 3.84zm-722.49-77.92l30.96 97c17.02 53.35 31.25 97.32 31.62 97.72 0.36 0.4 12.87-43.25 54.91-194.72l46.54-0.26c25.59-0.14 46.57-0.03 46.62 0.25 0.05 0.28-28.71 78.92-63.91 174.76-39.23 106.82-66.16 178.7-69.58 185.75-3.07 6.33-8.12 15.33-11.22 20-3.1 4.68-9.53 12.55-14.29 17.5-4.76 4.95-11.98 11.24-16.04 13.97-4.05 2.74-10.74 6.44-14.87 8.23-4.12 1.79-10.65 3.97-14.5 4.84-3.85 0.87-8.78 1.44-14.92 0.96l-39.26-76 7.59-1.1c4.17-0.61 10.06-1.9 13.09-2.88 3.03-0.97 8.42-3.28 12-5.12 3.58-1.85 9.2-5.52 12.5-8.16 3.3-2.65 8.03-7.49 10.52-10.77 2.48-3.29 7.15-11.82 16.21-31.97l-59.09-144.5c-32.51-79.47-59.1-144.84-59.11-145.26-0.01-0.42 21.19-0.64 94.23-0.24zm244.74-108.5h84v408h-84zm307 101.24c4.12 0.41 11.21 1.87 15.75 3.25 4.54 1.38 8.47 3.07 8.73 3.76 0.27 0.69-1.87 21.79-4.75 46.9-2.88 25.11-5.57 45.92-5.98 46.25-0.41 0.33-2.89-0.32-5.5-1.45-2.61-1.13-8.13-2.93-12.25-4-4.13-1.07-10.65-2.22-14.5-2.56-3.88-0.35-10.34-0.1-14.5 0.56-4.13 0.65-10.65 2.64-14.5 4.42-4.44 2.05-9.02 5.22-12.53 8.68-3.26 3.21-6.84 8.12-8.73 11.95-1.76 3.58-3.98 9.2-4.94 12.5-1.59 5.46-1.77 13.61-2.3 176.5h-85v-300l66.25 0.5 5.89 15.5c3.23 8.53 6.36 16.63 6.95 18 1.04 2.46 1.1 2.42 3.57-2.5 1.38-2.75 4.38-7.43 6.67-10.41 2.29-2.98 6.87-7.6 10.17-10.27 3.3-2.67 9.37-6.6 13.5-8.74 4.12-2.14 10.87-4.9 15-6.13 4.12-1.23 11.55-2.51 16.5-2.84 4.95-0.34 12.37-0.28 16.5 0.13z" /></g></svg>
