<?xml version="1.0" encoding="UTF-8" standalone="no"?>
<!-- Created with Inkscape (http://www.inkscape.org/) -->

<svg
   width="3000"
   height="3000"
   viewBox="0 0 793.74998 793.75"
   version="1.1"
   id="svg1"
   xml:space="preserve"
   inkscape:version="1.3 (0e150ed6c4, 2023-07-21)"
   sodipodi:docname="submark.svg"
   xmlns:inkscape="http://www.inkscape.org/namespaces/inkscape"
   xmlns:sodipodi="http://sodipodi.sourceforge.net/DTD/sodipodi-0.dtd"
   xmlns="http://www.w3.org/2000/svg"
   xmlns:svg="http://www.w3.org/2000/svg"><sodipodi:namedview
     id="namedview1"
     pagecolor="#ffffff"
     bordercolor="#000000"
     borderopacity="0.25"
     inkscape:showpageshadow="2"
     inkscape:pageopacity="0.0"
     inkscape:pagecheckerboard="0"
     inkscape:deskcolor="#d1d1d1"
     inkscape:document-units="mm"
     inkscape:zoom="0.25"
     inkscape:cx="724"
     inkscape:cy="1574"
     inkscape:window-width="2560"
     inkscape:window-height="1351"
     inkscape:window-x="2391"
     inkscape:window-y="621"
     inkscape:window-maximized="1"
     inkscape:current-layer="svg1" /><defs
     id="defs1" /><path
     id="circle3"
     style="display:inline;fill:#9476d1;fill-opacity:1;stroke-width:0.577613"
     inkscape:label="shap1"
     d="m 394.7511,196.22678 a 200.81,200.81 0 0 0 -200.80997,200.80997 200.81,200.81 0 0 0 200.80997,200.81048 200.81,200.81 0 0 0 0.85473,-0.061 l 105.80646,-200.20277 -105.9801,-200.38673 -0.42891,-0.96377 a 200.81,200.81 0 0 0 -0.25218,-0.006 z" /><path
     id="path8"
     style="display:inline;fill:#c0aee4;fill-opacity:1;stroke-width:0.264583"
     inkscape:label="shape2"
     d="M 501.41229 397.584 L 501.15649 398.06459 L 501.15597 398.06459 L 501.14047 398.09508 L 501.09965 398.17156 L 501.09965 398.17415 L 501.09965 398.17466 L 395.60583 597.78625 A 200.81 200.81 0 0 0 423.22016 595.70317 A 200.81 200.81 0 0 0 560.12653 510.2686 L 560.1317 510.27841 L 560.25521 510.11822 L 560.26038 510.1208 L 563.69117 505.4539 L 501.41229 397.584 z " /><path
     id="path6"
     style="display:inline;fill:#a890da;fill-opacity:1;stroke-width:0.579966"
     inkscape:label="shape3"
     d="m 394.69293,196.22157 0.42971,0.9637 106.28254,200.41266 60.51797,-112.35568 A 202.78158,200.47597 0.11187172 0 0 394.69293,196.22157 Z m -27.97637,1.85342 a 202.78158,200.47597 0.11187172 0 0 -8.98036,1.7328 202.78158,200.47597 0.11187172 0 1 8.98036,-1.7328 z m -27.20031,5.58261 a 202.78158,200.47597 0.11187172 0 0 -10.37612,3.44105 202.78158,200.47597 0.11187172 0 1 10.37612,-3.44105 z m -26.18386,9.20587 a 202.78158,200.47597 0.11187172 0 0 -10.46395,5.05497 202.78158,200.47597 0.11187172 0 1 10.46395,-5.05497 z m -24.6788,12.66212 a 202.78158,200.47597 0.11187172 0 0 -9.98472,6.54462 202.78158,200.47597 0.11187172 0 1 9.98472,-6.54462 z m -22.71392,15.89423 a 202.78158,200.47597 0.11187172 0 0 -9.14354,7.87033 202.78158,200.47597 0.11187172 0 1 9.14354,-7.87033 z m -20.33093,18.85106 a 202.78158,200.47597 0.11187172 0 0 -8.02666,8.98262 202.78158,200.47597 0.11187172 0 1 8.02666,-8.98262 z m -17.5762,21.50048 a 202.78158,200.47597 0.11187172 0 0 -6.68958,9.82093 202.78158,200.47597 0.11187172 0 1 6.68958,-9.82093 z m -14.48603,23.81652 a 202.78158,200.47597 0.11187172 0 0 -5.19208,10.31592 202.78158,200.47597 0.11187172 0 1 5.19208,-10.31592 z m -11.13347,25.89366 a 202.78158,200.47597 0.11187172 0 0 -3.5568,10.23794 202.78158,200.47597 0.11187172 0 1 3.5568,-10.23794 z m -7.58229,28.22249 a 202.78158,200.47597 0.11187172 0 0 -1.81733,8.86549 202.78158,200.47597 0.11187172 0 1 1.81733,-8.86549 z m -2.01591,63.66401 a 202.78158,200.47597 0.11187172 0 0 1.75406,8.88506 202.78158,200.47597 0.11187172 0 1 -1.75406,-8.88506 z m 286.71105,14.85095 -85.67722,158.8875 a 202.78158,200.47597 0.11187172 0 0 0.12265,-0.008 l -0.0181,-0.006 z m -281.063,12.04036 a 202.78158,200.47597 0.11187172 0 0 3.48046,10.25893 202.78158,200.47597 0.11187172 0 1 -3.48046,-10.25893 z m 9.3124,25.88763 a 202.78158,200.47597 0.11187172 0 0 5.11513,10.34835 202.78158,200.47597 0.11187172 0 1 -5.11513,-10.34835 z m 12.8094,24.39785 a 202.78158,200.47597 0.11187172 0 0 6.61979,9.87135 202.78158,200.47597 0.11187172 0 1 -6.61979,-9.87135 z m 16.081,22.46046 a 202.78158,200.47597 0.11187172 0 0 7.95247,9.0306 202.78158,200.47597 0.11187172 0 1 -7.95247,-9.0306 z m 19.07037,20.1021 a 202.78158,200.47597 0.11187172 0 0 9.07849,7.92856 202.78158,200.47597 0.11187172 0 1 -9.07849,-7.92856 z m 21.74427,17.37332 a 202.78158,200.47597 0.11187172 0 0 9.93649,6.6146 202.78158,200.47597 0.11187172 0 1 -9.93649,-6.6146 z m 24.09379,14.32295 a 202.78158,200.47597 0.11187172 0 0 10.42646,5.12989 202.78158,200.47597 0.11187172 0 1 -10.42646,-5.12989 z m 26.1962,11.00944 a 202.78158,200.47597 0.11187172 0 0 10.34833,3.51438 202.78158,200.47597 0.11187172 0 1 -10.34833,-3.51438 z m 28.5399,7.49478 a 202.78158,200.47597 0.11187172 0 0 8.96757,1.79714 202.78158,200.47597 0.11187172 0 1 -8.96757,-1.79714 z" /></svg>
