<svg version="1.2" xmlns="http://www.w3.org/2000/svg" viewBox="0 0 3072 2048" width="3072" height="2048">
	<style>
		.s0 { fill: #ffffff } 
	</style>
	<path id="Path 0" fill-rule="evenodd" class="s0" d="m918 763l8.25 3.82c5.46 2.53 9.41 5.16 11.68 7.75 1.89 2.16 4.7 6.74 6.25 10.18 2.81 6.23 2.82 6.31 2.82 27.75 0 11.83-0.34 21.7-0.75 21.95-0.41 0.25-78.83 0.47-174.25 0.51-136.71 0.04-173.85 0.32-175.16 1.3-1.48 1.11-0.72 2.66 7.24 14.74 4.89 7.42 10.65 16.2 12.8 19.5 2.14 3.3 7.45 11.4 11.78 18 4.34 6.6 9.09 14.02 10.56 16.5 2.36 3.99 2.52 4.78 1.37 7-0.72 1.38-4.56 7.67-8.54 14-3.98 6.33-9.33 14.56-11.9 18.3-2.56 3.73-5.1 6.78-5.65 6.77-0.55-0.01-5.27-6.61-10.5-14.66-5.23-8.05-18.05-27.68-28.5-43.62-10.45-15.95-24.14-36.93-30.43-46.64-6.29-9.71-13.02-20.13-14.95-23.15-1.93-3.02-10.07-15.4-18.09-27.5-8.03-12.1-15.59-23.69-16.81-25.75-1.71-2.88-1.96-4.1-1.11-5.25 0.98-1.33 25.76-1.5 423.89-1.5zm-466.07 8.21c0.87 0.16 2.36 1.87 3.32 3.79q1.75 3.5 1.74 10.5c0 6.73 0.2 7.31 5.25 15.26 2.9 4.55 6.39 10 7.76 12.13 1.38 2.12 4.7 7.18 7.39 11.23 2.69 4.06 8.05 12.33 11.92 18.38 3.86 6.05 12.49 19.33 19.19 29.5 6.7 10.17 12.78 19.62 13.51 21 0.74 1.37 6.8 10.83 13.49 21 6.68 10.17 18.19 27.78 25.57 39.13 7.39 11.35 18.34 28.22 24.35 37.5 6.01 9.28 13.26 20.47 16.11 24.87 2.86 4.4 8.74 13.47 13.08 20.15 4.34 6.68 12.62 19.47 18.39 28.42 5.77 8.96 15.69 24.19 22.02 33.86 6.34 9.66 13.09 20.16 18.48 29.1l58.68-0.02c54.55-0.01 58.8-0.13 60.41-1.76 0.95-0.96 2.41-2.88 3.26-4.25 0.84-1.38 4.94-7.67 9.12-14 4.17-6.33 9.57-14.88 12-19 2.43-4.13 5.68-9.19 7.23-11.25 1.54-2.06 2.46-3.77 2.05-3.79-0.41-0.03-17.62-0.01-38.25 0.04-29.14 0.07-37.92-0.2-39.37-1.21-1.64-1.13-1.71-1.61-0.59-3.79 0.71-1.38 6.66-11.5 13.23-22.5 6.57-11 12.74-20.9 13.72-22 0.98-1.1 2.45-3.35 3.28-5 0.82-1.65 2.9-4.46 7.73-9.5h54c46.67 0 54.2 0.2 55.5 1.5 1.29 1.29 1.5 7.78 1.5 46 0 41.75-0.12 44.73-1.9 48.25-1.05 2.06-7.86 13.2-15.13 24.75-7.28 11.55-14.58 23.25-16.23 26-1.65 2.75-5.11 8.15-7.68 12-2.58 3.85-6.84 10.6-9.47 15-2.62 4.4-6.3 10.47-8.18 13.5-1.87 3.03-4.19 5.81-5.16 6.18-0.96 0.37-46.86 0.71-102 0.75-56.06 0.04-101.02-0.32-102-0.81-0.96-0.49-2.92-2.62-4.35-4.75-1.42-2.13-7.5-11.46-13.5-20.73-5.99-9.28-16.98-26.2-24.4-37.6-7.42-11.41-18.23-28.04-24-36.97-5.77-8.92-12.41-19.11-14.75-22.65-2.34-3.53-6.16-9.3-8.5-12.82-2.34-3.52-7.17-11.01-10.75-16.64-3.58-5.63-13.06-20.19-21.07-32.35-8.02-12.16-15.18-23.24-15.92-24.61-0.75-1.38-5.94-9.48-11.53-18q-8.42-12.79-20.98-32.15l-0.49 306.65 2.74 4.41c1.63 2.6 4.39 5.26 10.75 8.59l439 0.45 4.5-2.28c2.95-1.49 5.64-3.99 11.07-12.17l-0.11-250-2.36-4c-1.59-2.69-2.11-4.65-1.61-6 0.41-1.1 1.5-2.67 2.42-3.5 1.4-1.25 1.67-3.51 1.59-26l-162.5-0.09-5.31 8.79c-2.92 4.84-9.62 15.55-14.89 23.8-5.27 8.25-10.75 16.89-12.19 19.2-1.43 2.31-4.62 7.48-7.08 11.5-2.46 4.01-8.12 12.93-12.58 19.8-4.45 6.88-10.54 16.27-13.52 20.87-2.99 4.6-5.99 8.77-6.68 9.25-0.85 0.6-2.09-0.16-3.87-2.37-1.44-1.79-3.31-4.6-4.16-6.25-0.84-1.65-5.35-8.85-10.01-16-4.67-7.15-11.64-17.95-15.5-24-3.86-6.05-7.94-12.35-9.07-14-1.13-1.65-3.11-4.58-4.41-6.5-1.5-2.24-2.14-4.31-1.79-5.75 0.31-1.24 1.57-3.76 2.81-5.6 1.24-1.84 4.27-6.61 6.75-10.6 2.48-3.98 6.94-11.14 9.92-15.9 2.97-4.76 8.64-13.6 12.58-19.65 3.94-6.05 9.33-14.6 11.97-19 2.64-4.4 6.39-10.48 8.34-13.5 1.94-3.02 6.65-10.23 10.45-16 3.8-5.77 7.88-11.31 9.07-12.29 2.06-1.7 7.96-1.79 114.92-1.75 73.08 0.03 113.45 0.39 114.75 1.04 1.99 0.99 2 1.98 1.94 369.5l-3.16 6.5c-1.73 3.58-4.81 8.3-6.84 10.5-2.04 2.2-6.11 5.23-9.07 6.74-2.95 1.51-7.96 3.42-11.12 4.25-5.04 1.32-32.72 1.51-225 1.5-181.69-0.01-220.02-0.24-223.75-1.37-2.48-0.74-6.75-2.49-9.5-3.88-2.75-1.38-7.25-4.93-10-7.88-2.76-2.95-5.96-7.61-7.13-10.36-1.17-2.75-2.63-7.14-3.25-9.75-0.81-3.44-1.12-67.1-1.11-230 0.01-158.44 0.33-226.29 1.09-228.75 0.6-1.92 2.51-6.39 4.24-9.91 1.74-3.53 4.26-7.26 5.59-8.29 1.34-1.03 3.14-1.75 4-1.59zm1127.57 144.16c9.9 0.23 20.7 0.87 24 1.43 3.3 0.56 8.92 1.98 12.5 3.15 3.57 1.18 9.87 3.95 14 6.16 4.26 2.28 10.24 6.7 13.82 10.21 3.48 3.4 7.4 7.98 8.71 10.18 1.3 2.2 3.76 7.38 5.46 11.5 2.63 6.4 3.12 8.93 3.3 17.29 0.17 7.78-0.1 9.98-1.29 10.73-0.83 0.52-10.16 0.96-20.75 0.96-15.79 0.02-19.52-0.25-20.75-1.48-0.91-0.91-1.5-3.37-1.51-6.25-0.01-2.61-0.7-7-1.53-9.75-0.84-2.75-2.63-6.69-3.99-8.75-1.36-2.06-4.16-4.86-6.22-6.22-2.06-1.36-6-3.15-8.75-3.99-3.28-1-9.13-1.52-17-1.52-7.16 0-13.82 0.54-16.5 1.35-2.47 0.74-5.51 1.86-6.75 2.49-1.24 0.63-4.1 2.83-6.37 4.89-2.27 2.06-5.03 5.55-6.14 7.75-1.1 2.2-2.62 6.02-3.36 8.5-1.04 3.43-1.36 13.32-1.37 41.75-0.01 28.7 0.31 38.46 1.38 42.5 0.77 2.89 2.23 7.25 3.25 9.68 1.15 2.74 3.97 6.28 7.36 9.25 3.21 2.81 7.58 5.49 10.5 6.44 3.56 1.17 8.59 1.63 17.5 1.61 10.53-0.02 13.45-0.38 18.5-2.29 4.29-1.63 7.58-3.87 11.55-7.86 4.57-4.59 5.94-6.82 7.74-12.58 1.21-3.85 2.21-9.25 2.23-12 0.03-4.83-0.08-5.03-3.25-5.76-1.8-0.42-11.15-0.75-20.77-0.74-12.82 0.03-17.84-0.31-18.77-1.23-0.89-0.89-1.27-5.14-1.29-14.27-0.02-11 0.23-13.23 1.67-14.5 1.46-1.29 7.37-1.46 42.79-1.17 29.68 0.23 41.46 0.65 42.39 1.5 1.03 0.93 1.29 11.16 1.25 49.42-0.03 42.52-0.23 48.43-1.61 49.75-1.24 1.19-4.49 1.5-15.5 1.5-10.16 0-14.27-0.35-15.18-1.31-0.69-0.71-1.79-3.08-2.45-5.25-0.65-2.17-1.78-6.08-2.5-8.7-0.71-2.61-1.52-4.77-1.8-4.79-0.28-0.02-1.85 1.84-3.5 4.13-1.65 2.29-5.03 5.63-7.5 7.41-2.47 1.79-6.53 4.29-9 5.54-2.47 1.25-6.08 2.7-8 3.21-1.93 0.51-6.2 1.42-9.5 2.01-3.3 0.6-10.28 1.09-15.5 1.09-5.22 0.01-12.43-0.5-16-1.12-3.58-0.63-8.08-1.55-10-2.05-1.93-0.51-5.75-1.83-8.5-2.93-2.75-1.11-7.7-3.6-11-5.53-3.3-1.94-8.97-6.6-12.6-10.37-3.64-3.76-7.74-9.09-9.12-11.84-1.38-2.75-3.41-7.7-4.49-11-1.09-3.3-2.5-8.14-3.14-10.75-0.77-3.2-1.14-18.23-1.13-46 0.01-25.89 0.41-42.74 1.08-45.25 0.58-2.2 1.55-5.8 2.15-8 0.59-2.2 2.92-7.59 5.17-11.97 2.7-5.28 6.28-10.2 10.58-14.56 3.57-3.62 9.42-8.19 13-10.17 3.57-1.97 9.42-4.54 13-5.71 3.57-1.18 7.85-2.57 9.5-3.1 1.65-0.53 4.35-0.98 6-0.99 1.65-0.02 3.67-0.48 4.5-1.03 0.92-0.62 8.41-0.85 19.5-0.6zm431 0.06c9.35 0.19 19.25 0.82 22 1.4 2.75 0.57 6.8 1.48 9 2.01 2.2 0.54 5.35 1.39 7 1.91 1.65 0.51 6.37 2.69 10.5 4.84 4.59 2.39 10.35 6.63 14.84 10.91 5.34 5.09 8.28 8.91 10.79 14 1.9 3.85 3.96 8.8 4.58 11 0.62 2.2 1.28 9.17 1.47 15.5 0.24 8.29-0.01 11.86-0.92 12.79-0.95 0.98-6.02 1.29-20.51 1.25-15.74-0.03-19.52-0.31-20.75-1.54-1.04-1.04-1.5-3.58-1.5-8.25 0-4.33-0.73-8.72-2.03-12.25-1.12-3.02-3.15-6.96-4.5-8.75-1.36-1.79-4.16-4.36-6.22-5.71-2.06-1.35-5.78-3.19-8.25-4.08-3.08-1.1-8.13-1.63-16-1.69-6.69-0.05-13.17 0.44-15.5 1.17-2.2 0.7-6.02 2.23-8.49 3.41-2.47 1.18-6.3 4.02-8.5 6.3-2.72 2.81-4.77 6.36-6.37 11-2.33 6.77-2.36 7.3-2.23 45.85 0.13 37.64 0.21 39.22 2.36 45.19 1.23 3.4 3.61 8.12 5.29 10.5 1.87 2.64 5.17 5.44 8.5 7.23 2.99 1.6 8.36 3.51 11.94 4.25 3.57 0.73 9.09 1.33 12.25 1.33 3.16 0 7.89-0.51 10.5-1.13 2.61-0.62 6.55-1.85 8.74-2.75 2.2-0.89 5.52-2.97 7.38-4.62 1.87-1.65 4.33-4.35 5.47-6 1.14-1.65 2.88-5.25 3.87-8 1-2.8 1.79-7.75 1.79-11.25 0-4.67 0.44-6.66 1.75-7.86 1.52-1.41 4.38-1.57 21.6-1.25 10.91 0.2 20.29 0.58 20.84 0.86 0.63 0.32 0.76 4.55 0.36 11.5-0.36 6.05-1.24 13.03-1.97 15.5-0.72 2.47-2.73 7.31-4.45 10.75-1.72 3.44-4.66 8.39-6.54 11-1.87 2.61-5.13 6.16-7.25 7.88-2.11 1.72-7.22 4.94-11.34 7.16-4.13 2.22-9.75 4.8-12.5 5.75-2.75 0.94-6.8 2.12-9 2.62-2.2 0.49-7.15 1.41-11 2.04-3.85 0.63-12.4 1.14-19 1.14-6.6 0-15.15-0.5-19-1.12-3.85-0.62-8.58-1.54-10.5-2.04-1.93-0.51-6.2-1.89-9.5-3.08-3.3-1.19-8.93-3.8-12.5-5.8-3.58-2.01-9.45-6.6-13.06-10.22-3.61-3.62-7.95-9.05-9.64-12.08-1.69-3.03-3.97-8.2-5.07-11.5-1.1-3.3-2.62-8.25-3.37-11-1.04-3.84-1.36-14.41-1.36-45.5 0-31.25 0.31-41.64 1.37-45.5 0.76-2.75 2-6.91 2.75-9.25 0.76-2.34 2.8-7.06 4.53-10.5 1.73-3.44 5.89-9.1 9.25-12.59 3.35-3.48 8.57-7.84 11.6-9.69 3.03-1.85 8.42-4.56 12-6.03 3.57-1.47 8.86-3.29 11.75-4.05 2.89-0.77 6.71-1.42 8.5-1.46 1.79-0.04 4.15-0.47 5.25-0.96 1.1-0.49 9.65-0.74 19-0.54zm180.5 0.01c10.18 0.16 20.75 0.76 23.5 1.34 2.75 0.57 8.6 2.25 13 3.72 4.4 1.48 10.68 4.11 13.96 5.84 3.28 1.74 9.4 6.54 13.6 10.66 4.52 4.43 9.11 10.16 11.24 14 1.98 3.58 4.26 8.75 5.07 11.5 0.81 2.75 1.95 6.8 2.53 9 0.67 2.52 1.06 18.97 1.05 44.5-0.01 39.07-0.09 40.8-2.3 49-1.27 4.67-4.05 11.88-6.18 16-2.56 4.93-6.3 9.94-10.93 14.61-5.83 5.89-8.85 7.98-17.54 12.16-5.78 2.77-11.85 5.33-13.5 5.68-1.65 0.35-4.8 1.1-7 1.67-2.2 0.57-7.6 1.52-12 2.13-4.4 0.6-12.72 1.09-18.5 1.09-5.78 0-13.65-0.51-17.5-1.12-3.85-0.62-8.57-1.54-10.5-2.05-1.93-0.51-5.75-1.71-8.5-2.65-2.75-0.95-8.6-3.57-13-5.83-4.8-2.47-10.54-6.52-14.35-10.15-3.49-3.32-7.93-8.74-9.86-12.04-1.94-3.3-4.41-8.25-5.51-11-1.09-2.75-2.61-7.36-3.38-10.25-0.77-2.89-1.4-6.83-1.4-8.75 0-1.92-0.4-4.51-0.89-5.75-0.51-1.29-0.55-17.79-0.1-38.75 0.43-20.08 1.23-37.62 1.78-39 0.55-1.37 1.58-4.52 2.29-7 0.7-2.48 2.49-6.98 3.97-10 1.48-3.02 4.66-8.12 7.07-11.33 2.41-3.21 7.31-7.99 10.88-10.62 3.57-2.63 8.3-5.68 10.5-6.78 2.2-1.11 6.7-2.91 10-4.01 3.3-1.11 8.7-2.55 12-3.21 3.3-0.66 7.35-1.58 9-2.05 1.65-0.47 11.32-0.72 21.5-0.56zm-23.5 37.2c-3.83 1.11-7.4 3.03-9.87 5.3-2.13 1.96-4.72 5.25-5.75 7.31-1.03 2.06-2.56 5.77-3.38 8.25-1.25 3.76-1.45 10.81-1.19 42.75 0.18 21.6 0.76 39.99 1.34 42.25 0.56 2.2 1.96 5.8 3.1 8 1.15 2.2 4.03 5.9 6.42 8.23 2.58 2.52 6.55 5.05 9.83 6.26 4.64 1.7 7.93 2.01 21 2.01 13.07 0 16.36-0.31 21-2.01 3.28-1.21 7.25-3.74 9.83-6.26 2.39-2.33 5.27-6.03 6.42-8.23 1.14-2.2 2.55-5.8 3.11-8 0.63-2.41 1.04-19.27 1.04-42.5 0-23.23-0.41-40.09-1.04-42.5-0.56-2.2-1.95-5.8-3.07-8-1.13-2.2-3.79-5.6-5.92-7.56-2.47-2.27-6.04-4.18-9.87-5.3-3.3-0.96-7.35-2.17-9-2.68-1.65-0.52-7.5-0.89-13-0.84-5.5 0.05-11.13 0.47-12.5 0.93-1.38 0.46-5.2 1.62-8.5 2.59zm-964.18-33.89c19.89 0.23 21.68 0.39 21.66 2-0.01 0.96-2.05 7.6-4.55 14.75-2.5 7.15-5.38 15.48-6.4 18.5-1.03 3.02-3.29 9.33-5.01 14-1.73 4.67-4.89 13.67-7.01 20-2.13 6.33-5.73 16.67-8 23-2.28 6.33-4.98 13.97-6.01 17-1.03 3.03-3.73 10.67-6.01 17-2.28 6.33-4.52 12.63-4.98 14-0.46 1.38-2.25 6.33-3.99 11-1.74 4.67-4.46 12.33-6.05 17-1.58 4.67-4.29 12.55-6.02 17.5-1.73 4.95-3.66 9.33-4.3 9.73-0.63 0.41-10.94 0.75-22.9 0.75-12.53 0.01-22.6-0.4-23.75-0.98-1.1-0.55-2.41-2.46-2.92-4.25-0.51-1.79-2.79-8.42-5.06-14.75-2.28-6.33-4.99-13.97-6.01-17-1.02-3.03-3.28-9.33-5.02-14-1.74-4.67-3.54-9.62-3.99-11-0.45-1.37-2.24-6.33-3.96-11-1.73-4.67-4.44-12.33-6.01-17-1.58-4.67-4.29-12.33-6.02-17-1.74-4.67-4.45-12.33-6.02-17-1.58-4.67-3.77-10.98-4.87-14-1.1-3.02-3.42-9.33-5.14-14-1.73-4.67-3.97-10.98-4.98-14-1.01-3.02-3.18-9.1-4.81-13.5-1.64-4.4-3.47-9.24-4.08-10.75-0.61-1.51-1.11-3.42-1.11-4.25 0-1.29 3.21-1.5 45.5-1.57l1.7 4.29c0.93 2.35 4.18 11.7 7.22 20.78 3.04 9.08 8.72 25.73 12.62 37 3.9 11.27 7.48 21.85 7.95 23.5 0.46 1.65 2.4 7.5 4.29 13 1.9 5.5 5.65 16.65 8.34 24.78 2.68 8.13 5.33 14.77 5.88 14.76 0.55-0.01 1.62-2.17 2.38-4.78 0.76-2.62 5.13-16.01 9.71-29.76 4.58-13.75 9.86-29.5 11.73-35 1.87-5.5 5.46-16.3 7.97-24 2.51-7.7 5.34-16.25 6.29-19 0.94-2.75 2.5-7.25 3.45-10 0.96-2.75 2.35-7 3.1-9.44 0.75-2.45 1.85-4.92 2.44-5.5 0.7-0.7 8.54-0.97 22.75-0.81zm74.18-0.55c4.41-0.15 7.65 0.23 8.75 1.03 1.64 1.19 1.74 7.04 1.74 97.27-0.01 75.04-0.28 96.28-1.25 97.29-0.93 0.98-5.9 1.29-19.99 1.25-10.31-0.02-19.43-0.26-20.25-0.54-1.32-0.44-1.5-12.07-1.48-96.75 0-52.94 0.34-96.79 0.75-97.45 0.48-0.8 4.78-1.32 12.73-1.54 6.6-0.18 15.15-0.43 19-0.56zm1053.5 0.56c22.82 0.15 44.87 0.46 49 0.7 4.12 0.24 9.75 0.88 12.5 1.42 2.75 0.55 6.35 1.29 8 1.65 1.65 0.36 7.95 3.03 14 5.95 9.7 4.67 11.89 6.22 18.5 13.16 4.75 4.98 8.67 10.24 10.67 14.36 1.75 3.58 4.06 9.42 5.15 13 1.09 3.58 2.52 10.33 3.18 15 0.81 5.77 1.03 17.33 0.68 36-0.29 15.13-0.96 30.2-1.5 33.5-0.54 3.3-1.46 7.8-2.03 10-0.57 2.2-2.98 7.79-5.35 12.41-2.98 5.83-6.45 10.63-11.3 15.6-4.05 4.16-9.74 8.71-13.5 10.79-3.57 1.99-9.43 4.58-13 5.76-3.57 1.18-8.07 2.57-10 3.1-1.93 0.52-6.43 1.44-10 2.03-3.77 0.63-26.55 1.24-54.25 1.45-41.44 0.31-47.95 0.16-49.25-1.14-1.18-1.18-1.5-4.28-1.5-14.5 0-10.52 0.3-13.29 1.57-14.5 1.17-1.11 3.95-1.5 19.93-1.49l0.79-12.25c0.44-6.74 0.71-31.16 0.6-54.26-0.1-23.1-0.46-47.17-1.39-65l-21-1-0.29-13.5c-0.16-7.42-0.04-14.51 0.25-15.75 0.43-1.77 1.33-2.3 4.29-2.5 2.06-0.14 22.43-0.13 45.25 0.01zm18 162.24c24.87 0 30.35-0.44 33.75-1.55 2.61-0.85 7.45-2.99 10.75-4.75 5.27-2.81 6.42-3.99 9.43-9.7 1.89-3.58 3.89-8.3 4.44-10.5 0.54-2.2 1.16-18.4 1.36-36 0.22-19.11-0.02-33.41-0.61-35.5-0.54-1.92-1.77-6.2-2.74-9.5-1.12-3.81-3.06-7.41-5.32-9.87-1.96-2.13-5.36-4.79-7.56-5.92-2.2-1.12-5.8-2.49-8-3.04-2.2-0.54-11.07-1.16-19.7-1.38l-15.7-0.39zm-985.64-161.67c33.23 0.23 55.01 0.78 58.14 1.46 2.75 0.6 6.35 1.4 8 1.77 1.65 0.37 7.05 2.55 12 4.85 4.95 2.3 10.8 5.48 13 7.08 2.2 1.6 5.29 4.05 6.86 5.46 1.58 1.4 4.55 4.8 6.6 7.55 2.06 2.75 4.88 7.25 6.27 10 1.39 2.75 3.32 7.25 4.29 10 0.96 2.75 2.22 7.03 2.79 9.5 0.61 2.61 1.06 18.37 1.09 37.5 0.03 18.15-0.32 35.48-0.78 38.5-0.45 3.03-1.73 8.2-2.84 11.5-1.11 3.3-3.65 9.15-5.65 13-2.25 4.36-6.27 9.69-10.63 14.13-5.12 5.2-9.16 8.2-15 11.13-4.4 2.2-10.25 4.79-13 5.75-2.75 0.96-6.8 2.18-9 2.69-2.2 0.52-6.48 1.43-9.5 2.01-3.27 0.64-25.41 1.22-54.5 1.43-30.39 0.23-49.57 0-50.5-0.6-1.21-0.78-1.5-3.54-1.5-14.34 0-10.49 0.32-13.75 1.5-15.06 1.18-1.33 3.6-1.73 21.5-2.14l0.53-4c0.3-2.2 0.41-31.56-0.03-126.5h-10.5c-8 0-10.86-0.35-12-1.5-1.19-1.18-1.5-4.33-1.5-15 0-7.42 0.27-14.18 0.61-15.02 0.54-1.35 6.82-1.48 53.75-1.15zm13.47 98.34l0.17 63.33c24.41-0.52 33.3-1.12 35.5-1.65 2.2-0.54 6.92-2.52 10.5-4.41 5.83-3.08 6.85-4.1 9.95-9.94 1.89-3.57 3.87-8.75 4.4-11.5 0.52-2.75 1.13-18.95 1.35-36 0.24-18.57 0.01-32.4-0.58-34.5-0.54-1.92-1.78-6.2-2.75-9.5-1.12-3.81-3.06-7.41-5.32-9.87-1.95-2.13-5.35-4.79-7.55-5.91-2.2-1.13-5.8-2.49-8-3.04-2.2-0.55-11.22-1.17-20.04-1.38-8.82-0.21-16.44-0.06-16.92 0.33-0.49 0.39-0.8 28.69-0.71 64.04zm346.17-98.67l0.64 2.75c0.35 1.52 0.69 32.68 0.75 69.25 0.1 63.86 0.19 66.72 2.11 72.02 1.1 3.03 3.12 6.89 4.5 8.58 1.37 1.69 4.3 4.45 6.5 6.14 2.2 1.68 6.25 3.83 9 4.78 2.75 0.95 8.37 1.95 12.5 2.23 4.25 0.29 9.88-0.03 13-0.72 3.02-0.67 7.28-1.97 9.45-2.87 2.17-0.91 5.66-2.89 7.75-4.41 2.3-1.66 4.78-4.82 6.29-8 1.37-2.88 3.17-7.83 4-11 1.27-4.84 1.5-16.01 1.49-71-0.01-49.91 0.27-65.54 1.2-66.5 0.89-0.91 6.29-1.25 20.02-1.25 17.8 0 18.85 0.11 19.8 2 0.63 1.28 0.99 26.22 0.98 68.75-0.01 36.72-0.42 68.33-0.91 70.25-0.5 1.93-1.44 5.98-2.11 9-0.66 3.03-3.06 9.1-5.33 13.5-2.28 4.4-6.67 10.69-9.77 14-3.38 3.6-8.58 7.65-13 10.12-4.05 2.27-10.29 5.05-13.86 6.18-3.58 1.14-8.3 2.52-10.5 3.08-2.2 0.56-6.93 1.37-10.5 1.79-3.58 0.42-11 0.74-16.5 0.72-5.5-0.03-13.15-0.56-17-1.17-3.85-0.62-8.58-1.55-10.5-2.08-1.93-0.53-4.85-1.39-6.5-1.91-1.65-0.52-6.83-2.87-11.5-5.21-6.45-3.24-10.26-6.05-15.75-11.64-4.79-4.87-8.38-9.67-10.57-14.13-1.83-3.71-3.82-8.55-4.42-10.75-0.61-2.2-1.58-5.8-2.17-8-0.7-2.63-1.07-27.44-1.08-72.75-0.01-37.81 0.25-69.42 0.57-70.25 0.49-1.26 3.78-1.5 41.42-1.5zm161.33-0.01c14.96-0.01 20.49 0.31 21.43 1.25 1.01 1 1.27 20.96 1.25 96.51-0.01 85.28-0.18 95.41-1.59 96.75-1.28 1.23-5.03 1.5-20.5 1.5-15.49 0-19.2-0.27-20.42-1.5-1.32-1.31-1.5-13.38-1.5-96.5 0-52.25 0.26-95.67 0.58-96.5 0.49-1.26 3.76-1.5 20.75-1.51zm706.67 0.01v16.5c0 13.78-0.25 16.59-1.5 17-0.83 0.28-18.83 0.5-78.5 0.5v46h35.5c30.22 0 35.72 0.23 37 1.5 1.19 1.2 1.49 4.41 1.48 15.75-0.01 7.84-0.44 14.93-0.96 15.75-0.82 1.3-5.65 1.46-35.74 1.16-28.13-0.27-35.02-0.08-36.01 1-0.92 1-1.18 7.15-0.77 46.34l41.78 0.5c35.69 0.43 41.93 0.72 42.74 2 0.52 0.83 0.95 7.69 0.96 15.25 0.01 11.22-0.27 14.03-1.56 15.25-1.36 1.3-9.81 1.5-63.5 1.5-53.71 0-62.12-0.19-63.42-1.5-1.31-1.3-1.53-13.6-1.7-96.8-0.17-80.62 0.01-95.48 1.2-96.5 1.05-0.9 16.35-1.2 123-1.2z"/>
</svg>