<svg version="1.2" xmlns="http://www.w3.org/2000/svg" viewBox="0 0 1600 1600" width="1600" height="1600">
	<style>
		.s0 { fill: #fefeff } 
	</style>
	<path id="Path 0" class="s0" d="m542.41 463.24c-0.31 0.69 5.38 10.49 12.65 21.76 7.27 11.27 17.78 27.48 23.36 36 5.59 8.52 16.44 25.13 24.12 36.9 7.68 11.78 20.71 31.69 28.96 44.25 8.25 12.57 20.4 31.2 27 41.41 6.6 10.21 14.7 22.7 18.01 27.75 3.3 5.05 9.13 14.14 12.96 20.19 3.84 6.05 7.43 11.33 8 11.73 0.57 0.41 1.26 0.76 1.53 0.79 0.28 0.03 7.09-10.43 15.14-23.24 8.05-12.8 15.43-24.86 16.39-26.78l1.75-3.5c-8.35-13.13-13.93-21.77-17.78-27.68-3.85-5.91-11.95-18.43-18-27.84-6.05-9.4-13.99-21.68-17.63-27.29-5.46-8.38-6.35-10.3-5-10.78 0.89-0.33 77.68-0.66 170.63-0.73 92.95-0.07 195.21-0.15 227.25-0.16l58.25-0.02c-0.03-44.96-0.38-51.82-1.61-56.5-0.86-3.3-2.74-8.48-4.18-11.5-1.43-3.02-4.43-7.47-6.66-9.88-2.23-2.41-5.85-5.63-8.05-7.17-2.2-1.53-7.15-4.06-11-5.62l-7-2.83c-494.34-0.47-548.64-0.28-549.09 0.74zm-60.27 13.51c-2.48 2.61-6.12 8.12-8.08 12.25l-3.56 7.5c-0.48 573.9-0.37 599.42 1.12 604 0.9 2.75 3.1 7.47 4.88 10.5 1.79 3.03 6.35 8.32 10.13 11.77 5.17 4.72 8.85 7.07 14.87 9.5l8 3.23c526.83 0.46 574.6 0.28 580.25-0.87 3.71-0.76 9.22-2.54 12.25-3.95 3.03-1.42 8.23-5.19 11.57-8.38 3.34-3.19 7.71-8.72 9.7-12.3 2-3.58 4.32-9.42 5.17-13 1.35-5.75 1.53-33.77 1.55-241.75 0.01-208.23-0.16-235.31-1.49-235.75-0.82-0.27-67.54-0.52-148.25-0.54-139.67-0.04-146.85 0.04-148.86 1.75-1.16 0.98-4.71 6.06-7.89 11.29-3.18 5.23-7.92 12.87-10.52 17-2.6 4.12-6.47 10.42-8.6 13.99-2.13 3.57-5.68 9.27-7.88 12.68-2.2 3.41-6.25 9.87-9 14.36-2.75 4.49-8.18 13.18-12.07 19.32-3.89 6.13-11.32 18.02-16.5 26.41-5.19 8.39-11.58 18.74-14.2 23-2.62 4.26-4.76 8.3-4.75 8.99 0.01 0.69 4.1 7.66 9.08 15.5 4.99 7.84 15.35 23.92 23.03 35.75 7.68 11.83 17.66 27.23 22.19 34.22 4.52 7 8.9 12.75 9.72 12.79 0.83 0.03 4.66-4.73 8.62-10.73 3.91-5.93 11.29-17.53 16.38-25.78 5.1-8.25 12.29-19.95 15.98-26 3.69-6.05 14.06-22.92 23.04-37.5 8.99-14.58 19.1-31 22.48-36.5l6.13-10c30.9-1.02 76.55-1.11 121.37-0.85 44.83 0.25 82.29 0.66 83.25 0.91 1.37 0.34 1.89 1.92 2.38 7.19 0.34 3.71 0.43 10.12 0.19 14.25-0.36 6.38-0.91 8.21-3.62 12.25-1.76 2.61-3.2 5.2-3.2 5.75 0 0.55 1.58 3.02 3.5 5.5l3.5 4.5-0.5 322.5c-3.45 6.2-5.58 9.24-6.97 10.75-1.39 1.51-4.44 3.76-6.78 5l-4.25 2.25h-572c-7.75-4.09-10.76-6.12-11.68-7.14-0.93-1.02-2.61-3.89-3.73-6.36-2.04-4.48-2.05-5.22-2.05-201l-0.01-196.5c12.09 18.6 26.14 40.42 39.02 60.5 12.89 20.08 25.69 39.97 28.44 44.21 2.76 4.24 8.61 13.38 13.01 20.31 4.4 6.93 14.3 22.25 22 34.04 7.7 11.79 19.63 30.21 26.5 40.93 6.88 10.73 16.08 25.01 20.45 31.75 4.37 6.74 13.03 20.13 19.24 29.76 6.2 9.62 16.05 24.92 21.87 34 5.83 9.08 13.82 21.51 17.77 27.63 3.94 6.12 7.85 11.88 8.67 12.8 1.38 1.53 11.78 1.66 135 1.64l133.5-0.02c3.19-3.53 6.63-8.6 9.71-13.55 3.07-4.95 12.65-20.7 21.28-35 8.63-14.3 23.75-39.39 33.6-55.75l17.91-29.75v-120c-81.76-0.39-110.9-0.38-117.5-0.24l-12 0.26c-5.42 5.99-8.8 10.67-11 14.27-2.2 3.6-7.78 12.77-12.4 20.38-4.61 7.6-9.59 15.63-11.06 17.83-1.47 2.2-6.12 9.96-10.35 17.25-4.23 7.29-7.69 13.92-7.69 14.75 0 1.31 5.67 1.5 45 1.5 24.75 0 45.01 0.34 45.02 0.75 0.01 0.41-1.27 2.77-2.85 5.25-1.57 2.48-9.98 15.98-18.69 30-8.7 14.02-16.76 26.52-17.9 27.77l-2.08 2.27-157.66 0.46c-2.83-3.87-11.42-16.92-20.91-31.5-9.5-14.58-21.72-33.48-27.17-42-5.45-8.52-15.02-23.37-21.27-33-6.25-9.62-18-27.85-26.12-40.5-8.12-12.65-18.62-28.95-23.32-36.22-4.7-7.28-14.32-22.13-21.36-33-7.05-10.88-17.89-27.65-24.09-37.28-6.21-9.62-17.94-27.85-26.08-40.5-8.14-12.65-19.17-29.75-24.52-38-5.35-8.25-14.58-22.65-20.52-32-5.93-9.35-14.94-23.3-20-31-5.07-7.7-12.03-18.5-15.48-24-3.44-5.5-6.9-11.8-7.68-14-0.77-2.2-1.83-9.18-2.34-15.5-0.55-6.81-1.45-12.03-2.2-12.79-0.71-0.72-1.69-1.28-2.2-1.25-0.5 0.02-2.95 2.18-5.44 4.79z"/>
</svg>