<svg version="1.2" xmlns="http://www.w3.org/2000/svg" viewBox="0 0 2451 590" width="2451" height="590">
	<style>
		.s0 { fill: #ffffff } 
	</style>
	<path id="Path 0" fill-rule="evenodd" class="s0" d="m546.36 0l9.36 4.33c6.19 2.87 10.67 5.85 13.25 8.79 2.14 2.45 5.33 7.65 7.09 11.55 3.18 7.06 3.19 7.15 3.19 31.47 0 13.42-0.38 24.61-0.85 24.89-0.46 0.29-89.4 0.54-197.62 0.58-155.04 0.05-197.17 0.36-198.65 1.48-1.68 1.25-0.82 3.01 8.21 16.71 5.55 8.42 12.08 18.38 14.52 22.12 2.42 3.74 8.45 12.93 13.36 20.41 4.92 7.49 10.31 15.9 11.97 18.72 2.68 4.52 2.86 5.42 1.56 7.93-0.82 1.57-5.17 8.7-9.69 15.88-4.51 7.18-10.58 16.52-13.49 20.76-2.91 4.23-5.79 7.69-6.41 7.67-0.63-0.01-5.98-7.49-11.91-16.62-5.93-9.13-20.47-31.39-32.32-49.47-11.85-18.09-27.38-41.89-34.51-52.9-7.14-11.01-14.77-22.83-16.96-26.25-2.19-3.43-11.42-17.47-20.52-31.19-9.1-13.72-17.68-26.87-19.06-29.2-1.94-3.27-2.22-4.65-1.26-5.96 1.11-1.51 29.22-1.7 480.74-1.7zm-528.58 9.31c0.99 0.18 2.68 2.12 3.77 4.3q1.98 3.97 1.97 11.91c0 7.63 0.23 8.29 5.96 17.3 3.28 5.16 7.24 11.35 8.8 13.76 1.56 2.41 5.33 8.14 8.38 12.74 3.05 4.6 9.13 13.98 13.52 20.84 4.37 6.86 14.16 21.93 21.76 33.46 7.6 11.53 14.49 22.25 15.32 23.82 0.84 1.55 7.71 12.28 15.3 23.81 7.58 11.54 20.63 31.51 29 44.38 8.38 12.87 20.8 32.01 27.62 42.53 6.81 10.53 15.04 23.22 18.27 28.21 3.24 4.99 9.91 15.27 14.83 22.85 4.92 7.58 14.32 22.08 20.86 32.23 6.54 10.16 17.79 27.44 24.97 38.4 7.19 10.96 14.85 22.87 20.96 33.01l66.55-0.03c61.87-0.01 66.69-0.14 68.51-1.99 1.08-1.09 2.74-3.27 3.7-4.82 0.95-1.57 5.6-8.7 10.34-15.88 4.73-7.18 10.86-16.88 13.61-21.55 2.76-4.68 6.45-10.42 8.2-12.76 1.75-2.33 2.79-4.27 2.33-4.3-0.47-0.03-19.98-0.01-43.38 0.05-33.05 0.08-43.01-0.23-44.65-1.37-1.86-1.29-1.94-1.83-0.67-4.3 0.8-1.57 7.55-13.04 15-25.52 7.45-12.48 14.45-23.7 15.56-24.95 1.12-1.25 2.78-3.8 3.72-5.67 0.93-1.87 3.29-5.06 8.77-10.78h61.24c52.93 0 61.47 0.23 62.95 1.71 1.46 1.46 1.7 8.82 1.7 52.17 0 47.35-0.14 50.73-2.16 54.72-1.19 2.33-8.91 14.97-17.16 28.07-8.25 13.1-16.53 26.37-18.4 29.48-1.87 3.12-5.8 9.25-8.71 13.61-2.93 4.37-7.76 12.03-10.74 17.02-2.97 4.99-7.15 11.87-9.28 15.31-2.12 3.43-4.75 6.59-5.85 7.01-1.09 0.41-53.15 0.8-115.68 0.85-63.58 0.04-114.57-0.37-115.68-0.92-1.09-0.56-3.32-2.97-4.94-5.39-1.61-2.42-8.5-13-15.31-23.51-6.79-10.53-19.26-29.71-27.67-42.64-8.42-12.94-20.68-31.8-27.22-41.93-6.54-10.12-14.07-21.68-16.73-25.69-2.65-4-6.98-10.55-9.64-14.54-2.65-3.99-8.13-12.49-12.19-18.87-4.06-6.39-14.81-22.9-23.9-36.69-9.09-13.79-17.21-26.36-18.05-27.91-0.85-1.57-6.74-10.75-13.08-20.42q-9.55-14.5-23.79-36.46l-0.56 347.78 3.11 5c1.85 2.95 4.98 5.97 12.19 9.75l497.88 0.51 5.11-2.59c3.34-1.69 6.39-4.53 12.55-13.8l-0.12-283.53-2.68-4.54c-1.8-3.05-2.39-5.27-1.83-6.8 0.47-1.25 1.71-3.03 2.75-3.97 1.59-1.42 1.89-3.99 1.8-29.49l-184.29-0.1-6.03 9.97c-3.31 5.48-10.91 17.63-16.88 26.99-5.98 9.35-12.19 19.15-13.83 21.77-1.62 2.62-5.24 8.49-8.03 13.05-2.79 4.54-9.21 14.66-14.26 22.45-5.05 7.8-11.96 18.45-15.34 23.67-3.39 5.22-6.79 9.95-7.57 10.49-0.97 0.68-2.37-0.18-4.39-2.69-1.64-2.03-3.76-5.21-4.72-7.09-0.95-1.87-6.07-10.03-11.35-18.14-5.3-8.11-13.2-20.36-17.58-27.22-4.38-6.86-9.01-14.01-10.29-15.88-1.28-1.87-3.53-5.19-5-7.37-1.7-2.54-2.43-4.89-2.03-6.52 0.35-1.41 1.78-4.27 3.19-6.35 1.4-2.09 4.84-7.5 7.65-12.02 2.81-4.52 7.87-12.64 11.25-18.04 3.37-5.4 9.8-15.42 14.27-22.28 4.47-6.86 10.58-16.56 13.58-21.55 2.99-4.99 7.24-11.89 9.45-15.31 2.2-3.43 7.55-11.6 11.86-18.15 4.3-6.54 8.93-12.82 10.28-13.94 2.34-1.92 9.03-2.03 130.34-1.98 82.88 0.03 128.66 0.44 130.14 1.18 2.25 1.12 2.26 2.24 2.2 419.06l-3.59 7.37c-1.96 4.06-5.45 9.41-7.75 11.91-2.32 2.49-6.93 5.93-10.29 7.64-3.35 1.72-9.03 3.88-12.61 4.82-5.72 1.5-37.11 1.72-255.18 1.7-206.06-0.01-249.53-0.27-253.76-1.55-2.81-0.84-7.66-2.82-10.78-4.4-3.11-1.57-8.22-5.59-11.34-8.94-3.13-3.34-6.76-8.63-8.08-11.75-1.33-3.12-2.99-8.09-3.69-11.05-0.92-3.91-1.27-76.1-1.26-260.85 0.01-179.69 0.38-256.64 1.24-259.43 0.68-2.18 2.84-7.25 4.81-11.24 1.97-4.01 4.83-8.24 6.34-9.41 1.52-1.16 3.56-1.98 4.53-1.8zm1278.81 163.5c11.23 0.26 23.48 0.98 27.22 1.62 3.74 0.63 10.11 2.24 14.17 3.57 4.05 1.34 11.2 4.48 15.88 6.99 4.83 2.58 11.62 7.6 15.68 11.58 3.94 3.85 8.39 9.05 9.87 11.54 1.48 2.5 4.27 8.37 6.2 13.04 2.98 7.26 3.53 10.13 3.74 19.61 0.19 8.83-0.11 11.32-1.46 12.17-0.95 0.59-11.53 1.09-23.54 1.09-17.91 0.02-22.14-0.28-23.53-1.68-1.03-1.03-1.7-3.82-1.71-7.09-0.01-2.96-0.8-7.93-1.74-11.05-0.95-3.12-2.98-7.59-4.52-9.93-1.55-2.33-4.72-5.51-7.06-7.05-2.33-1.54-6.8-3.57-9.92-4.53-3.72-1.13-10.36-1.72-19.28-1.72-8.12 0-15.67 0.61-18.71 1.53-2.81 0.84-6.25 2.11-7.66 2.82-1.41 0.72-4.65 3.21-7.22 5.55-2.58 2.34-5.71 6.3-6.97 8.79-1.25 2.5-2.97 6.83-3.81 9.64-1.18 3.89-1.54 15.11-1.55 47.35-0.01 32.55 0.35 43.62 1.56 48.2 0.88 3.28 2.53 8.22 3.69 10.98 1.3 3.11 4.5 7.12 8.35 10.49 3.64 3.19 8.59 6.23 11.9 7.3 4.04 1.33 9.75 1.85 19.85 1.83 11.94-0.02 15.26-0.43 20.98-2.6 4.87-1.85 8.6-4.39 13.1-8.91 5.18-5.21 6.74-7.74 8.78-14.27 1.37-4.37 2.51-10.49 2.53-13.61 0.03-5.48-0.09-5.7-3.69-6.53-2.04-0.48-12.64-0.85-23.55-0.84-14.54 0.03-20.24-0.35-21.29-1.4-1.01-1.01-1.44-5.83-1.46-16.18-0.03-12.48 0.26-15 1.89-16.44 1.66-1.47 8.36-1.66 48.53-1.33 33.66 0.26 47.02 0.74 48.08 1.7 1.16 1.05 1.46 12.66 1.41 56.05-0.03 48.22-0.26 54.92-1.82 56.42-1.41 1.35-5.09 1.7-17.58 1.7-11.52 0-16.19-0.39-17.22-1.48-0.78-0.81-2.03-3.5-2.78-5.96-0.73-2.46-2.01-6.89-2.83-9.86-0.81-2.96-1.73-5.41-2.04-5.44-0.32-0.02-2.1 2.09-3.97 4.69-1.87 2.59-5.71 6.38-8.51 8.4-2.8 2.03-7.4 4.87-10.21 6.28-2.8 1.42-6.89 3.07-9.07 3.64-2.19 0.58-7.03 1.61-10.77 2.28-3.75 0.68-11.66 1.24-17.58 1.24-5.92 0.01-14.1-0.57-18.15-1.27-4.06-0.71-9.16-1.76-11.34-2.33-2.19-0.57-6.52-2.07-9.64-3.32-3.12-1.26-8.73-4.08-12.47-6.27-3.75-2.2-10.18-7.49-14.29-11.76-4.13-4.27-8.78-10.31-10.35-13.43-1.56-3.12-3.86-8.73-5.09-12.47-1.24-3.75-2.83-9.24-3.56-12.2-0.87-3.63-1.29-20.67-1.28-52.17 0.01-29.36 0.46-48.47 1.22-51.31 0.66-2.5 1.76-6.58 2.44-9.08 0.67-2.49 3.31-8.61 5.86-13.57 3.07-5.99 7.13-11.57 12-16.52 4.05-4.1 10.69-9.28 14.75-11.53 4.05-2.23 10.68-5.15 14.74-6.48 4.05-1.33 8.9-2.91 10.77-3.51 1.88-0.6 4.94-1.11 6.81-1.12 1.87-0.03 4.16-0.55 5.1-1.17 1.05-0.71 9.54-0.97 22.12-0.68zm488.81 0.06c10.6 0.22 21.83 0.93 24.95 1.59 3.12 0.65 7.71 1.68 10.2 2.28 2.5 0.61 6.07 1.58 7.94 2.17 1.87 0.58 7.23 3.05 11.91 5.49 5.21 2.71 11.74 7.52 16.83 12.37 6.06 5.77 9.39 10.11 12.24 15.88 2.15 4.36 4.49 9.98 5.19 12.47 0.71 2.5 1.46 10.4 1.67 17.58 0.27 9.4-0.01 13.45-1.04 14.51-1.08 1.11-6.83 1.46-23.26 1.42-17.85-0.04-22.14-0.36-23.54-1.75-1.18-1.18-1.7-4.06-1.7-9.36 0-4.91-0.83-9.89-2.3-13.89-1.27-3.43-3.57-7.89-5.1-9.92-1.55-2.03-4.72-4.95-7.06-6.48-2.33-1.53-6.55-3.62-9.35-4.63-3.5-1.24-9.22-1.85-18.15-1.91-7.59-0.06-14.94 0.5-17.58 1.32-2.49 0.8-6.83 2.53-9.63 3.87-2.8 1.34-7.14 4.56-9.64 7.15-3.08 3.18-5.41 7.21-7.22 12.47-2.65 7.68-2.68 8.28-2.53 52 0.15 42.69 0.24 44.48 2.67 51.25 1.4 3.86 4.1 9.21 6 11.91 2.13 2.99 5.87 6.17 9.64 8.2 3.4 1.81 9.49 3.98 13.55 4.82 4.04 0.83 10.31 1.51 13.89 1.51 3.58 0 8.95-0.58 11.91-1.28 2.96-0.71 7.43-2.1 9.91-3.12 2.49-1.01 6.26-3.37 8.37-5.24 2.12-1.87 4.91-4.94 6.2-6.81 1.3-1.87 3.27-5.95 4.39-9.07 1.14-3.18 2.03-8.79 2.03-12.76 0-5.29 0.5-7.55 1.99-8.91 1.72-1.6 4.96-1.78 24.49-1.42 12.38 0.23 23.02 0.66 23.64 0.98 0.71 0.36 0.86 5.16 0.41 13.04-0.41 6.86-1.41 14.78-2.24 17.58-0.81 2.8-3.09 8.29-5.04 12.19-1.95 3.9-5.29 9.51-7.42 12.47-2.12 2.96-5.82 6.99-8.22 8.94-2.4 1.95-8.19 5.6-12.86 8.12-4.69 2.52-11.06 5.44-14.18 6.52-3.12 1.07-7.71 2.41-10.21 2.97-2.49 0.56-8.11 1.6-12.47 2.32-4.37 0.71-14.07 1.29-21.55 1.29-7.49 0-17.18-0.57-21.55-1.27-4.37-0.7-9.73-1.75-11.91-2.31-2.19-0.58-7.03-2.15-10.77-3.5-3.75-1.35-10.13-4.31-14.18-6.57-4.06-2.28-10.72-7.49-14.81-11.6-4.1-4.1-9.02-10.26-10.93-13.7-1.92-3.43-4.51-9.3-5.75-13.04-1.25-3.74-2.98-9.35-3.83-12.47-1.18-4.36-1.54-16.35-1.54-51.61 0-35.44 0.35-47.22 1.56-51.6 0.86-3.12 2.26-7.84 3.11-10.49 0.87-2.65 3.18-8.01 5.14-11.91 1.96-3.9 6.68-10.32 10.49-14.28 3.8-3.94 9.72-8.89 13.16-10.99 3.43-2.09 9.55-5.17 13.61-6.84 4.05-1.66 10.05-3.73 13.32-4.59 3.28-0.87 7.61-1.61 9.64-1.65 2.03-0.05 4.71-0.54 5.96-1.09 1.25-0.56 10.94-0.84 21.55-0.62zm204.71 0.02c11.54 0.18 23.53 0.86 26.65 1.52 3.12 0.64 9.75 2.55 14.74 4.21 4.99 1.68 12.11 4.67 15.83 6.63 3.72 1.97 10.66 7.42 15.43 12.09 5.12 5.02 10.33 11.52 12.75 15.88 2.24 4.06 4.83 9.92 5.75 13.04 0.91 3.12 2.21 7.71 2.87 10.21 0.75 2.85 1.2 21.51 1.19 50.46-0.02 44.31-0.11 46.28-2.61 55.58-1.44 5.29-4.6 13.47-7.01 18.14-2.9 5.59-7.15 11.27-12.4 16.57-6.61 6.68-10.03 9.05-19.89 13.79-6.56 3.14-13.44 6.05-15.31 6.44-1.87 0.4-5.44 1.25-7.94 1.9-2.49 0.64-8.62 1.72-13.61 2.41-4.99 0.68-14.43 1.24-20.98 1.24-6.56 0-15.48-0.58-19.85-1.27-4.36-0.7-9.72-1.75-11.91-2.33-2.18-0.57-6.52-1.93-9.64-3-3.11-1.08-9.75-4.05-14.74-6.61-5.44-2.8-11.95-7.4-16.27-11.51-3.96-3.77-9-9.92-11.19-13.66-2.2-3.74-5-9.36-6.25-12.47-1.23-3.12-2.96-8.35-3.83-11.63-0.87-3.28-1.59-7.75-1.59-9.92 0-2.18-0.45-5.12-1.01-6.52-0.57-1.47-0.62-20.18-0.11-43.95 0.49-22.77 1.4-42.67 2.02-44.23 0.62-1.56 1.79-5.13 2.6-7.94 0.79-2.81 2.82-7.92 4.5-11.34 1.68-3.43 5.28-9.21 8.02-12.85 2.73-3.64 8.29-9.06 12.34-12.05 4.05-2.98 9.41-6.44 11.9-7.69 2.5-1.25 7.6-3.3 11.35-4.54 3.74-1.26 9.86-2.9 13.61-3.64 3.74-0.75 8.33-1.8 10.2-2.33 1.87-0.53 12.84-0.82 24.39-0.63zm-26.66 42.19c-4.34 1.25-8.39 3.43-11.19 6.01-2.42 2.22-5.35 5.95-6.52 8.29-1.17 2.33-2.9 6.54-3.83 9.35-1.42 4.27-1.65 12.26-1.35 48.49 0.2 24.49 0.86 45.35 1.52 47.91 0.63 2.5 2.22 6.58 3.51 9.08 1.31 2.49 4.57 6.69 7.28 9.33 2.93 2.86 7.43 5.73 11.15 7.1 5.26 1.93 8.99 2.28 23.82 2.28 14.82 0 18.55-0.35 23.81-2.28 3.72-1.37 8.23-4.24 11.15-7.1 2.71-2.64 5.98-6.84 7.28-9.33 1.3-2.5 2.9-6.58 3.53-9.08 0.72-2.73 1.18-21.85 1.18-48.2 0-26.34-0.46-45.46-1.18-48.2-0.63-2.49-2.21-6.57-3.48-9.07-1.28-2.49-4.3-6.35-6.71-8.57-2.81-2.58-6.85-4.74-11.2-6.01-3.74-1.09-8.33-2.47-10.21-3.04-1.87-0.59-8.5-1.01-14.74-0.96-6.24 0.06-12.62 0.54-14.18 1.06-1.56 0.52-5.89 1.84-9.64 2.94zm-1093.5-38.44c22.56 0.26 24.59 0.44 24.57 2.27-0.01 1.09-2.33 8.62-5.16 16.73-2.84 8.11-6.1 17.55-7.26 20.98-1.17 3.42-3.73 10.58-5.68 15.88-1.96 5.29-5.55 15.5-7.95 22.68-2.42 7.18-6.5 18.9-9.08 26.08-2.58 7.18-5.64 15.85-6.81 19.28-1.17 3.44-4.23 12.1-6.82 19.28-2.58 7.18-5.12 14.33-5.65 15.88-0.52 1.57-2.55 7.18-4.52 12.48-1.97 5.29-5.06 13.98-6.86 19.28-1.79 5.29-4.87 14.23-6.83 19.84-1.96 5.62-4.15 10.59-4.88 11.04-0.71 0.46-12.4 0.85-25.97 0.85-14.21 0.01-25.63-0.45-26.93-1.11-1.25-0.63-2.74-2.79-3.31-4.82-0.58-2.03-3.17-9.55-5.74-16.73-2.59-7.18-5.66-15.84-6.82-19.28-1.16-3.44-3.72-10.58-5.69-15.88-1.98-5.29-4.02-10.91-4.53-12.47-0.51-1.56-2.54-7.18-4.49-12.48-1.96-5.3-5.03-13.98-6.82-19.28-1.79-5.3-4.86-13.98-6.82-19.28-1.98-5.3-5.05-13.98-6.83-19.28-1.79-5.3-4.28-12.45-5.52-15.88-1.25-3.42-3.88-10.58-5.83-15.87-1.96-5.3-4.51-12.46-5.65-15.88-1.15-3.43-3.61-10.32-5.46-15.31-1.86-4.99-3.93-10.48-4.62-12.2-0.69-1.71-1.26-3.87-1.26-4.82 0-1.46 3.64-1.7 51.6-1.78l1.93 4.87c1.05 2.66 4.74 13.27 8.19 23.57 3.44 10.29 9.89 29.18 14.31 41.96 4.42 12.78 8.48 24.78 9.02 26.65 0.52 1.87 2.72 8.51 4.86 14.74 2.16 6.24 6.41 18.89 9.46 28.11 3.04 9.22 6.05 16.75 6.67 16.74 0.62-0.01 1.84-2.46 2.7-5.42 0.86-2.97 5.82-18.16 11.01-33.75 5.19-15.6 11.18-33.46 13.3-39.7 2.12-6.24 6.2-18.49 9.04-27.22 2.85-8.73 6.06-18.43 7.14-21.55 1.06-3.12 2.83-8.22 3.91-11.34 1.09-3.12 2.66-7.94 3.51-10.7 0.86-2.78 2.1-5.58 2.77-6.24 0.8-0.8 9.69-1.1 25.8-0.92zm84.13-0.62c5-0.17 8.68 0.26 9.93 1.16 1.86 1.35 1.97 7.99 1.97 110.32-0.01 85.11-0.32 109.19-1.42 110.34-1.05 1.11-6.69 1.46-22.67 1.42-11.69-0.03-22.04-0.3-22.97-0.62-1.49-0.49-1.7-13.68-1.67-109.72 0-60.04 0.38-109.77 0.85-110.52 0.54-0.91 5.42-1.5 14.43-1.75 7.49-0.2 17.19-0.49 21.55-0.63zm1194.8 0.63c25.88 0.17 50.89 0.52 55.58 0.8 4.67 0.27 11.05 0.99 14.17 1.61 3.12 0.62 7.2 1.46 9.08 1.87 1.87 0.41 9.01 3.43 15.87 6.75 11 5.29 13.49 7.05 20.98 14.92 5.39 5.65 9.84 11.61 12.11 16.29 1.98 4.06 4.6 10.68 5.84 14.74 1.23 4.06 2.85 11.72 3.6 17.01 0.92 6.55 1.17 19.66 0.77 40.83-0.32 17.16-1.08 34.25-1.7 37.99-0.61 3.75-1.65 8.85-2.3 11.34-0.65 2.5-3.38 8.84-6.07 14.08-3.38 6.61-7.31 12.05-12.81 17.69-4.6 4.72-11.05 9.88-15.31 12.24-4.05 2.26-10.7 5.19-14.75 6.53-4.05 1.34-9.15 2.92-11.34 3.52-2.19 0.59-7.29 1.63-11.34 2.3-4.28 0.71-30.11 1.41-61.53 1.64-46.99 0.36-54.38 0.19-55.85-1.29-1.34-1.34-1.7-4.85-1.7-16.44 0-11.93 0.34-15.08 1.78-16.45 1.32-1.26 4.48-1.7 22.6-1.69l0.9-13.89c0.5-7.65 0.8-35.34 0.68-61.54-0.12-26.2-0.52-53.5-1.58-73.72l-23.82-1.13-0.32-15.31c-0.19-8.42-0.05-16.46 0.28-17.86 0.49-2.01 1.51-2.61 4.86-2.84 2.34-0.16 25.44-0.15 51.32 0.01zm20.42 184c28.2 0 34.42-0.5 38.27-1.76 2.96-0.96 8.45-3.39 12.2-5.38 5.97-3.19 7.28-4.53 10.69-11 2.14-4.06 4.41-9.42 5.04-11.91 0.61-2.5 1.31-20.87 1.54-40.83 0.25-21.67-0.02-37.89-0.69-40.26-0.62-2.18-2.01-7.03-3.11-10.78-1.27-4.32-3.47-8.4-6.03-11.19-2.23-2.42-6.08-5.43-8.58-6.71-2.49-1.27-6.58-2.83-9.07-3.45-2.5-0.61-12.56-1.32-22.34-1.57l-17.81-0.44zm-1117.84-183.35c37.69 0.26 62.39 0.88 65.94 1.65 3.12 0.68 7.2 1.59 9.07 2.01 1.87 0.42 8 2.89 13.61 5.5 5.62 2.61 12.25 6.22 14.75 8.03 2.49 1.81 6 4.59 7.78 6.19 1.79 1.59 5.16 5.45 7.48 8.56 2.34 3.12 5.54 8.23 7.11 11.35 1.58 3.11 3.77 8.22 4.87 11.34 1.09 3.12 2.52 7.97 3.16 10.77 0.69 2.96 1.2 20.84 1.24 42.53 0.03 20.59-0.36 40.24-0.89 43.66-0.51 3.44-1.96 9.3-3.22 13.05-1.26 3.74-4.14 10.37-6.4 14.74-2.56 4.95-7.12 10.99-12.06 16.03-5.81 5.89-10.39 9.3-17.01 12.62-4.99 2.49-11.63 5.43-14.75 6.52-3.11 1.09-7.71 2.47-10.2 3.05-2.5 0.59-7.35 1.62-10.78 2.28-3.71 0.73-28.82 1.38-61.81 1.62-34.46 0.26-56.22 0-57.27-0.68-1.37-0.88-1.7-4.01-1.7-16.26 0-11.9 0.36-15.6 1.7-17.08 1.34-1.51 4.08-1.96 24.38-2.43l0.6-4.53c0.34-2.5 0.47-35.8-0.03-143.47h-11.91c-9.07 0-12.31-0.4-13.61-1.7-1.35-1.34-1.7-4.91-1.7-17.01 0-8.42 0.31-16.09 0.69-17.04 0.62-1.53 7.74-1.68 60.96-1.3zm15.28 111.53l0.19 71.82c27.69-0.59 37.77-1.27 40.26-1.87 2.5-0.61 7.85-2.86 11.91-5 6.61-3.5 7.77-4.65 11.29-11.28 2.14-4.04 4.39-9.92 4.99-13.04 0.59-3.12 1.28-21.49 1.53-40.83 0.27-21.06 0.01-36.74-0.66-39.12-0.61-2.18-2.02-7.04-3.12-10.78-1.27-4.32-3.47-8.4-6.03-11.19-2.21-2.42-6.07-5.43-8.57-6.7-2.49-1.29-6.57-2.83-9.07-3.45-2.49-0.63-12.72-1.33-22.73-1.57-10-0.24-18.64-0.07-19.19 0.38-0.55 0.44-0.9 32.53-0.8 72.63zm392.6-111.91l0.72 3.12c0.4 1.72 0.79 37.06 0.86 78.54 0.11 72.42 0.21 75.67 2.39 81.68 1.25 3.44 3.54 7.81 5.1 9.73 1.56 1.92 4.88 5.05 7.37 6.96 2.5 1.91 7.09 4.35 10.21 5.42 3.12 1.08 9.49 2.22 14.18 2.53 4.82 0.33 11.2-0.03 14.74-0.81 3.43-0.76 8.26-2.24 10.72-3.26 2.46-1.03 6.42-3.28 8.79-5 2.61-1.88 5.42-5.47 7.13-9.07 1.56-3.27 3.6-8.88 4.54-12.48 1.44-5.49 1.7-18.16 1.69-80.52-0.01-56.61 0.3-74.33 1.36-75.42 1.01-1.03 7.13-1.42 22.7-1.42 20.19 0 21.38 0.13 22.46 2.27 0.71 1.45 1.12 29.74 1.11 77.97-0.01 41.65-0.48 77.5-1.03 79.67-0.57 2.19-1.63 6.79-2.39 10.21-0.75 3.44-3.47 10.32-6.05 15.31-2.58 4.99-7.56 12.13-11.08 15.88-3.83 4.08-9.73 8.68-14.74 11.48-4.6 2.57-11.67 5.72-15.72 7.01-4.06 1.29-9.41 2.85-11.91 3.49-2.5 0.63-7.86 1.55-11.91 2.03-4.06 0.48-12.47 0.84-18.71 0.82-6.24-0.04-14.92-0.64-19.28-1.33-4.37-0.7-9.73-1.76-11.91-2.36-2.19-0.6-5.5-1.58-7.37-2.17-1.87-0.59-7.75-3.25-13.04-5.91-7.32-3.67-11.64-6.86-17.87-13.2-5.43-5.52-9.5-10.96-11.98-16.02-2.08-4.21-4.34-9.7-5.02-12.19-0.69-2.5-1.79-6.58-2.46-9.08-0.79-2.98-1.21-31.12-1.22-82.5-0.01-42.89 0.28-78.74 0.64-79.68 0.56-1.43 4.29-1.7 46.98-1.7zm182.97-0.01c16.96-0.01 23.24 0.35 24.3 1.42 1.15 1.13 1.44 23.77 1.42 109.45-0.01 96.72-0.2 108.21-1.8 109.73-1.46 1.39-5.71 1.7-23.25 1.7-17.57 0-21.78-0.31-23.16-1.7-1.5-1.49-1.7-15.18-1.7-109.44 0-59.26 0.29-108.51 0.65-109.45 0.56-1.43 4.27-1.7 23.54-1.71zm801.45 0.01v18.72c0 15.62-0.28 18.81-1.7 19.28-0.94 0.31-21.36 0.56-89.03 0.56v52.17h40.26c34.27 0 40.51 0.26 41.96 1.7 1.35 1.36 1.69 5 1.68 17.87-0.01 8.89-0.5 16.93-1.09 17.86-0.93 1.47-6.4 1.65-40.53 1.31-31.9-0.3-39.72-0.09-40.84 1.14-1.04 1.13-1.34 8.11-0.87 52.55l47.38 0.57c40.48 0.49 47.55 0.82 48.47 2.27 0.59 0.94 1.08 8.72 1.09 17.29 0.01 12.73-0.3 15.92-1.77 17.3-1.54 1.47-11.12 1.7-72.01 1.7-60.92 0-70.46-0.21-71.93-1.7-1.49-1.47-1.74-15.42-1.93-109.78-0.19-91.44 0.01-108.29 1.36-109.45 1.19-1.02 18.55-1.36 139.5-1.36z"/>
</svg>